<svg width="32" height="32" viewBox="0 0 32 32" fill="none" xmlns="http://www.w3.org/2000/svg">
<rect width="32" height="32" rx="6" fill="#1A1B22"/>
<path d="M16 30C23.732 30 30 23.732 30 16C30 8.26801 23.732 2 16 2C8.26801 2 2 8.26801 2 16C2 23.732 8.26801 30 16 30Z" fill="#988430"/>
<path d="M16 29.5515C23.4844 29.5515 29.5516 23.4842 29.5516 15.9999C29.5516 8.5156 23.4844 2.44836 16 2.44836C8.51572 2.44836 2.44849 8.5156 2.44849 15.9999C2.44849 23.4842 8.51572 29.5515 16 29.5515Z" fill="#7A6A2A"/>
<path d="M15.9999 29.2662C23.3265 29.2662 29.2659 23.3268 29.2659 16.0002C29.2659 8.67353 23.3265 2.73413 15.9999 2.73413C8.67329 2.73413 2.73389 8.67353 2.73389 16.0002C2.73389 23.3268 8.67329 29.2662 15.9999 29.2662Z" fill="#BA9F33"/>
<path fill-rule="evenodd" clip-rule="evenodd" d="M8.1211 14.5049C8.0418 14.4325 7.95802 14.3599 7.88097 14.2875C7.80391 14.2151 7.72477 14.1425 7.64547 14.0701L7.40982 13.8461C7.37129 13.8075 7.33053 13.7736 7.292 13.735C7.25347 13.7011 7.20822 13.6625 7.16969 13.6285C6.85699 13.3318 6.54249 13.035 6.23412 12.7382C6.55354 13.0304 6.86625 13.3206 7.18567 13.6171L7.29663 13.7282C7.33516 13.7666 7.37592 13.8007 7.41445 13.8392L7.64995 14.0566C7.72925 14.129 7.8063 14.2016 7.8856 14.2806C7.96489 14.3596 8.04195 14.4323 8.12125 14.5046L8.1211 14.5049ZM3.97097 14.4601C3.97097 14.4601 5.10815 14.5778 5.66322 14.6571C6.17737 14.7297 7.78584 14.9765 7.78584 14.9765L3.97097 14.4601ZM3.97097 14.4601C4.2904 14.4873 4.60982 14.5212 4.92925 14.5552C5.09232 14.5711 5.24867 14.5891 5.40502 14.605L5.645 14.6323C5.7243 14.6435 5.80135 14.6549 5.88065 14.6662L6.8322 14.8179L7.30783 14.8972C7.46418 14.9244 7.62053 14.954 7.7836 14.9811C7.62725 14.9653 7.46418 14.9426 7.30783 14.9199L6.8322 14.852L5.88065 14.7116C5.80135 14.7002 5.7243 14.6843 5.645 14.6731L5.40487 14.6454C5.24852 14.6296 5.08545 14.6069 4.9291 14.5887C4.60967 14.5503 4.29025 14.5094 3.97083 14.4597L3.97097 14.4601ZM7.67265 15.2728C7.67265 15.2728 6.45842 15.581 6.04835 15.6988C5.64515 15.8098 4.42405 16.1813 4.42405 16.1813L7.6725 15.2729L7.67265 15.2728Z" fill="#CFB66C"/>
<path fill-rule="evenodd" clip-rule="evenodd" d="M7.67244 15.2727C7.4029 15.352 7.13484 15.4291 6.86142 15.5016L6.05039 15.7191C5.78084 15.7984 5.51279 15.8754 5.24399 15.9547L4.84079 16.0657C4.70713 16.1042 4.57124 16.1381 4.43311 16.1768C4.56661 16.132 4.70265 16.0861 4.83631 16.0476L5.23951 15.9186C5.50905 15.8346 5.77711 15.7554 6.04591 15.6716C6.31993 15.6036 6.58963 15.5311 6.86366 15.4653C7.12409 15.3996 7.39827 15.3341 7.67244 15.2729V15.2727ZM4.59394 16.9288C4.72744 16.8789 6.26796 16.1609 6.62592 15.9932C6.80512 15.9093 7.32599 15.7244 7.32599 15.7244L4.59394 16.9288Z" fill="#CFB66C"/>
<path fill-rule="evenodd" clip-rule="evenodd" d="M4.5939 16.9288C4.71157 16.884 4.82268 16.8292 4.93587 16.7771L5.27113 16.6208L5.94402 16.2969C6.16802 16.1904 6.38575 16.0729 6.61677 15.9728C6.73459 15.9231 6.85242 15.8823 6.97009 15.8438L7.14929 15.7872C7.21037 15.7714 7.26712 15.7531 7.32849 15.7373C7.10449 15.8438 6.86869 15.9344 6.6444 16.0385C6.4204 16.1496 6.19132 16.2403 5.96015 16.3399L5.27605 16.6411C5.04638 16.7341 4.82238 16.8337 4.59375 16.9288H4.5939ZM4.74323 17.556C4.74323 17.556 6.1386 16.7383 6.61886 16.4755C6.87034 16.3351 7.68361 15.9317 7.68361 15.9317L4.74323 17.556Z" fill="#CFB66C"/>
<path fill-rule="evenodd" clip-rule="evenodd" d="M4.74341 17.5564C4.97891 17.4114 5.21903 17.2641 5.45916 17.1147L5.81756 16.8971C5.93987 16.8247 6.05769 16.7567 6.18238 16.6843C6.30469 16.6117 6.42251 16.5393 6.54706 16.4713C6.60635 16.4347 6.66847 16.4029 6.73283 16.3762L6.92308 16.2811C7.17456 16.1588 7.42603 16.0341 7.6911 15.9276C7.45097 16.0795 7.20397 16.2087 6.95713 16.3422C6.83482 16.4101 6.71013 16.4713 6.58782 16.5393C6.46552 16.6072 6.3477 16.6798 6.223 16.7455C6.1007 16.8179 5.98287 16.8859 5.85833 16.9516L5.48903 17.1532L4.74371 17.5564H4.74341ZM7.67243 16.111C7.67243 16.111 6.80481 16.777 6.52391 16.99C6.24301 17.2029 5.41615 17.801 5.41615 17.801L7.67243 16.111Z" fill="#CFB66C"/>
<path fill-rule="evenodd" clip-rule="evenodd" d="M12.6519 21.4822L12.2079 20.6417L12.4661 19.5905L14.3078 18.8793L13.524 17.271L13.9113 15.6467L14.6386 14.1921L16.8859 13.8388L18.5372 12.2644L22.103 12.534L22.8029 16.3466L21.4551 21.1469L20.6872 23.6321L17.5745 23.7499L16.1292 22.7487L14.437 22.0417L12.6519 21.4822Z" fill="#E2CC85"/>
<path fill-rule="evenodd" clip-rule="evenodd" d="M18.1115 21.4551C18.1115 21.4551 17.681 21.6522 16.9467 21.6068C16.7342 21.3214 15.2459 21.1878 15.2459 21.1878C15.2459 21.1878 15.0602 21.1312 14.7316 21.2671C14.401 21.4015 14.0883 21.3849 13.7961 21.4573C13.5038 21.5297 13.2137 21.1492 12.9897 21.0699C12.7657 20.9862 12.4686 20.7846 12.4686 20.7846L11.8414 20.7233L10.582 20.191L8.58105 18.1975L8.03733 19.0487L7.86963 20.1021L8.47458 21.3504L10.1034 22.8342L13.2794 23.6406L15.1619 23.0859L17.5201 22.0891L18.1115 21.4549V21.4551Z" fill="#F1D789"/>
<path fill-rule="evenodd" clip-rule="evenodd" d="M6.82749 14.4097L7.23069 13.1888L7.7111 12.4003L9.25819 12.2711L8.79376 13.6259L7.50039 15.9275L8.03724 17.9822L7.08584 18.4578L6.79344 18.0094L6.55794 16.9809L6.54211 15.8256L6.82749 14.4097Z" fill="#F4ECB4"/>
<path fill-rule="evenodd" clip-rule="evenodd" d="M8.56269 21.3712L8.26596 20.9566C8.26596 20.9566 8.18667 20.7595 8.23207 20.5873C8.27687 20.4129 8.27044 20.4015 8.24789 20.3358C8.22535 20.2701 8.03495 20.0436 8.04629 19.8487C8.05749 19.6516 8.03047 19.5859 8.17532 19.4297C8.32704 19.278 8.28179 19.0151 8.28179 19.0151L8.47891 19.1374L8.52371 19.0695C8.52371 19.0695 8.59614 19.1261 8.59614 19.2145C8.61197 19.0922 8.54626 18.5258 8.69575 18.3967C8.84523 18.2677 9.11029 19.0015 9.11029 19.0015L8.94722 17.9368L8.52804 16.845L7.78272 15.8482L7.73792 14.7494V14.6543C7.73792 14.6543 7.3958 15.18 7.30067 15.5951C7.23273 15.8805 7.3958 16.2271 7.3619 16.6371C7.33457 17.045 7.30067 17.0132 7.40028 17.1747C7.49988 17.3363 7.7424 17.6686 7.64728 17.9087C7.5635 18.1149 7.27797 17.9699 7.27797 17.9699C7.27797 17.9699 7.22138 18.1375 7.14432 18.1987C7.11714 18.0991 7.08772 18.0357 7.03337 17.9747C7.02874 18.0133 7.01754 18.0654 7.01754 18.0654C7.01754 18.0654 6.96766 17.909 6.91778 17.7119C6.84999 17.4492 6.77741 17.1026 6.7117 16.9168C6.68452 17.0233 6.61658 17.3472 6.61658 17.3472L6.65511 17.8457L6.84088 18.5298L7.02008 18.9778L7.1945 19.526L7.34607 19.8943L7.46837 20.1751L7.57485 20.8073L8.089 21.3509L8.36318 21.4733L8.56239 21.3713L8.56269 21.3712Z" fill="#F3E19D"/>
<path fill-rule="evenodd" clip-rule="evenodd" d="M7.09705 13.4128C7.09705 13.4128 6.72775 14.04 6.62143 14.6723C6.5151 15.3046 6.41983 15.9727 6.48703 16.8335C6.55497 17.7012 6.68415 18.2335 6.78838 18.6141C6.96758 19.2462 7.43171 20.1252 7.43171 20.1252L7.44754 20.0912C7.36952 19.9433 7.30726 19.7876 7.26177 19.6267C7.20054 19.3866 7.17784 19.1012 7.12125 18.9721C7.07137 18.843 6.98759 18.7319 6.94682 18.5733C6.9083 18.4216 6.90202 18.1815 6.78375 18.0026C6.73387 17.93 6.67265 17.7398 6.65458 17.5495C6.63188 17.264 6.66593 16.9446 6.63875 16.6819C6.58887 16.2446 6.55497 15.9479 6.60022 15.719C6.64547 15.4901 6.88127 14.8402 7.02627 14.3236C7.12139 13.9928 7.06465 13.7142 7.23907 13.4264C7.41349 13.141 7.52011 12.8896 7.55849 12.7151C7.60329 12.5566 7.09646 13.4128 7.09646 13.4128H7.09705Z" fill="#F2E8B0"/>
<path fill-rule="evenodd" clip-rule="evenodd" d="M8.84837 13.1615C8.84837 13.1615 8.65812 13.2182 8.56748 13.3179C8.47683 13.413 8.4383 13.4923 8.316 13.6531C8.19369 13.8139 8.18683 13.9453 8.08707 14.1469C7.98747 14.3441 7.76765 14.6408 7.74047 14.7473C7.71329 14.8537 7.66804 15.3521 7.61144 15.5877C7.56157 15.8234 7.66804 16.1134 7.66804 16.1134L7.79707 16.086C7.79707 16.086 7.79707 16.2537 7.92624 16.3671C8.05526 16.478 8.07796 15.9909 8.07796 15.9909L8.56046 14.3621L9.28756 13.8683L9.36686 13.4696L8.84807 13.1615H8.84837Z" fill="#F5EEC0"/>
<path fill-rule="evenodd" clip-rule="evenodd" d="M9.20163 13.9001C9.20163 13.9001 8.85951 13.9227 8.69196 14.0451C8.62401 14.0949 8.59683 14.1356 8.52441 14.1969C8.39075 14.3078 8.25471 14.4098 8.18915 14.5553C8.11658 14.7001 8.03728 14.9199 7.98292 15.3345C7.96023 15.5089 7.96023 15.6697 7.9444 15.8103C7.9217 16.0005 7.8878 16.1522 7.90587 16.2583C7.92857 16.4757 8.15287 16.589 8.17467 16.8359L8.63909 16.6004L9.07634 14.8763L10.0052 14.2939L9.47954 13.705L9.20104 13.8991L9.20163 13.9001Z" fill="#E6DB9D"/>
<path fill-rule="evenodd" clip-rule="evenodd" d="M6.75149 25.5094C6.75343 25.4924 6.75537 25.4754 6.75732 25.4579C6.82511 24.8755 6.83661 24.4341 6.88634 24.1576C6.95877 23.7658 7.00864 23.62 6.99729 23.4734C6.98147 23.2379 6.9634 23.0657 6.98609 22.8844C7.01999 22.6443 7.25564 22.3589 7.24892 22.1618C7.24429 22.0055 7.165 21.9036 7.09705 21.8085C7.0291 21.7134 6.97475 21.6341 6.97475 21.6341C6.97475 21.6341 7.43917 21.3146 7.43469 20.0278C7.44418 20.0305 7.4533 20.0343 7.46187 20.0392L7.69065 20.6892L7.847 20.8795L8.44732 21.9986L9.21982 22.7485L10.3615 23.5164L11.0774 24.2955L11.1498 26.3729L10.2142 27.5871L10.061 27.8645C8.84376 27.2535 7.72753 26.4591 6.75134 25.5093L6.75149 25.5094Z" fill="#E5CB7A"/>
<path fill-rule="evenodd" clip-rule="evenodd" d="M9.6095 27.4966C9.6095 27.4966 9.62533 27.2384 9.83828 27.0707C9.87232 27.1273 9.89487 27.1818 9.88815 27.2225C9.92668 27.1547 10.1962 26.7197 10.8057 26.6063C11.4151 26.4954 11.5623 26.0514 11.5623 26.0514L12.8557 24.8757L14.335 23.5142L16.1337 22.8821L16.9743 22.6759C16.9743 22.6759 16.9901 22.7371 16.9585 22.873C17.1147 22.8618 17.4613 22.7825 17.8215 22.6555C17.9665 22.5989 18.1025 22.5763 18.175 22.6511C18.2814 22.7507 18.2973 22.9863 18.304 23.1267C18.4784 23.0882 18.68 22.9206 18.8416 22.9364C19.0999 22.9636 19.3287 23.2672 19.5915 23.2672C19.9381 23.2672 20.0943 23.0543 20.3369 22.8866C20.4819 22.787 20.6902 22.6626 20.808 22.5785C21.0889 22.3723 24.0611 21.4639 24.0611 21.4639L25.1031 21.5318L25.2708 22.6509L25.1812 25.5764C25.1702 25.587 25.1591 25.598 25.1479 25.6086L20.4099 28.0832L13.8422 29.09C12.371 28.8497 10.9513 28.3613 9.64355 27.6458L9.60995 27.4965L9.6095 27.4966Z" fill="#D8C173"/>
<path fill-rule="evenodd" clip-rule="evenodd" d="M7.14966 25.8814C7.24299 25.6862 7.32692 25.523 7.3417 25.4646C7.35335 25.5823 7.3747 25.8405 7.41771 26.1149C7.32741 26.0382 7.23806 25.9603 7.14966 25.8812V25.8814Z" fill="#F1D789"/>
<path fill-rule="evenodd" clip-rule="evenodd" d="M11.9475 28.6346L12.7969 28.3984L12.8693 28.4211C12.8693 28.4211 12.9078 28.4438 12.9078 28.5207C13.0143 28.4596 13.1049 28.4708 13.1706 28.4302C13.2045 28.5026 13.2384 28.7428 13.3881 28.7722C13.5443 28.8062 13.712 28.7042 13.8819 28.5752C14.0495 28.4415 14.2403 28.2738 14.3847 28.2059C14.4377 28.3033 14.4846 28.4039 14.5252 28.5071C14.7155 28.3554 15.0463 27.7392 15.5174 27.7504C15.6536 27.4286 15.8811 27.1538 16.1718 26.9599C16.609 26.6631 16.8831 26.6404 17.2252 26.6676C17.3611 26.4911 17.5285 26.3413 17.719 26.2259C17.7756 26.2486 17.932 26.3437 18.1269 26.2531C18.324 26.1626 18.5459 25.8113 18.8381 25.7661C18.9956 25.7444 19.1558 25.778 19.2912 25.8612C19.2912 25.8612 20.1424 25.0161 20.7297 24.7352C20.7071 24.6673 20.6618 24.4113 21.3504 23.8449C21.3889 23.879 21.3617 23.9741 21.3889 23.9793C21.4001 23.9793 21.5681 23.9069 21.7808 23.7437C22.0436 23.5467 22.3584 23.3405 22.5486 23.2839C22.907 23.1774 23.2872 23.3948 23.2872 23.3948C23.3196 23.3721 23.3556 23.3553 23.3937 23.3449C23.4842 23.3291 23.5499 23.3178 23.5998 23.3001C23.5953 23.418 23.661 23.6196 23.5998 23.794C23.6707 23.8339 23.7458 23.8658 23.8238 23.8891C23.7854 23.9729 23.7015 24.1858 23.5611 24.2878C23.6788 24.3444 23.6946 24.4101 23.8623 24.467C23.7944 24.5622 23.6831 24.7254 23.6335 24.8254C23.5837 24.9319 23.4046 25.3736 23.3253 25.5412C23.2415 25.7089 23.1283 26.017 23.0738 26.0788C23.0193 26.1406 22.8224 26.4027 22.6706 26.5317C22.805 26.4818 23.3549 26.3143 23.5881 26.2508C23.5187 26.3527 23.1667 26.8749 22.8283 27.3771C21.2081 28.3482 19.3996 28.9628 17.5232 29.1801C15.6468 29.3973 13.7456 29.2121 11.9464 28.6369L11.9475 28.6346Z" fill="#E0CD81"/>
<path fill-rule="evenodd" clip-rule="evenodd" d="M9.25755 13.8388C9.25755 13.8388 9.06058 13.8388 9.02205 13.866C8.98352 13.8932 9.21917 13.9499 9.2916 13.9771C9.36402 14.0043 9.52037 14.1288 9.56114 14.2286C9.59967 14.3237 10.977 14.8786 10.977 14.8786L11.9511 14.8287L12.2869 14.3648L11.6481 13.8052L12.0961 12.4845L11.5026 12.5796L10.0754 13.4308L9.35954 13.705L9.25755 13.8388Z" fill="#DFC57C"/>
<path fill-rule="evenodd" clip-rule="evenodd" d="M11.3968 14.276C11.4109 14.2988 11.4307 14.3175 11.4543 14.3302C11.4779 14.3429 11.5044 14.3492 11.5312 14.3484C11.7328 14.3484 11.9184 14.3983 11.9955 14.5001C12.1246 14.6634 12.4826 15.1844 12.4826 15.1844L13.3389 15.4925L13.3941 14.4842L12.4585 13.8341L11.3938 14.226V14.2758H11.3962L11.3968 14.276Z" fill="#E5CC7C"/>
<path fill-rule="evenodd" clip-rule="evenodd" d="M11.2289 14.6499C11.2289 14.6499 11.3851 14.6613 11.5822 14.5887C11.7793 14.5161 12.1032 14.3599 12.2437 14.4212C12.4407 14.5049 12.4 14.7678 12.613 15.0036C12.7421 15.1486 12.9777 15.1441 13.1114 15.3004C13.245 15.4568 13.7048 15.3842 13.7048 15.3842L13.8792 16.325L13.1793 17.2222L12.9504 18.3367H12.0039L11.1393 17.9937L10.7134 16.9633L10.9263 15.9212L11.2289 14.6499Z" fill="#D2C281"/>
<path fill-rule="evenodd" clip-rule="evenodd" d="M13.0596 14.6952C13.0831 14.7024 13.1074 14.7063 13.132 14.7065C13.1048 14.7292 13.0481 14.779 13.0708 14.9081C13.0935 15.0373 13.1659 15.2004 13.1048 15.3C13.1536 15.3533 13.1899 15.4168 13.2113 15.4858C13.2498 15.5969 13.2612 15.6987 13.5125 15.7147C13.4762 15.737 13.4428 15.7636 13.4129 15.794C13.4129 15.794 13.5873 15.9457 13.6757 16.0861C13.7662 16.0822 14.0064 16.0075 14.0064 16.0075L14.0562 16.0416L14.1627 15.9968C14.1627 15.9968 14.0631 15.9583 14.1355 15.7159C14.2035 15.5029 14.2647 15.5143 14.2699 15.4985C14.2752 15.4826 14.3198 15.2583 14.3198 15.1677C14.3537 15.05 14.3809 14.6921 14.3809 14.6921L14.3085 13.9015L13.9008 13.6545L13.5693 13.3345L13.2565 13.9234L13.0506 14.1288L13.0348 14.6385L13.0596 14.6952Z" fill="#E2C270"/>
<path fill-rule="evenodd" clip-rule="evenodd" d="M14.0404 14.0338C14.0404 14.0338 14.1128 14.2399 14.1402 14.3985C14.1498 14.3677 14.1551 14.3356 14.156 14.3034C14.156 14.3034 14.2126 14.6161 14.2238 14.7452C14.2465 14.7406 14.2686 14.7339 14.2737 14.7564C14.2787 14.779 14.3304 15.0306 14.3185 15.171C14.4128 15.0154 14.5433 14.8848 14.699 14.7905C14.7896 14.7337 14.8961 14.6727 15.0072 14.668C15.1816 14.6636 15.3084 14.7791 15.5169 14.7791C16.0197 14.7791 16.4751 14.4098 16.8104 14.2966C17.0572 14.2127 17.2702 14.1516 17.4197 14.0156C17.4922 13.9545 17.6214 13.8186 17.7391 13.6169C17.8954 13.3481 18.0585 13.1141 18.2217 13.0846C18.1479 13.0982 18.0728 13.1035 17.9977 13.1005C17.9977 13.1005 18.0476 13.0506 18.1321 12.9827C18.2167 12.9147 18.3179 12.8309 18.4628 12.8309C18.7211 12.8309 18.8501 12.8693 18.9951 12.8693C19.1401 12.8648 19.2239 12.8309 19.2239 12.8309C19.2239 12.8309 19.3758 12.9374 19.7178 12.9374C20.0599 12.9419 20.2887 12.9713 20.4677 12.9873C20.6468 13.0033 21.2469 12.9374 21.4191 12.9425C21.5314 12.9468 21.6416 12.9738 21.7432 13.0218L21.1881 11.409L19.1942 9.66626L18.0071 10.5067L16.1811 12.3326L14.4142 12.9873L14.0449 13.4018V14.0338H14.0404Z" fill="#CCB360"/>
<path fill-rule="evenodd" clip-rule="evenodd" d="M18.0049 13.1094C18.0049 13.1094 18.0548 13.0597 18.1384 12.9917C18.2221 12.9238 18.3244 12.8398 18.4692 12.8398C18.7274 12.8398 18.8566 12.8784 19.0016 12.8784C19.1466 12.8739 19.2304 12.8398 19.2304 12.8398C19.2304 12.8398 19.3824 12.9462 19.7242 12.9462C20.0663 12.9506 20.2951 12.9801 20.4742 12.9959C20.6532 13.0117 21.2534 12.9462 21.4256 12.9511C21.5378 12.9553 21.648 12.9823 21.7495 13.0304L21.498 12.3031L21.2059 11.7482L20.3722 10.8352C20.3722 10.8352 19.3716 10.2462 19.364 10.2417C19.3595 10.2373 19.0174 10.1466 19.0174 10.1466L18.1113 10.6948L17.289 12.8221L17.2732 13.2701L17.8054 13.5215C17.9391 13.2975 18.0865 13.1183 18.2246 13.0956C18.0999 13.1092 18.0048 13.1092 18.0048 13.1092L18.0049 13.1094Z" fill="#D5B457"/>
<path fill-rule="evenodd" clip-rule="evenodd" d="M17.9937 13.2612C17.9144 13.2657 17.8488 13.2499 17.8306 13.1933C17.7626 13.003 17.7083 12.9759 17.6514 12.9759C17.5945 12.9759 17.5177 13.0982 17.4722 13.1094C17.4266 13.1206 17.3726 12.969 17.3726 12.969L17.3227 12.9463C17.3227 12.9463 17.0305 13.1365 16.8244 13.3608C16.6183 13.5851 16.2807 13.9658 16.1289 14.0336C15.9772 14.1014 15.456 14.1242 15.2777 14.1628C15.0994 14.2013 14.9017 14.3305 14.8745 14.3599C14.8474 14.3893 14.954 14.421 14.9698 14.4504C14.9856 14.4776 14.7952 14.4662 14.7794 14.4952C14.7682 14.5179 14.8242 14.6469 14.852 14.7126C14.9006 14.6884 14.9539 14.6753 15.0082 14.6741C15.1826 14.6696 15.3095 14.7852 15.5179 14.7852C16.0208 14.7852 16.4761 14.4159 16.8114 14.3025C17.0584 14.2188 17.2713 14.1575 17.4208 14.0216C17.4933 13.9606 17.6224 13.8245 17.7402 13.6229C17.8263 13.4848 17.9102 13.3556 17.9941 13.2605L17.9937 13.2612Z" fill="#D2B257"/>
<path fill-rule="evenodd" clip-rule="evenodd" d="M10.7807 24.4726C10.7807 24.4726 10.7359 24.3049 10.3208 23.8723C10.203 23.75 10.1305 23.6483 10.0512 23.5755C9.85413 23.3896 9.73855 23.3399 9.59817 23.2334C9.2901 23.0046 8.95484 23.0046 8.69665 22.7237C8.43845 22.4428 8.13754 21.9061 7.92848 21.3576C7.7224 20.8094 7.66565 20.635 7.66565 20.6192C7.66565 20.6034 7.7224 20.4969 7.79482 20.5127C7.86725 20.5285 7.86725 20.6689 7.88547 20.703C7.92155 20.7585 7.96248 20.8108 8.00777 20.8592C8.11425 20.9816 8.26597 21.128 8.34303 21.3463C8.3272 21.1605 8.26373 20.9544 8.26373 20.9544C8.26373 20.9544 8.66245 21.2059 9.00218 21.4686C9.34431 21.7314 9.48468 21.8221 9.58458 21.9896C9.68449 22.1572 9.91984 22.599 10.0326 22.7282C10.1453 22.8574 11.6902 23.3444 11.6902 23.3444L12.4251 23.8923L12.7899 24.692L12.5043 25.14L11.9561 25.2578L11.0658 24.8591L10.7807 24.4724V24.4726Z" fill="#D2B159"/>
<path fill-rule="evenodd" clip-rule="evenodd" d="M8.80298 21.7177C8.80298 21.7177 8.98875 22.0144 9.44183 22.2953C9.84966 22.5423 10.4952 22.7666 11.0708 22.9003C11.4014 22.9795 11.7322 23.0406 12.0289 23.0453C12.8286 23.0565 13.379 22.8278 14.061 22.753C14.4303 22.7145 14.8834 22.6851 15.3545 22.5738C15.9593 22.4288 16.3173 22.2656 16.8044 22.0362C17.1577 21.8731 17.4818 21.7508 17.7445 21.5945C18.1138 21.3771 18.3833 21.1347 18.696 21.0623C18.6575 21.1687 18.6167 21.359 18.3086 21.5561C18.4717 21.5515 18.696 21.5403 18.696 21.5403C18.696 21.5403 18.4786 21.6693 18.0957 21.9593C17.86 22.1385 17.5475 22.4418 17.2281 22.6434C17.0218 22.7726 16.7975 22.8674 16.6503 22.9448C16.2919 23.1419 16.1473 23.2415 15.9118 23.4824C15.9956 23.4779 16.0025 23.4824 16.0025 23.4824C16.0025 23.4824 15.7056 23.5209 15.4928 23.6341C15.448 23.6341 15.3704 23.6182 15.2345 23.6568C15.128 23.6907 14.9875 23.7679 14.8426 23.8085C14.6364 23.8697 14.5686 23.8425 14.5686 23.8425L14.6025 23.9105C14.6025 23.9105 14.3337 23.9059 14.2441 23.915C14.2599 23.9195 14.2554 23.9263 14.2554 23.9263C14.2397 23.929 14.2245 23.9343 14.2106 23.9421C14.1675 23.9701 14.1201 23.9907 14.0703 24.0032C14.0431 24.0077 14.0204 24.0077 13.9863 24.0146C13.9977 24.0418 14.0861 24.1938 14.1269 24.2834C14.093 24.3061 13.5831 24.6912 13.5831 24.6912C13.599 24.7161 13.6119 24.7427 13.6217 24.7705C13.6375 24.8202 13.6444 24.8928 13.6602 24.9267C13.6986 24.9947 13.7213 25.006 13.7213 25.006C13.7213 25.006 13.6602 25.0174 13.5536 25.0445C13.4631 25.0672 13.352 25.1056 13.1952 25.1283C13.1471 25.1346 13.0987 25.1383 13.0502 25.1397C13.0729 25.1895 13.1725 25.3798 12.9889 25.5995C12.8054 25.8191 12.7488 25.8511 12.6922 25.9915C12.6637 25.9699 12.6334 25.9509 12.6016 25.9347C12.5405 25.9075 12.4566 25.8669 12.4271 25.8124C12.41 25.885 12.3873 25.9562 12.3592 26.0253C12.3026 26.1771 12.2188 26.3267 12.203 26.4399C12.1418 26.372 12.0286 26.2383 11.8722 26.2655C11.7159 26.2927 11.5913 26.5056 11.5642 26.5668C11.5642 26.5283 11.537 26.4989 11.5303 26.5441C11.5256 26.594 11.4396 27.1149 10.9594 27.5363C10.9549 27.4298 10.9549 27.1942 10.9435 27.1173C10.8987 27.1621 10.8439 27.2282 10.5176 27.3688C10.1982 27.5091 10.2488 27.6496 10.2488 27.6496C10.2488 27.6496 10.2216 27.4256 10.3938 27.1897C10.5682 26.9542 10.6747 26.8431 10.6747 26.825C10.6719 26.8066 10.6641 26.7894 10.652 26.7752C10.6293 26.7525 10.5841 26.7253 10.5841 26.7072C10.6113 26.696 10.8808 26.5668 10.865 26.2994C10.8491 26.0594 10.7473 25.9347 10.6747 25.8464C10.6635 25.8351 10.7813 25.7513 10.7654 25.7241C10.754 25.7083 10.6092 25.6017 10.5909 25.5449C10.5952 25.5111 10.6028 25.4777 10.6136 25.4453C10.6295 25.3955 10.6408 25.3614 10.6363 25.3275C10.625 25.2709 10.5638 25.1146 10.5457 25.0987C10.5615 25.1032 10.6747 25.0987 10.6747 25.0987C10.6747 25.0987 10.5842 24.9537 10.5682 24.8858C10.5523 24.8178 10.5184 24.6388 10.5003 24.6049C10.5388 24.6094 10.634 24.6161 10.634 24.6049C10.6386 24.5708 10.5502 24.5142 10.5892 24.4705C10.6163 24.475 10.6685 24.4977 10.7182 24.5611C10.691 24.4886 10.6458 24.3482 10.5505 24.2916C10.5953 24.2758 10.7476 24.2348 10.8813 24.3141C11.0149 24.3934 11.0605 24.5044 11.0605 24.5044C11.0605 24.5044 11.1397 24.5656 11.2622 24.6563C11.4026 24.7672 11.5815 24.9251 11.867 25.0368C11.9282 25.0708 12.0844 25.0708 12.1978 25.0481C12.2471 25.0364 12.2944 25.0173 12.3381 24.9915C12.3539 24.9822 12.3706 24.9746 12.388 24.9688C12.3637 24.9199 12.3357 24.873 12.3042 24.8283C12.3428 24.8283 12.388 24.8329 12.388 24.8329C12.388 24.8329 12.4152 24.7717 12.2929 24.6537C12.3201 24.6265 12.3541 24.6089 12.3541 24.5631C12.3156 24.5586 12.2477 24.502 12.2318 24.4793C12.2544 24.4635 12.2884 24.4114 12.3269 24.3955C12.2929 24.3683 12.2091 24.255 12.1706 24.2438C12.2074 24.2301 12.243 24.2135 12.2771 24.1939C12.2771 24.1939 12.0868 24.144 12.0256 24.1033C11.9644 24.0585 11.8739 23.981 11.8195 23.9583C11.7628 23.9356 11.6632 23.9244 11.6224 23.879C11.6608 23.8903 11.722 23.879 11.7674 23.879C11.8013 23.879 11.8173 23.8835 11.8285 23.8835C11.824 23.8676 11.824 23.8336 11.9124 23.8224C11.9549 23.816 11.9962 23.803 12.0347 23.7839C12.0347 23.7839 11.9508 23.7794 11.8555 23.6887C11.7602 23.5981 11.6811 23.5257 11.6267 23.5143C11.5701 23.503 11.4637 23.5528 11.3979 23.5482C11.3073 23.537 11.2688 23.4916 11.2688 23.4916C11.2688 23.4916 10.9676 23.5188 10.2993 23.1111C9.72153 22.7576 9.47005 22.4451 9.47005 22.4451C9.41598 22.4255 9.36372 22.4012 9.31385 22.3725C9.09642 22.2593 8.79506 22.0237 8.80417 21.7154L8.80298 21.7177Z" fill="#C2A44D"/>
<path fill-rule="evenodd" clip-rule="evenodd" d="M17.1371 8.12101C17.1895 8.13803 17.2361 8.16944 17.2715 8.21165C17.378 8.33396 17.4459 8.56498 17.2036 8.81197C17.2987 8.84587 17.338 8.85677 17.421 8.84587C17.3372 8.94563 17.147 9.15858 17.1356 9.34435C17.1243 9.49607 17.2194 9.54147 17.2194 9.54147C17.2194 9.54147 17.0744 9.70902 17.0677 9.98947C17.1362 9.91225 17.2111 9.841 17.2917 9.77652C17.4594 9.64286 17.6904 9.49114 17.8467 9.39602C17.8446 9.43589 17.85 9.4758 17.8626 9.51369C17.8626 9.51369 18.1547 9.27356 18.4002 9.38019C18.5111 9.43006 18.4613 9.58627 18.4613 9.58627C18.4613 9.58627 18.6131 9.52967 18.7196 9.63614C18.8261 9.74262 18.9766 10.0172 19.0538 10.1237C19.0877 10.1736 19.1761 10.2687 19.2666 10.416C19.3902 10.6221 19.4935 10.8398 19.5748 11.066C19.5793 10.9482 19.6087 10.7648 19.9441 10.8802C20.2794 10.9981 20.6599 11.2451 20.9793 11.7314C21.2987 12.2178 21.3779 12.7669 21.5387 12.976C21.7018 13.1776 21.8695 13.5128 21.8808 13.6534C21.8922 13.7939 21.831 14.2468 22.1662 15.4724C22.2613 15.0919 22.4063 14.2468 22.4063 14.2468L22.4856 13.5015L22.5763 11.1953L20.1681 9.19472L18.2856 7.82861L17.0601 7.94644L17.137 8.12086L17.1371 8.12101Z" fill="#CAA13E"/>
<path fill-rule="evenodd" clip-rule="evenodd" d="M21.6113 11.553C21.6113 11.553 21.5772 11.329 21.0109 10.9482C20.4445 10.5722 20.0028 10.5722 19.5951 10.2528C19.2824 10.0013 18.9563 9.42354 18.7439 9.23329C18.5377 9.04528 18.5038 8.50155 18.5038 8.50155L19.1992 7.91915L20.2335 6.42418L21.1079 5.46143L21.5269 6.04383L22.1093 6.72792L22.4332 8.10074L22.551 10.1102L21.6102 11.5532L21.6113 11.553Z" fill="#B59544"/>
<path fill-rule="evenodd" clip-rule="evenodd" d="M22.3115 13.9615C22.3286 13.6568 22.291 13.3515 22.2004 13.06C22.0511 12.5956 21.7248 11.771 21.5732 11.4621C21.512 11.12 21.5574 11.0928 21.6231 11.0543C21.6888 11.0158 21.9358 10.8751 22.0711 10.3816C22.2064 9.88802 22.6261 9.87189 22.6261 9.87189L22.8843 9.68164L23.2763 10.6625L23.6183 11.5483L23.7248 12.2257L23.8041 12.8033L23.6183 14.0244L22.701 14.8535L22.3113 13.9615H22.3115Z" fill="#C89D3A"/>
<path fill-rule="evenodd" clip-rule="evenodd" d="M9.50977 27.5718V27.5467C9.52883 27.5348 9.54566 27.5196 9.55949 27.5019C9.57532 27.4792 9.58682 27.452 9.59802 27.4453C9.62072 27.4339 9.72719 27.4005 9.78379 27.4112C9.84039 27.422 9.99002 27.4836 10.0693 27.4792C10.2324 27.4747 10.4226 27.35 10.724 27.4067C11.1771 27.4905 11.2835 27.7986 11.5464 27.973C11.7256 28.0955 11.911 28.041 11.9382 28.041H11.9993C12.0107 28.041 12.0944 27.9458 12.1398 27.9505C12.2305 27.9549 12.2394 28.0298 12.296 28.0342C12.4297 28.0501 12.688 27.9663 12.8172 28.0003C12.8555 28.0123 12.8903 28.0334 12.9187 28.0618C12.9471 28.0902 12.9682 28.125 12.9803 28.1633C13.0075 28.247 12.9848 28.3535 12.919 28.4147C12.7787 28.5438 12.645 28.6662 12.6178 28.7731C12.6524 28.7995 12.6856 28.8276 12.7173 28.8574C11.5964 28.5718 10.518 28.14 9.50977 27.5731V27.5718Z" fill="#CEB052"/>
<path fill-rule="evenodd" clip-rule="evenodd" d="M21.5729 23.0454C21.5729 23.0454 21.9262 22.5743 22.0487 22.3409C22.171 22.1003 21.6613 19.0539 21.6613 19.0539L22.6853 15.699L22.6579 14.607C22.6579 14.607 22.7078 13.5989 22.8256 13.1616C22.9662 13.4131 23.4034 13.7167 23.4985 13.8776C23.5433 13.5693 23.6955 12.9193 23.673 12.2261C23.7567 12.3551 23.9583 13.6533 23.9583 13.6533L24.1599 14.5276L24.4228 15.4565L24.715 16.4374L24.8894 17.1148L24.989 17.2779L25.073 17.5632L25.1522 17.8715L25.381 18.5941L25.5154 19.1875L25.6219 20.2636C25.6451 20.346 25.6617 20.4301 25.6718 20.5151C25.6763 20.6329 25.6559 20.7009 25.6559 20.7213C25.6559 20.7418 25.6945 20.9795 25.6786 21.1586C25.6559 21.3378 25.6559 21.478 25.5154 21.6066C25.3749 21.7352 25.2866 22.5036 25.2866 22.5036L25.0352 22.3361C25.0352 22.3361 25.085 22.1072 24.9672 21.8988C24.8494 21.6905 24.6206 21.6474 24.4914 21.6814C24.3624 21.7086 24.1042 21.7492 24.0203 21.8218C23.941 21.8942 23.7463 22.1185 23.5672 22.2205C23.3432 22.3549 22.9783 22.3655 22.7835 22.4108C22.5864 22.4556 22.369 22.59 22.14 22.746C21.9606 22.8622 21.771 22.9622 21.5738 23.0447L21.5729 23.0454Z" fill="#CCA847"/>
<path fill-rule="evenodd" clip-rule="evenodd" d="M21.5729 27.9952C21.5729 27.9952 21.5878 28.0049 21.6166 28.0207C23.2261 27.2667 24.6681 26.1978 25.8577 24.8773C25.8447 24.4188 25.8278 23.9489 25.8093 23.7747C25.7709 23.4054 25.7981 23.0294 25.7868 22.812C25.7754 22.5946 25.6531 21.7087 25.5965 21.4799C25.5353 21.2512 25.4173 21.1378 25.3994 21.1378C25.3836 21.1424 25.2883 21.5683 25.2883 21.6754C25.2883 21.7825 25.2656 22.0402 25.2656 22.1059C25.2498 22.1013 25.243 22.0611 25.243 22.0447C25.2203 22.1013 25.1932 22.2011 25.1818 22.2124C25.1705 22.2238 25.1976 22.1173 25.1818 22.0946C25.166 22.0719 25.137 22.0832 25.1433 22.0266C25.146 21.9931 25.1513 21.9598 25.1591 21.927C25.1591 21.927 25.0912 22.0266 25.0414 22.2804C24.9916 22.5318 24.9916 22.5387 24.9735 22.5613C24.9577 22.5886 24.867 22.6791 24.8624 22.7131C24.8579 22.7742 24.9463 22.8354 24.953 22.8693C24.9575 22.9261 24.8737 23.1888 24.8466 23.3173C24.8194 23.4459 24.8307 23.6978 24.8018 23.827C24.7791 23.9448 24.757 24.0128 24.6795 24.0625C24.7361 24.0739 24.7904 24.0897 24.7904 24.0897C24.7904 24.0897 24.8697 24.4249 24.6681 24.7105C24.5957 24.8101 24.5776 24.8555 24.5006 24.9461C24.3487 25.1137 24.2309 25.3045 24.2195 25.4286C24.2117 25.392 24.2064 25.3549 24.2037 25.3175C24.2037 25.3175 23.9682 25.5917 23.8684 25.748C23.7394 25.9496 23.5604 25.9383 23.51 25.9882C23.4597 26.038 23.4488 26.1285 23.4652 26.2011C23.4204 26.2123 23.3362 26.2283 23.2795 26.4027C23.2523 26.4932 23.1843 26.5819 23.0779 26.6428C22.9714 26.7038 22.8422 26.7221 22.7765 26.738C22.8331 26.7538 22.8558 26.7538 22.883 26.7719C22.8491 26.8285 22.6927 26.9169 22.5183 27.0302C22.3439 27.1367 22.26 27.2929 22.217 27.3949C22.1722 27.49 22.106 27.5512 21.9995 27.5626C22.0443 27.5898 22.1106 27.6531 22.1445 27.6735C22.0946 27.6849 22.0101 27.6849 21.8591 27.8141C21.7006 27.9455 21.6462 27.984 21.5736 27.9954L21.5729 27.9952Z" fill="#C39D3C"/>
<path fill-rule="evenodd" clip-rule="evenodd" d="M18.4207 29.0451C18.5074 28.9843 18.6014 28.9345 18.7004 28.8968C19.0537 28.7564 19.4275 28.7292 19.5747 28.684C19.7152 28.6392 19.8262 28.5774 20.0006 28.5435C19.996 28.5832 19.9921 28.6205 19.9879 28.6558C19.4737 28.8174 18.95 28.9474 18.4199 29.0451H18.4207Z" fill="#D2BA6B"/>
<path fill-rule="evenodd" clip-rule="evenodd" d="M24.9376 19.7516C24.9376 19.7516 24.8652 20.1434 24.736 20.3904C24.6068 20.6374 24.4672 20.9794 24.4672 20.9794C24.468 20.9023 24.4772 20.8256 24.4944 20.7505C24.3313 20.8456 23.9348 21.0745 23.8224 21.1764C23.7159 21.2715 23.5369 21.4392 23.4916 21.5185C23.5981 21.2059 23.709 20.925 23.7273 20.7959C23.5642 20.9137 22.8029 21.5412 22.4066 21.9557L21.1719 22.9548C21.0294 23.0316 20.8827 23.1003 20.7324 23.1605C20.5196 23.251 20.2681 23.3281 20.0823 23.4007C20.1322 23.267 20.2114 23.149 20.3225 23.0359C20.4403 22.9249 20.7936 22.542 20.848 22.3639C20.8978 22.1781 20.9092 22.0671 20.8435 21.9108C20.7823 21.9266 20.6419 21.9335 20.5468 21.9607C20.4516 21.9878 20.3496 22.0897 20.3496 22.0897C20.3496 22.0897 20.4221 21.6751 20.5784 21.2833C20.4606 21.2878 20.259 21.3217 20.259 21.3217C20.259 21.3217 20.5399 20.8505 21.0206 20.5221C20.8734 20.5535 20.7293 20.5981 20.5902 20.6556C20.3093 20.7735 20.0012 20.9479 19.7725 21.043C19.9015 20.8638 20.8076 19.5706 21.3469 18.3653C21.8845 17.1624 22.0853 16.8543 22.2032 16.2088C22.2642 15.8894 22.248 15.4173 22.2642 14.9946C22.2801 14.5754 22.3322 14.1994 22.2983 13.9479C22.4387 14.1223 22.9643 14.6139 22.9824 15.7127C22.9982 16.8113 22.4796 18.2953 21.929 19.0948C22.0634 19.1333 22.4116 19.1787 22.7694 18.5572C23.1272 17.9357 23.1229 17.7621 23.2521 17.5038C23.2679 17.633 23.2633 17.6782 23.2633 17.6782C23.2633 17.6782 23.7845 17.0462 24.0313 16.251C24.0812 16.5932 24.2284 16.8945 23.9973 17.522C23.7912 18.0883 23.5216 18.2266 23.5216 18.2266C23.5216 18.2266 23.6553 18.2039 23.8522 18.0861C23.8863 18.1698 23.8796 18.2653 23.9362 18.299C23.9928 18.3327 24.0698 18.3896 24.0812 18.444C24.1423 18.3534 24.2374 18.2378 24.2669 18.1518C24.2442 18.331 24.2284 19.1145 24.3117 19.5132C24.4863 19.4974 24.6652 19.4861 24.7875 19.1711C24.7037 19.4793 24.7037 19.665 24.7603 19.9278C24.8532 19.8645 24.937 19.7511 24.937 19.7511L24.9376 19.7516Z" fill="#C0993A"/>
<path fill-rule="evenodd" clip-rule="evenodd" d="M19.0514 7.26485C19.0514 7.26485 18.877 7.33728 18.5803 7.33728C18.3221 7.33728 18.3945 7.23767 17.9913 7.23767C17.3707 7.23767 15.2026 7.59607 14.822 7.59099C14.575 7.58651 15.6556 7.69747 15.6556 7.69747L18.4172 7.736L18.9721 7.6912L19.1783 7.27157L19.0514 7.26485Z" fill="#A88F33"/>
<path fill-rule="evenodd" clip-rule="evenodd" d="M11.8907 12.6632C11.8907 12.6632 11.5372 12.9327 11.3877 13.139C11.2383 13.3452 11.159 13.481 10.989 13.6487C11.0289 13.6502 11.0688 13.6448 11.1068 13.6328C11.1068 13.6328 11.1068 13.6776 11.0797 13.6894C11.1031 13.6868 11.1269 13.6895 11.1492 13.6972C11.1716 13.705 11.1919 13.7176 11.2087 13.7342C11.1588 13.7614 11.0229 13.8974 11.1294 14.0583C11.2087 14.1806 11.3764 14.1918 11.3764 14.1918C11.3764 14.1918 11.3379 14.3029 11.4987 14.2915C11.8453 14.2757 12.2327 14.1238 12.4116 14.1624C12.5908 14.2072 12.6926 14.2236 12.8194 14.4434C12.9538 14.6608 13.0709 14.6949 13.0709 14.6949C13.0709 14.6949 13.1502 14.4931 13.1321 14.1919C13.1971 14.0296 13.2332 13.8571 13.2386 13.6823L13.1207 12.8146L12.6066 12.1644L11.9406 12.5337L11.8907 12.6628V12.6632Z" fill="#E3C571"/>
<path fill-rule="evenodd" clip-rule="evenodd" d="M12.5226 12.5339C12.5226 12.5339 12.5725 12.6517 12.7809 12.6629C12.7582 12.7128 12.7582 12.7197 12.7651 12.7581C12.7696 12.7966 12.7763 12.8532 12.7763 12.8532C12.7993 12.8421 12.82 12.8269 12.8375 12.8084C12.8489 12.8583 12.8262 12.9374 12.8375 12.9942C12.8445 13.0287 12.8559 13.0622 12.8714 13.0938C12.8747 13.086 12.8785 13.0785 12.8828 13.0712C12.8873 13.0599 12.9276 13.1935 13.0391 13.2952C13.039 13.2796 13.0429 13.2642 13.0503 13.2504C13.052 13.2788 13.0614 13.3062 13.0775 13.3297C13.0692 13.3257 13.0615 13.3204 13.055 13.3139C13.055 13.3139 13.0662 13.6723 13.1274 13.8576C13.1376 13.8456 13.1467 13.8327 13.1546 13.8191C13.1546 13.8079 13.1501 13.9188 13.1387 13.9983C13.1229 14.0776 13.1343 14.1885 13.1343 14.1885C13.1751 14.1564 13.22 14.1297 13.2678 14.1092C13.3357 14.0819 13.447 13.9981 13.5148 13.8124C13.5541 13.7072 13.5844 13.5988 13.6054 13.4885C13.6273 13.5306 13.6424 13.576 13.6502 13.6229C13.6548 13.6795 13.7613 13.65 13.7613 13.65L13.784 13.403L13.9184 12.8435L14.0407 12.4969L14.6297 11.5795L15.6938 10.76L16.6227 10.9729L17.4064 9.9082L16.0563 9.09717L14.7786 9.23082L13.619 10.8369L12.6903 12.2936L12.5226 12.5338V12.5339Z" fill="#D8B65B"/>
<path fill-rule="evenodd" clip-rule="evenodd" d="M19.2146 10.2097C19.2146 10.2097 19.1353 10.2256 18.9065 10.3441C18.6778 10.4627 18.5192 10.5003 18.4308 10.6748C18.3424 10.8492 18.3356 10.9875 18.3356 10.9875C18.3356 10.9875 18.492 10.9195 18.5826 10.8968C18.6778 10.8743 18.7842 10.881 18.7729 10.9195C18.762 10.9459 18.7469 10.9704 18.7281 10.992C18.7281 10.992 18.9073 10.9875 18.9025 11.0759C18.8977 11.1643 18.8686 11.2616 18.8347 11.3047C18.8007 11.3495 18.6603 11.4158 18.6445 11.4679C18.6059 11.5744 18.6603 11.5788 18.6398 11.6648C18.624 11.7488 18.5493 11.9118 18.3046 12.1972C18.0531 12.4827 17.9462 12.6843 17.9462 12.6843C17.9462 12.6843 17.8239 12.4556 17.7604 12.2584C17.7156 12.281 17.475 12.4146 17.475 12.4146L16.9177 10.4733L16.9289 10.3441C16.9289 10.3441 16.9788 10.2831 16.9901 10.1697C16.9064 10.1425 16.895 10.1198 16.7839 10.0135C16.6728 9.90719 16.5823 9.77787 16.3967 9.68947C16.3695 9.63959 16.3355 9.57179 16.1996 9.54446C16.0637 9.51713 15.9821 9.49474 15.9821 9.49474C15.9821 9.49474 16.0546 9.46741 16.0886 9.41081C16.0047 9.42216 15.9369 9.44934 15.7534 9.44486C15.5676 9.44023 15.5471 9.43351 15.4453 9.44934C15.3434 9.46517 15.2213 9.51056 15.1757 9.35421C15.1259 9.31568 15.0194 9.34973 14.9287 9.48324C14.8381 9.61674 14.8064 9.72336 14.632 9.77548C14.6198 9.85237 14.5928 9.92618 14.5527 9.99291C14.5028 10.0768 14.4235 10.1606 14.3171 10.2852C14.1494 10.4823 14.1765 10.8062 13.9092 11.0532C13.6397 11.3 13.954 10.3689 13.954 10.3689L14.3844 9.33853L15.61 8.14013L17.513 8.01111L17.6987 8.99671L18.6276 9.31613L19.2143 10.2109L19.2146 10.2097Z" fill="#D3AE4D"/>
<path fill-rule="evenodd" clip-rule="evenodd" d="M19.516 10.4271L18.7163 9.27413L18.1568 8.8436C18.1568 8.8436 17.7581 8.10977 17.7309 8.08708C17.7082 8.07125 17.3322 8.03048 17.092 8.01465L17.1368 8.1256C17.1892 8.14263 17.2358 8.17404 17.2712 8.21625C17.3777 8.33855 17.4456 8.56957 17.2033 8.81657C17.2984 8.85047 17.3377 8.86137 17.4207 8.85047C17.3369 8.95022 17.1467 9.16317 17.1353 9.34894C17.124 9.50066 17.2191 9.54591 17.2191 9.54591C17.2191 9.54591 17.0741 9.71361 17.0674 9.99391C17.1359 9.91669 17.2108 9.84545 17.2914 9.78096C17.4591 9.64656 17.6901 9.49544 17.8465 9.40031C17.8443 9.44023 17.8497 9.4802 17.8623 9.51814C17.8623 9.51814 18.1544 9.27801 18.3999 9.38448C18.5108 9.43436 18.461 9.59071 18.461 9.59071C18.461 9.59071 18.6128 9.53412 18.7193 9.64059C18.8258 9.74706 18.9775 10.0211 19.0546 10.1277C19.0885 10.1776 19.1769 10.2727 19.2674 10.4198C19.391 10.626 19.4943 10.8438 19.5756 11.07C19.5801 10.9794 19.5983 10.8526 19.7548 10.8526L19.5169 10.4267L19.516 10.4271Z" fill="#CAA13E"/>
<path fill-rule="evenodd" clip-rule="evenodd" d="M7.5276 13.7031C7.5276 13.7031 7.471 13.5626 7.5276 13.2885C7.58419 13.0145 7.6726 12.8853 7.70202 12.4821C7.73144 12.0789 7.99426 11.576 7.99426 11.576L8.72137 11.2454L9.23567 11.3857L9.38739 12.0745L8.7372 12.4329C8.7372 12.4329 8.7033 12.5846 8.51977 12.7069C8.33624 12.8292 8.08252 12.9243 8.02144 13.049C7.98493 13.1254 7.95828 13.2061 7.94215 13.2891C7.94215 13.2891 7.75637 13.2506 7.64542 13.3729C7.5276 13.4976 7.53208 13.6086 7.5276 13.7037V13.7031Z" fill="#F4EFC8"/>
<path fill-rule="evenodd" clip-rule="evenodd" d="M8.99551 13.5195C8.99551 13.5195 8.93428 13.558 8.88904 13.6539C8.84424 13.5814 8.73716 13.1509 8.73268 12.7635C8.7282 12.3762 8.70506 12.2801 8.79466 12.1466C8.88426 12.0131 9.23564 11.8725 9.18576 11.632C9.13588 11.4033 8.92741 11.3081 8.67146 11.3738C8.49226 11.4186 8.3589 11.7997 8.17313 11.99C8.03261 12.135 7.86506 12.1123 7.81981 12.1916C7.75858 12.2981 7.81518 12.4045 7.79711 12.4725C7.79248 12.4952 7.73588 12.6175 7.63389 12.7647C7.42781 13.0615 7.07897 13.4806 7.03357 13.8567C7.0494 13.6437 7.0382 13.6392 7.0948 13.4036L7.06075 13.347L7.28475 12.613L7.42975 12.0082L7.7538 10.9954L8.32456 9.96026L8.87963 9.33948L9.45725 9.37801L9.5252 10.2456L9.85597 11.8746L10.5514 12.7308L9.43679 13.4809L8.99506 13.5195H8.99551Z" fill="#EBCC73"/>
<path fill-rule="evenodd" clip-rule="evenodd" d="M9.34212 13.8273C9.34212 13.8273 9.24699 13.85 9.21294 13.832C9.17889 13.8139 9.14514 13.7934 9.15634 13.7707C9.16754 13.748 9.22877 13.7097 9.22877 13.6914C9.23003 13.675 9.22482 13.6587 9.21425 13.646C9.20369 13.6333 9.18859 13.6252 9.17217 13.6235C9.12006 13.6168 9.10423 13.6507 9.10423 13.6507C9.10423 13.6507 9.05435 13.6123 9.01373 13.6059C9.03776 13.6029 9.06195 13.6014 9.08616 13.6013C9.02356 13.5729 8.95715 13.5538 8.88904 13.5447C8.94564 13.5108 9.05674 13.411 9.12917 13.411C9.20159 13.411 9.24699 13.3998 9.23564 13.3613C9.22429 13.3227 9.16769 13.2661 9.10662 13.2434C9.12917 13.2163 9.14514 13.1755 9.09079 13.0642C9.03404 12.9533 9.05674 12.8785 9.07496 12.8514C9.09079 12.8174 9.14738 12.7563 9.17456 12.7178C9.20174 12.6793 9.22444 12.6271 9.26969 12.6C9.29239 12.5841 9.36481 12.5552 9.43739 12.5275C9.51669 12.5004 9.58239 12.4663 9.62764 12.5004C9.67752 12.5343 9.65482 12.5797 9.65482 12.5797C9.65482 12.5797 9.81117 12.5229 9.95154 12.5955C10.0921 12.6633 10.4342 12.7064 10.4342 12.7064L10.5568 12.9534L9.74576 13.6489L9.41051 13.8166L9.34256 13.8278L9.34212 13.8273Z" fill="#E5C66B"/>
<path fill-rule="evenodd" clip-rule="evenodd" d="M10.4679 12.6904C10.4679 12.6904 10.2164 12.8581 10.1598 12.9192C10.1937 12.9238 10.2503 12.9465 10.2276 12.9804C10.2004 13.0143 10.0373 13.1321 9.94669 13.2432C9.85156 13.3542 9.76092 13.4947 9.72926 13.5627C9.69536 13.6238 9.43701 13.8028 9.34875 13.8254C9.53453 13.8254 9.90831 13.5966 10.0487 13.5966C10.0442 13.6645 10.0872 13.7416 10.1665 13.7483C10.2458 13.755 10.4746 13.7982 10.7827 13.6079C11.0907 13.4222 10.9889 13.2839 11.1179 13.1934C11.3649 13.0302 11.4645 12.8851 11.6004 12.7947C11.7363 12.7042 11.8066 12.6835 11.8066 12.6835C11.8066 12.6835 11.8111 12.6156 11.8514 12.6225C11.8625 12.6237 11.8729 12.628 11.8817 12.6348C11.8905 12.6416 11.8973 12.6506 11.9013 12.661C11.9013 12.661 12.137 12.4933 12.4389 12.448C12.4319 12.4449 12.4262 12.4393 12.4231 12.4322C12.4231 12.4322 12.4456 12.4209 12.4503 12.4095C12.4503 12.4095 12.4661 12.3868 12.4774 12.3982C12.4888 12.4095 12.5046 12.4933 12.5273 12.5273C12.5772 12.5046 12.6723 12.2917 12.6723 12.2917L12.9012 11.637V11.0389L12.722 11.073L11.378 11.6437L10.5624 12.4888L10.4673 12.6904H10.4679Z" fill="#E6BD62"/>
<path fill-rule="evenodd" clip-rule="evenodd" d="M14.3373 9.75671C14.41 9.73907 14.4797 9.71079 14.5441 9.67279C14.5169 9.74536 14.5169 9.82466 14.3991 9.99684C14.2813 10.169 14.2768 10.194 14.1817 10.3729C14.0865 10.5586 14.0752 10.8259 13.9845 10.9436C14.0252 10.9239 14.0687 10.9109 14.1136 10.9052C14.1136 10.9052 14.0231 10.9845 13.9845 11.0683C13.946 11.1521 13.8781 11.3265 13.7105 11.4331C13.543 11.5398 13.3299 11.6076 13.1011 11.859C12.8721 12.1059 12.6367 12.4186 12.5187 12.531C12.5799 12.4246 12.6637 12.2116 12.6864 12.0712C12.7091 11.9309 12.6817 11.763 12.7203 11.5774C12.7588 11.3918 12.7588 11.258 12.9443 10.9339C13.1297 10.6099 13.4472 9.48403 13.4472 9.48403L14.1313 9.2666L14.3376 9.75597L14.3373 9.75671Z" fill="#B6933F"/>
<path fill-rule="evenodd" clip-rule="evenodd" d="M13.8434 9.34207C13.8434 9.34207 13.6373 9.6388 13.5807 9.90162C13.5241 10.1645 13.5761 10.1418 13.5422 10.2709C13.5219 10.3497 13.5219 10.4323 13.5422 10.5111C13.6136 10.3961 13.7113 10.2997 13.8273 10.23C14.0221 10.1123 14.1807 10.0284 14.2753 9.9288C14.3704 9.82233 14.4497 9.64791 14.6558 9.51425C14.572 9.5029 14.4542 9.46438 14.4318 9.46945C14.5157 9.37433 14.767 9.22933 15.0207 9.0549C15.2722 8.8757 15.2564 8.80343 15.6642 8.62453C15.5306 8.64722 15.4671 8.61318 15.356 8.62453C15.4008 8.5294 15.5576 8.484 15.7144 8.3278C15.8712 8.1716 15.6148 7.94043 15.6148 7.94043L14.4201 8.66305L13.8425 9.34267L13.8434 9.34207Z" fill="#C49937"/>
<path fill-rule="evenodd" clip-rule="evenodd" d="M10.6016 8.80296L10.6287 8.58553L10.9709 8.03732L11.3288 7.07457V5.75835L11.3016 4.9972L11.3582 4.49872L11.4012 4.34028L11.4466 4.27905L11.7387 4.43078L12.1421 4.97898L12.1806 6.037L11.7886 7.70655L10.6695 8.92765L10.6016 8.80296Z" fill="#DFC068"/>
<path fill-rule="evenodd" clip-rule="evenodd" d="M11.4918 4.21765C11.4918 4.21765 11.3126 4.22228 11.2744 4.9676C11.2362 5.71293 11.2177 6.10478 11.1905 6.47408C11.1633 6.84338 11.1 7.06753 11.0682 7.28511C11.0364 7.50269 11.0183 7.79926 10.9165 7.98055C10.8717 8.06433 10.7759 8.32715 10.5516 8.52427C10.3002 8.7417 9.92444 8.89358 9.86754 8.90493C9.76779 8.92747 9.26259 8.97735 9.05651 9.0907C8.98409 9.12922 8.85939 9.17447 8.72126 9.30365C8.44708 9.55049 8.08241 9.99222 7.81958 10.5246C7.41638 11.3198 7.01318 13.5647 7.01318 13.5647L7.10383 13.413C7.10383 13.413 7.11518 13.2114 7.31678 12.8579C7.5139 12.5046 7.4573 12.1081 7.73133 11.4307C7.8378 11.1726 7.97146 10.8373 8.13453 10.5518C8.39287 10.0873 8.70543 9.68863 9.02037 9.4712C9.53453 9.11787 10.1009 9.04082 10.1009 9.04082L10.7104 8.63762C10.7104 8.63762 10.8169 8.43154 10.9574 8.19589C11.1543 7.86527 11.4054 7.49597 11.4602 6.95911C11.5441 6.16391 11.3424 5.64289 11.3537 5.17174C11.3651 4.70059 11.3695 4.35399 11.4648 4.27007C11.5601 4.18614 11.492 4.21795 11.492 4.21795L11.4918 4.21765Z" fill="#A88F33"/>
<path fill-rule="evenodd" clip-rule="evenodd" d="M11.4919 7.77441C11.4919 7.77441 11.7607 7.11286 11.8837 6.52613C11.9064 6.4083 11.9517 6.29063 11.963 6.1955C12.0196 5.64043 12.0354 5.41165 11.963 5.10806C11.9064 4.88406 11.689 4.68216 11.5756 4.52566C11.4647 4.36244 11.4126 4.30166 11.4353 4.26731C11.458 4.23297 11.5462 4.17682 11.6322 4.18354C11.7237 4.1862 11.8136 4.20743 11.8966 4.24593C11.9796 4.28444 12.0538 4.33942 12.1149 4.40754C12.2893 4.60914 12.4274 5.29338 12.4274 5.29338L12.5727 6.19625L12.942 7.33342L11.4922 7.7753L11.4919 7.77441Z" fill="#C99E3D"/>
<path fill-rule="evenodd" clip-rule="evenodd" d="M14.0177 7.08579C14.0177 7.08579 13.9678 7.10834 13.8773 7.08579C13.8812 7.12278 13.8748 7.16011 13.8588 7.19367C13.8428 7.22724 13.8178 7.25574 13.7867 7.27604C13.6916 7.23752 12.8011 7.31457 12.8011 7.31457C12.8011 7.31457 12.3865 7.242 12.2574 6.69379C12.1669 6.32897 12.3253 5.82617 12.2732 5.49539C12.1939 5.00827 12.0829 4.91299 12.0716 4.76142C12.0602 4.60985 12.0489 4.57117 12.0489 4.47604C11.999 4.4647 11.9696 4.44887 11.9199 4.44887C11.9085 4.40407 11.9311 4.36494 11.8813 4.28564C11.9085 4.29699 12.0943 4.31969 12.3117 4.52577C12.4909 4.69347 12.4909 4.75455 12.518 4.7886C12.5519 4.8225 12.826 5.0574 12.9439 5.29155C13.0617 5.52571 13.2905 6.27238 13.3426 6.39468C13.3584 6.44456 13.3925 6.49443 13.477 6.60763C13.6084 6.77085 13.8009 7.04069 14.0183 7.08549L14.0177 7.08579Z" fill="#B58634"/>
<path fill-rule="evenodd" clip-rule="evenodd" d="M12.5499 4.79993C12.6872 5.02161 12.8105 5.25163 12.9191 5.48865C13.0527 5.78986 13.132 6.03685 13.2997 6.23845C13.2091 5.97578 13.0483 5.45923 12.9531 5.2757C12.8467 5.08157 12.6292 4.8725 12.5499 4.80008V4.79993Z" fill="#A88F33"/>
<path fill-rule="evenodd" clip-rule="evenodd" d="M11.0094 8.52444C11.0094 8.52444 10.7806 8.58104 10.3547 8.80534C10.2142 8.87776 10.0807 8.93884 9.95155 8.99559C9.616 9.14731 9.2561 9.28753 8.97058 9.36489C8.99328 9.39207 9.00448 9.40327 9.00448 9.40327C9.00448 9.40327 9.00448 9.51437 9.0657 9.57769C9.03181 9.61174 8.57858 9.91981 8.71238 10.9505C8.80288 10.9166 8.90935 10.8712 8.92518 10.8712C8.95251 10.8758 8.95923 10.9505 8.99313 10.9505C9.02703 10.9505 9.13813 10.9057 9.25595 10.7534C9.25147 10.8146 9.18353 11.4308 9.5482 11.8453C9.61615 11.766 9.78833 11.5032 9.78833 11.5032L9.79281 11.4194C9.79281 11.4194 9.80864 11.1272 9.90391 10.8599C9.99919 10.5926 10.1848 10.3954 10.1848 10.3954L11.1541 9.01127L11.0091 8.52429L11.0094 8.52444Z" fill="#E6C367"/>
<path fill-rule="evenodd" clip-rule="evenodd" d="M10.1033 10.5569C10.0589 10.5882 10.01 10.6126 9.95832 10.6293C9.94249 10.5727 9.91979 10.3778 10.0534 10.1876C10.2098 9.95864 10.5518 9.66191 10.6469 9.42596C10.7081 9.27409 10.6809 8.89359 11.2247 8.40646C11.7684 7.91934 11.9812 7.75179 11.9812 7.75179L12.8602 7.31006L13.9407 7.73596L13.4039 9.84006L12.9871 10.8257L11.3295 10.5131L10.1032 10.5569H10.1033Z" fill="#DCBA5A"/>
<path fill-rule="evenodd" clip-rule="evenodd" d="M10.736 9.98542L10.9422 9.72722V9.54369C10.9422 9.54369 11.171 9.48246 11.4178 9.23099C11.6647 8.97951 12.0068 8.49701 12.3081 8.52643C12.6095 8.56048 12.6389 9.18111 12.6503 9.35568C12.6616 9.53025 12.7001 9.92643 12.7612 10.1395C12.8292 10.3525 12.0272 11.1589 12.0272 11.1589L11.4826 11.5734L10.736 9.98542Z" fill="#E9CE77"/>
<path fill-rule="evenodd" clip-rule="evenodd" d="M11.3741 12.1352C11.3741 12.1352 11.5418 11.8724 11.4189 11.8158C11.4914 11.6527 11.625 11.4805 11.625 11.4805C11.625 11.4805 11.7202 11.245 12.0282 10.955C12.3363 10.665 12.5267 10.4724 12.5766 10.2776C12.6073 10.1507 12.6241 10.0208 12.6265 9.89026C12.6598 9.91747 12.6954 9.9417 12.7329 9.96269C12.7828 9.98538 13.0183 10.1801 12.9844 10.5721C12.9505 10.9641 12.8052 11.1272 12.8052 11.1272C12.8052 11.1272 12.6648 11.2676 12.5652 11.3401C12.4586 11.4126 12.4202 11.4963 12.2412 11.5032C12.2596 11.4886 12.2803 11.4771 12.3024 11.4692C12.3024 11.4692 12.1166 11.4466 12.0169 11.5371C11.9171 11.6276 11.7051 11.9064 11.5986 11.9903C11.4921 12.0583 11.3746 12.1353 11.3746 12.1353L11.3741 12.1352Z" fill="#CDAE50"/>
<path fill-rule="evenodd" clip-rule="evenodd" d="M18.9064 7.72896C18.6388 7.63141 18.3575 7.57639 18.0729 7.56588C17.5971 7.55006 16.9016 7.57723 16.2198 7.58171C15.4858 7.58619 14.8198 7.33024 13.8956 7.28499C13.7438 7.19434 13.358 6.79786 12.1534 7.63831C12.2259 7.63383 13.0279 7.45254 13.3064 7.80153C13.5873 8.14814 13.508 8.73711 13.4697 8.87748C13.3971 9.19018 13.1614 9.6455 13.0665 9.96492C12.9715 10.2843 12.9939 10.4522 12.9259 10.6762C12.858 10.9002 12.7085 11.0115 12.7968 11.2696C12.9146 11.1972 12.976 11.1972 13.1728 10.7555C13.3696 10.3138 13.3291 9.99882 13.6554 9.62504C13.9749 9.24902 14.5066 8.73472 14.7088 8.60554C14.911 8.47637 16.5165 7.64279 18.1976 8.43799C18.603 8.39498 18.9066 7.72881 18.9066 7.72881L18.9064 7.72896Z" fill="#D2A83E"/>
<path fill-rule="evenodd" clip-rule="evenodd" d="M12.8306 7.42083C12.8289 7.4038 12.8252 7.38705 12.8194 7.37095C12.8037 7.33782 12.783 7.30726 12.7582 7.2803C12.7582 7.2803 12.3595 7.20788 12.1579 7.23043C11.8044 7.26895 11.485 7.7062 11.3355 7.9305C11.186 8.1548 11.0002 8.50125 10.7986 8.6803C10.8008 8.66286 10.7968 8.6452 10.7873 8.63043C10.7873 8.63043 10.7986 8.64625 10.7761 8.66895C10.7535 8.69165 10.7534 8.70285 10.7647 8.71375L10.7988 8.74765C10.81 8.74765 11.1227 8.60713 11.5486 8.21005C12.0017 7.7955 12.3483 7.58285 12.5296 7.50998C12.6262 7.46889 12.7273 7.43898 12.8308 7.42083H12.8306Z" fill="#C29637"/>
<path fill-rule="evenodd" clip-rule="evenodd" d="M20.5648 5.71741C20.5648 5.71741 20.4922 5.8079 20.4015 5.90766C20.1999 6.12061 19.9371 6.36059 19.7128 6.60758C19.5 6.84323 19.2599 7.02676 18.9902 7.33484C18.7205 7.64291 18.4078 7.98488 18.3286 8.08464C18.2562 8.18439 18.1996 8.34747 18.1996 8.43124C18.1611 8.40406 18.1158 8.37464 18.1158 8.37464C18.1349 8.41021 18.1577 8.44365 18.1838 8.4744C18.2404 8.5537 18.3286 8.6536 18.374 8.71453C18.4297 8.79209 18.4697 8.87981 18.4917 8.97272C18.5189 8.9772 18.6933 9.01125 18.9109 8.6533C19.1285 8.29535 19.4137 7.9035 19.4137 7.9035L19.8668 7.2306L20.1523 6.65985L20.5107 6.021L20.5652 5.71741H20.5648Z" fill="#AC8132"/>
<path fill-rule="evenodd" clip-rule="evenodd" d="M21.0292 5.26001C21.0292 5.26001 20.755 5.48401 20.6486 5.61841C20.5421 5.75281 20.2902 6.10554 20.2902 6.10554L20.3808 6.09419L20.8408 5.68651L21.02 5.36708L21.0291 5.26061L21.0292 5.26001Z" fill="#A88F33"/>
<path fill-rule="evenodd" clip-rule="evenodd" d="M20.9454 23.2628C20.9454 23.2628 20.9409 23.077 21.0452 22.9661C21.1516 22.855 21.4212 22.6919 21.684 22.0802C21.9468 21.4685 21.9761 21.3304 21.9761 21.3304C21.9761 21.3304 21.505 21.7336 21.2145 21.8287C21.2825 21.6882 21.321 21.5886 21.355 21.516C21.3165 21.4821 21.1534 21.4436 21.1376 21.4255C21.2281 21.3349 21.278 21.1128 21.4615 20.9656C21.6972 20.7864 22.1275 20.4785 22.462 20.204C22.7965 19.9295 23.4542 19.2911 23.5381 19.1053C23.588 19.1778 23.5992 19.223 23.5992 19.223C23.5992 19.223 23.2686 19.6536 23.0964 19.9276C22.9445 20.1632 22.9559 20.2969 22.9559 20.2969L23.2686 20.1625C23.2686 20.1625 23.3591 20.4977 22.9492 21.0076C23.1284 20.9396 23.2006 20.9804 23.3025 20.9236C23.1348 21.0303 22.9038 21.1753 22.6863 21.5738C22.4734 21.9725 22.1834 22.437 21.6942 22.7268C21.2184 23.0327 20.9442 23.2614 20.9442 23.2614L20.9454 23.2628Z" fill="#A67A2E"/>
<path fill-rule="evenodd" clip-rule="evenodd" d="M19.7175 7.96489C19.7175 7.96489 19.5318 8.35211 19.5046 8.65347C19.5001 8.72604 19.4819 8.78264 19.4819 8.86642C19.4774 9.13596 19.4977 9.43732 19.4371 9.57769C19.4144 9.52109 19.403 9.48257 19.3803 9.46002C19.3464 9.55514 19.2852 9.85187 19.2353 9.96282C19.2128 9.89039 19.1629 9.63892 19.1675 9.34219C19.1722 9.04547 19.1787 8.98872 19.1787 8.92764C19.1675 9.01814 19.1063 9.14059 19.0836 9.21302C19.0497 9.15194 19.0112 9.07265 18.9658 9.00694C18.9386 9.05174 18.9047 9.11789 18.8753 9.15194C18.8707 9.12476 18.8595 9.05219 18.8526 8.95034C18.8481 8.83252 18.8413 8.68079 18.8481 8.64899C18.8593 8.58791 18.9546 8.34778 19.1562 8.12796C19.3963 7.86514 19.6433 7.36009 19.7157 7.20374C19.7882 7.04739 20.0963 6.39734 20.0963 6.39734H20.3319L19.9898 7.17656C19.9898 7.17656 19.7837 7.60246 19.6772 7.75896C19.5707 7.91546 19.3464 8.36391 19.2467 8.53833C19.3191 8.44321 19.3803 8.39333 19.4529 8.30268C19.5231 8.23922 19.7178 7.96519 19.7178 7.96519L19.7175 7.96489Z" fill="#8C6228"/>
<path fill-rule="evenodd" clip-rule="evenodd" d="M21.0336 5.23022C20.9951 5.3487 20.9343 5.4587 20.8544 5.55428C20.7139 5.72198 20.4125 5.94613 20.2654 6.12503C20.131 6.29945 19.8622 6.77523 19.9844 7.33926C20.0292 7.21695 20.1136 6.97459 20.3379 6.70041C20.5622 6.42623 20.8023 6.11144 20.9203 5.86683C21.0379 5.61984 21.0538 5.4251 21.0538 5.4251L21.0986 5.36851L21.0714 5.23933L21.0329 5.23022H21.0336Z" fill="#CBA94C"/>
<path fill-rule="evenodd" clip-rule="evenodd" d="M25.6211 20.2566C25.6211 20.2566 25.5305 20.0098 25.5033 19.7855C25.4761 19.5612 25.5481 19.5167 25.4648 19.26C25.4149 19.1036 25.3244 19.1256 25.3017 19.1036C25.279 19.0817 25.2632 18.8454 25.2676 18.7162C25.2721 18.5871 25.2632 18.4195 25.2405 18.3469C25.2066 18.3198 25.1839 18.2971 25.134 18.1295C25.0774 17.9618 25.0502 17.878 25.023 17.8283C24.9959 17.7786 24.9164 17.7332 24.9164 17.6833C24.9164 17.5836 25.0071 17.5316 25.0071 17.5041C25.0026 17.4475 24.9346 17.4929 24.9164 17.4769C24.8939 17.4498 24.9732 17.2867 24.9437 17.264C24.9324 17.2528 24.8531 17.3479 24.8326 17.3207C24.8099 17.2934 24.7828 17.0239 24.742 16.845C24.7036 16.6705 24.6627 16.5437 24.6582 16.4916C24.6537 16.4418 24.3455 15.5628 24.2708 15.3498C24.2107 15.1699 24.16 14.9869 24.1191 14.8016C24.0964 14.6951 24.0806 14.4776 24.0692 14.5003C24.0579 14.523 24.0648 14.6339 24.0465 14.6294C24.0307 14.6248 23.9741 14.2376 23.9561 14.1764C23.9402 14.1151 23.845 13.9076 23.8217 13.7573C23.799 13.6055 23.7492 13.209 23.7152 12.9394C23.6811 12.6699 23.6653 12.5589 23.6653 12.4914C23.6709 12.3263 23.6618 12.1611 23.6381 11.9976C23.5933 11.7121 23.5037 11.3655 23.4252 11.164C23.2735 10.7834 22.8701 9.80926 22.798 9.56689C22.798 9.50567 22.8773 9.53971 22.8773 9.53971C22.8773 9.53971 23.0742 10.0336 23.2192 10.4141C23.3598 10.7947 23.4934 11.13 23.5275 11.164C23.5546 11.1979 23.7676 11.5717 23.8627 12.1834C23.9578 12.795 23.9917 13.3591 24.0485 13.7351C24.0757 13.9143 24.0984 14.1044 24.155 14.2946C24.216 14.5009 24.3112 14.7138 24.4359 15.04C24.5423 15.3141 24.6216 15.5429 24.6646 15.74C24.7145 15.9915 24.7145 16.1818 24.7439 16.3065C24.7713 16.4129 24.8119 16.6257 24.9072 16.9337C25.0024 17.2416 25.1427 17.6382 25.2378 17.8851C25.4237 18.3789 25.5066 18.7912 25.5347 19.011C25.5594 19.2376 25.6434 20.0214 25.6207 20.2569L25.6211 20.2566Z" fill="#A88F33"/>
<path fill-rule="evenodd" clip-rule="evenodd" d="M21.0451 5.20319L21.0337 5.23036C21.0337 5.23036 21.0676 5.24171 21.0609 5.28711C21.0614 5.34922 21.0576 5.41129 21.0495 5.47288C21.0383 5.55218 21.0156 5.61326 21.0112 5.66313C21.0112 5.76961 21.027 5.89191 20.8768 6.19551C20.832 6.27928 20.8043 6.35171 20.7816 6.40159C20.725 6.52389 20.7137 6.54211 20.6638 6.59871C20.7431 6.55391 21.0286 6.37471 21.1735 6.40159C21.0739 6.45818 20.922 6.56929 20.8269 6.71429C20.8496 6.71877 20.9447 6.73699 21.0957 6.71429C21.3472 6.67576 21.6281 6.58512 21.8749 6.60319C22.1446 6.61902 22.0381 6.27928 22.0381 6.27928L21.7269 5.59519L21.138 5.18079L21.0451 5.20334V5.20319Z" fill="#BE9C44"/>
<path fill-rule="evenodd" clip-rule="evenodd" d="M22.5809 10.3276C22.5809 10.3276 22.3181 10.0648 22.2116 9.16281C22.1051 8.25666 22.1278 6.92281 22.1278 6.92281L21.9149 6.40179C21.9149 6.40179 21.8701 6.05518 21.7585 5.92616C21.647 5.79714 21.4279 5.57956 21.3281 5.47308C21.2284 5.36661 21.1152 5.22161 21.0472 5.19891C21.0811 5.14231 21.233 4.82289 21.8151 4.81841C22.3972 4.81393 22.5767 5.13783 22.6375 5.25565C22.6983 5.37348 22.9727 5.88285 23.0746 6.85352C23.1697 7.82299 23.1743 7.89557 23.1585 8.23082C23.1472 8.41659 23.0859 8.84697 22.9793 9.30677C22.882 9.69653 22.7755 10.1315 22.5806 10.3285L22.5809 10.3276Z" fill="#A17C34"/>
<path fill-rule="evenodd" clip-rule="evenodd" d="M21.7568 11.1001C21.8444 11.1064 21.9319 11.0866 22.0083 11.0433C22.0921 11.0388 22.3957 11.0774 22.6289 10.7806C22.6448 10.8484 22.6857 11.0321 22.5791 11.1952C22.6358 11.1384 22.7196 11.1159 22.7309 11.1001C22.7354 11.1838 22.8147 11.442 22.4794 12.0695C22.5699 11.9699 22.6764 11.9744 22.7715 11.9631C22.7762 12.0809 22.8395 12.4772 22.6719 12.6903C22.561 12.8353 22.3797 12.7899 22.3797 12.7899C22.3823 12.7583 22.3823 12.7264 22.3797 12.6948C22.3752 12.6336 22.3525 12.5725 22.3685 12.5317C22.2809 12.4917 22.2011 12.4364 22.1328 12.3685C21.9357 12.1827 21.6798 11.8657 21.6617 11.63C21.639 11.3672 21.8746 11.3106 21.8746 11.3106C21.8549 11.293 21.8381 11.2723 21.8248 11.2494C21.8134 11.211 21.8021 11.1498 21.7568 11.1001Z" fill="#8C6228"/>
<path fill-rule="evenodd" clip-rule="evenodd" d="M20.0096 8.25021C20.0096 8.25021 19.9982 8.23438 19.9371 8.30681C19.9485 8.23438 19.9598 8.16629 19.9643 8.10058C19.9932 8.03975 20.0306 7.98333 20.0754 7.93303C20.0414 8.00082 20.0187 8.06205 20.0187 8.06205C20.0187 8.06205 20.1026 7.9057 20.2249 7.81057C20.3087 7.74263 20.4151 7.71097 20.4604 7.6475C20.5103 7.57955 20.4989 7.56821 20.5103 7.55686C20.5103 7.55686 20.6214 7.48443 20.7913 7.27133C20.8139 7.24415 20.8479 7.21473 20.8706 7.18756C20.909 7.17173 20.9996 7.13096 21.1061 7.07645C21.2172 7.01537 21.3418 6.9316 21.4188 6.89725C21.5705 6.8293 21.7315 6.83617 21.8062 6.72955C21.8628 6.71372 21.9239 6.54378 21.9127 6.39893C21.9964 6.43282 22.4268 6.70013 22.5742 7.28462C22.6807 7.69917 22.4903 8.33802 22.411 8.64624C22.3317 8.95447 22.3205 9.1831 22.2094 9.32347C22.0689 9.50939 21.6159 9.77147 21.5048 9.90124C21.4097 10.0077 21.1243 10.2773 21.1355 10.472C21.1469 10.617 21.3258 10.696 21.3645 10.7235C21.4031 10.7509 21.4028 10.7847 21.4754 10.7683C21.548 10.7518 21.575 10.7184 21.6046 10.7184C21.6385 10.7229 21.6385 10.7297 21.6543 10.7297C21.6658 10.7294 21.6772 10.7278 21.6884 10.7251C21.6884 10.7251 21.677 10.9313 21.1945 10.9939C21.1605 10.9985 21.1266 11.0097 21.0834 11.0166C21.1402 10.9894 21.1741 10.9894 21.2353 10.9057C21.1673 10.8943 20.9725 10.883 20.9226 10.8671C20.9384 10.84 20.9905 10.7674 21.0335 10.7335C21.0721 10.6996 21.0291 10.6887 20.9952 10.7063C20.9368 10.746 20.8808 10.7891 20.8275 10.8353C20.7709 10.8852 20.721 10.9531 20.6303 11.0145C20.6032 10.9239 20.6076 10.7517 20.7143 10.6272C20.6869 10.6316 20.6348 10.7109 20.5851 10.6951C20.5761 10.6125 20.5815 10.5289 20.6009 10.4481C20.6281 10.3461 20.7753 10.1672 20.7753 10.1672L21.4866 8.89623L21.6383 7.93347L20.0096 8.24991V8.25021Z" fill="#92723A"/>
<path fill-rule="evenodd" clip-rule="evenodd" d="M19.9712 8.30455C19.9712 8.30455 19.9327 8.33173 20.0097 8.38384C19.9984 8.39967 19.9712 8.45627 19.9372 8.4948C19.8988 8.5396 19.8579 8.56737 19.842 8.6059C19.8081 8.6852 19.781 8.73956 19.781 8.7736C19.781 8.80765 19.7696 9.02508 19.6745 9.16545C19.6404 9.21533 19.6019 9.29911 19.5747 9.35571C19.5181 9.45531 19.4683 9.53491 19.4569 9.57971C19.4344 9.659 19.4185 9.87643 19.4185 9.87643C19.4185 9.87643 19.4684 9.8152 19.4865 9.79265C19.4591 9.84925 19.4297 9.91033 19.3867 9.95573C19.4139 9.93303 19.4932 9.87643 19.6268 9.75861C19.8126 9.6024 20.1026 9.33958 20.4561 9.13141C20.3495 9.16993 20.259 9.16993 20.1865 9.18128C20.2431 9.12469 20.7528 8.52661 21.0201 8.47001C21.0364 8.44943 21.0444 8.42359 21.0428 8.39743L20.8139 8.37488L20.3495 8.47449L20.2817 8.11609L19.9712 8.3041V8.30455Z" fill="#B18E3E"/>
<path fill-rule="evenodd" clip-rule="evenodd" d="M20.7098 10.3434C20.7098 10.3434 20.6486 10.4045 20.592 10.5564C20.5484 10.5109 20.511 10.4598 20.4809 10.4045C20.3971 10.2641 20.2681 10.0851 19.9667 10.1871C19.9622 10.092 19.9554 10.0421 19.9667 9.97413C20.0166 9.96293 20.1683 9.84062 20.32 9.66157C20.4267 9.53927 20.5263 9.39875 20.5942 9.21984C20.639 9.1858 20.7165 9.1292 20.8182 9.06349C20.9632 8.96389 21.1376 8.82784 21.1648 8.67612C21.0969 8.7033 20.9519 8.77125 20.7343 8.76005C20.8182 8.72152 20.9472 8.68075 20.9314 8.51305C20.9654 8.49035 20.9926 8.47452 20.9926 8.47452C20.9671 8.466 20.9402 8.46216 20.9133 8.46317C20.9087 8.44734 20.902 8.42479 20.8635 8.43599C20.8249 8.44719 20.8187 8.44734 20.8136 8.46317C20.7977 8.4678 20.7456 8.46317 20.7071 8.4905C20.6686 8.51783 20.5621 8.60818 20.5213 8.624C20.5372 8.59683 20.5597 8.55621 20.5597 8.55621C20.5597 8.55621 20.4488 8.56741 20.3695 8.60101C20.2245 8.65088 20.0569 8.74153 19.887 8.82979C19.9028 8.80261 19.9097 8.78499 19.9209 8.77991C19.9321 8.77483 19.9594 8.76871 19.9594 8.76408C19.9594 8.75945 19.9482 8.71928 19.9549 8.703C20.0057 8.59537 20.0657 8.4923 20.1341 8.39493C20.2134 8.2883 20.2292 8.13658 20.2292 8.13658L20.5758 7.96216L21.5499 7.73816L22.1821 7.77669L22.1028 8.21393L21.7294 8.97733L21.41 9.67277L21.0452 10.0988L20.7099 10.3434H20.7098Z" fill="#543E26"/>
<path fill-rule="evenodd" clip-rule="evenodd" d="M22.2887 8.45114C22.2887 8.45114 21.9081 8.92229 21.8016 8.99486C21.8696 8.84986 22.2887 7.98671 22.4405 7.74658C22.4066 7.71941 22.3612 7.71941 22.4676 7.29858C22.3772 7.51138 22.3453 7.62249 22.2707 7.67909C22.196 7.73568 22.1868 7.71761 22.1363 7.71761C22.1458 7.70037 22.1497 7.68059 22.1475 7.66102C22.1475 7.66102 21.8281 7.62249 21.6099 7.62249C21.3917 7.62249 20.9598 7.74031 20.7196 7.83544C20.5293 7.91473 20.4228 7.91473 20.3549 7.96446C20.2869 8.02106 20.2484 8.08228 20.2144 8.09811C20.1872 8.11394 20.0582 8.15471 20.0286 8.19772C20.0014 8.24252 19.9562 8.29285 19.9562 8.30419C19.9562 8.31554 19.9448 8.33152 19.9789 8.32002C19.9901 8.31554 20.074 8.27015 20.1691 8.21355C20.2981 8.14112 20.4545 8.05735 20.5678 8.00747C20.8917 7.8783 20.9937 7.90099 21.1386 7.87382C21.2903 7.84664 21.5079 7.78317 21.6527 7.78317C21.7977 7.77869 22.0719 7.78317 22.1354 7.79452C22.1082 7.81722 22.0855 7.8444 22.0969 7.93952C22.0969 7.9667 22.0742 7.99612 22.0521 8.06183C21.9843 8.2476 21.8551 8.55567 21.7833 8.71202C21.6836 8.92482 21.5705 9.10387 21.5145 9.21483C21.4585 9.32578 21.3353 9.61803 21.2132 9.77438C21.0912 9.93073 21.0275 10.0259 20.9892 10.0599C20.951 10.094 20.6765 10.2954 20.697 10.368C20.7469 10.3522 21.0618 10.2336 21.2905 9.97613C21.5191 9.71868 21.5646 9.56158 21.7435 9.42106C21.9224 9.28054 22.063 9.04504 22.1467 8.85031C22.2169 8.66902 22.2011 8.61242 22.2893 8.45159L22.2887 8.45114Z" fill="#806031"/>
<path fill-rule="evenodd" clip-rule="evenodd" d="M14.086 11.9677C14.086 11.9677 14.0361 12.1738 13.9228 12.2757C13.8118 12.3755 13.6147 12.4615 13.5921 12.6292C13.5649 12.7968 13.7892 12.8807 13.7892 12.8807C13.7892 12.8807 13.6668 13.0823 13.6668 13.234C13.6668 13.3904 13.6623 13.4198 13.6781 13.5693C13.6602 13.5808 13.6449 13.5961 13.6333 13.6141C13.6333 13.6141 13.6445 13.7591 13.7556 13.8496C13.8668 13.9401 13.9617 13.9946 14.0183 13.9719C14.027 13.9903 14.0345 14.0093 14.041 14.0286C14.041 14.0286 14.1249 13.8157 14.1815 13.6299C14.2381 13.4397 14.288 13.4667 14.3106 13.2107C14.3331 12.9548 14.5794 12.5153 14.5794 12.5153L14.7474 12.1397L14.4733 11.9268L14.086 11.9675V11.9677Z" fill="#B6903C"/>
<path fill-rule="evenodd" clip-rule="evenodd" d="M14.5956 12.3369C14.5391 12.3949 14.4869 12.457 14.4395 12.5227C14.3671 12.6224 14.3105 12.7129 14.204 12.7516C14.0976 12.7903 14.0296 12.79 14.0363 12.8966C14.0431 13.0032 14.1428 13.0483 14.1994 13.1027C14.2606 13.1593 14.3105 13.2544 14.2833 13.361C14.3172 13.3452 14.3785 13.327 14.4351 13.2047C14.4917 13.0824 14.8875 12.3371 14.8875 12.3371H14.5956V12.3369Z" fill="#685026"/>
<path fill-rule="evenodd" clip-rule="evenodd" d="M16.1568 10.6174C16.1568 10.6174 16.1907 10.5269 16.1568 10.4612C16.1228 10.3932 15.9167 10.3705 15.8147 10.2935C15.7082 10.2142 15.5791 10.1591 15.4726 10.1939C15.4884 10.1554 15.5519 10.0714 15.4998 10.0534C15.4499 10.0375 15.2643 10.1213 15.2144 10.1598C15.1645 10.1984 15.0512 10.2436 15.0286 10.2709C15.0061 10.2983 14.9674 10.3502 14.9447 10.3275C14.922 10.3117 14.9108 10.2709 14.8723 10.2935C14.8337 10.316 14.6483 10.4679 14.6141 10.5563C14.5799 10.6447 14.503 10.8418 14.2719 11.066C14.0409 11.2901 13.9412 11.4353 14.0091 11.5191C14.0771 11.6028 14.1089 11.5418 14.1202 11.6142C14.129 11.6853 14.1251 11.7574 14.1089 11.8271C14.0817 11.945 14.0364 12.0559 14.0975 12.0786C14.2539 12.1285 14.4057 12.0338 14.4396 12.0628C14.5076 12.1239 14.4011 12.3437 14.562 12.3867C14.7252 12.4315 14.886 12.3482 14.886 12.3482L15.4795 12.0287L16.0504 11.7275L16.3425 11.1498L16.1858 10.6673L16.1559 10.6174H16.1568Z" fill="#D4B968"/>
<path fill-rule="evenodd" clip-rule="evenodd" d="M15.5969 11.997C15.5969 11.997 15.4971 11.8453 15.6196 11.7115C15.7421 11.5777 15.9163 11.5213 15.9843 11.4375C15.9713 11.4215 15.954 11.4097 15.9344 11.4036C15.9795 11.3229 16.0483 11.258 16.1315 11.2177C16.0976 11.1838 16.0522 11.1566 16.0025 11.1566C15.8914 11.1566 15.8233 11.2245 15.7214 11.2245C15.6218 11.2245 15.6105 11.1747 15.6105 11.1747C15.6105 11.1747 15.7782 11.1588 15.7622 11.084C15.7464 11.0047 15.7174 11.0047 15.7174 11.0047C15.7174 11.0047 16.0413 10.8703 16.0979 10.7986C16.1545 10.727 16.1478 10.6423 16.1591 10.6084C16.1975 10.6084 16.4218 10.4906 16.5125 10.5404C16.6031 10.5903 16.5396 10.7262 16.5396 10.7262C16.5396 10.7262 16.814 10.52 16.9537 10.3178C17.076 10.3291 17.1329 10.234 17.2225 10.234C17.3336 10.234 17.5081 10.3857 17.542 10.7096C17.5647 10.8954 17.5986 11.0019 17.5647 11.3304C17.5488 11.5162 17.5533 11.9128 17.6095 12.1096C17.6478 12.266 17.7385 12.2502 17.7385 12.2502C17.7246 12.2978 17.697 12.3403 17.6592 12.3725C17.598 12.4291 17.5912 12.5787 17.598 12.6353C17.607 12.6767 17.6184 12.7175 17.632 12.7576C17.632 12.7576 17.5596 12.8414 17.5414 12.8981C17.5255 12.9547 17.4509 12.9932 17.3964 12.9932C17.3419 12.9932 17.3692 12.9886 17.2968 12.9932C17.2243 12.9979 17.2016 13.0091 17.1562 12.9932C17.1108 12.9774 17.0769 12.9592 17.0952 12.814C17.111 12.669 16.5356 12.3315 16.5356 12.3315L15.5948 11.9963L15.5969 11.997Z" fill="#CCA849"/>
<path fill-rule="evenodd" clip-rule="evenodd" d="M14.5161 13.4288C14.5161 13.4288 14.7222 13.703 15.5695 13.703C15.9727 13.703 16.1132 13.6645 16.1967 13.6418C16.2874 13.6191 16.6271 13.4856 16.9692 13.0822C17.2773 12.7176 17.2094 12.5681 17.2094 12.5681L17.0302 12.5409L16.4478 12.6202L14.7244 13.3542L14.5154 13.4288H14.5161Z" fill="#585136"/>
<path fill-rule="evenodd" clip-rule="evenodd" d="M15.1482 13.4968C15.1482 13.4968 14.4142 13.66 14.4142 13.1956C14.4142 12.7425 14.8673 12.2668 14.9806 12.183C15.0984 12.0991 15.3793 12.0038 15.3793 12.0038H16.0567L16.1857 12.3459L16.1291 13.0844L15.1482 13.4967V13.4968Z" fill="#252211"/>
<path fill-rule="evenodd" clip-rule="evenodd" d="M15.8256 12.1422C15.8256 12.1422 15.6852 12.013 15.3658 12.187C15.0464 12.361 14.788 12.7246 14.7722 13.0548C14.7563 13.3469 15.0123 13.5644 15.411 13.5758C15.7078 13.587 15.8868 13.5531 15.9774 13.531C15.9547 13.5038 15.8369 13.3566 15.8369 13.3566L15.8257 12.1423L15.8256 12.1422Z" fill="#C3B378"/>
<path fill-rule="evenodd" clip-rule="evenodd" d="M15.6875 12.2144C15.6875 12.2144 15.6536 12.1873 15.5531 12.2416C15.4693 12.2864 15.347 12.4048 15.2519 12.4886C15.1906 12.5385 15.1521 12.561 15.1175 12.5996C14.9769 12.7673 14.8591 13.0414 14.9272 13.1773C14.9953 13.3132 15.2194 13.4696 15.7903 13.3631L15.6858 12.2146L15.6875 12.2144Z" fill="#E6D89C"/>
<path fill-rule="evenodd" clip-rule="evenodd" d="M15.5018 12.4954C15.5018 12.4954 15.4111 12.6359 15.4111 12.8602C15.4111 13.089 15.5403 13.4537 16.0161 13.4808C16.3807 13.5035 16.6254 12.9553 16.8904 12.7424C17.092 12.5793 17.2143 12.5747 17.2143 12.5747C17.2143 12.5747 17.0082 12.3507 16.4578 12.0605C15.9141 11.7683 15.3047 11.7298 14.9739 12.1783C15.1302 12.167 15.6354 12.0378 15.6354 12.0378L15.8824 12.1171L15.5018 12.4955V12.4954Z" fill="#252211"/>
<path fill-rule="evenodd" clip-rule="evenodd" d="M16.2129 12.7921C16.1971 12.7583 16.1857 12.7129 16.2514 12.7017C16.3172 12.6905 16.3466 12.697 16.3693 12.7465C16.392 12.7959 16.4141 12.8371 16.3805 12.8576C16.3466 12.8756 16.2582 12.8576 16.2128 12.7919L16.2129 12.7921ZM16.1064 12.4727C16.1064 12.4727 16.0837 12.4886 16.0951 12.4569C16.0996 12.4185 16.1291 12.3504 16.2016 12.3664C16.274 12.3824 16.2583 12.4615 16.2464 12.4842C16.2344 12.5069 16.1739 12.5453 16.1285 12.529C16.1228 12.5276 16.1175 12.5247 16.113 12.5208C16.1085 12.5169 16.1051 12.512 16.1028 12.5065C16.1006 12.501 16.0997 12.495 16.1003 12.4891C16.1008 12.4832 16.1027 12.4775 16.1058 12.4724L16.1064 12.4727Z" fill="#6F674D"/>
<path fill-rule="evenodd" clip-rule="evenodd" d="M9.97437 12.6176C9.97437 12.6176 10.1536 12.752 10.3617 12.7468C10.5678 12.7421 10.8329 12.5293 10.9552 12.3933C11.0276 12.314 11.0896 12.2302 11.1568 12.1645C11.2135 12.1079 11.2519 12.0807 11.2791 12.0422C11.3176 11.9974 11.3584 11.9132 11.3788 11.8859C11.329 11.9244 11.2565 11.9925 11.1817 12.0377C11.1093 12.0825 10.9529 12.1668 10.8895 12.1895C10.8284 12.2122 10.194 12.5479 10.194 12.5479L9.97437 12.6176Z" fill="#AC924C"/>
<path fill-rule="evenodd" clip-rule="evenodd" d="M10.2483 10.9437C10.2483 10.9437 10.3479 10.8757 10.5405 10.8326C10.7263 10.7878 11.1001 10.7533 11.1001 10.7533L11.4082 10.8877L11.5305 11.3521L11.3065 11.8348L11.0211 12.014L10.697 11.4929L10.249 10.9446L10.2483 10.9437Z" fill="#9F8E57"/>
<path fill-rule="evenodd" clip-rule="evenodd" d="M9.84503 11.3583L9.7384 11.4379C9.7384 11.4379 9.76573 11.388 9.78828 11.2363C9.81083 11.0845 9.9288 10.7152 10.101 10.5023C10.2732 10.2893 10.2687 10.3007 10.2687 10.3007C10.2528 10.2978 10.2366 10.2983 10.2209 10.3022C10.2053 10.3061 10.1907 10.3132 10.178 10.3232C10.2007 10.2731 10.3457 10.0939 10.4907 10.0043C10.6357 9.91465 10.6923 9.88643 10.8441 9.95945C10.9958 10.0325 11.0343 10.0704 11.1454 10.0659C11.2565 10.0614 11.3515 9.94362 11.3515 9.94362C11.3515 9.94362 11.3742 10.016 11.2904 10.1837C11.2066 10.3515 10.8759 10.6934 10.8759 10.6934L10.1871 11.1646L9.84503 11.3587V11.3583Z" fill="#EAC970"/>
<path fill-rule="evenodd" clip-rule="evenodd" d="M10.3546 10.8871C10.3546 10.8871 10.8531 10.9551 11.0048 10.8147C11.0093 10.8305 11.0275 10.8305 11.0275 10.8419C11.0263 10.8504 11.0223 10.8583 11.0161 10.8644C11.0327 10.8618 11.0493 10.8603 11.066 10.8599C11.086 10.8659 11.1065 10.8697 11.1273 10.8713C11.144 10.8709 11.1606 10.8694 11.1771 10.8667C11.1756 10.8779 11.1717 10.8887 11.1659 10.8985C11.16 10.9082 11.1523 10.9167 11.1431 10.9234C11.1658 10.9234 11.1879 10.9279 11.1879 10.9459C11.1879 10.964 11.1924 11.0185 11.1652 11.0299C11.1427 11.0361 11.1187 11.0345 11.0972 11.0252C11.099 11.0681 11.1107 11.11 11.1313 11.1477C11.1761 11.2315 11.2717 11.3269 11.4001 11.2994C11.4001 11.2994 11.4679 11.4625 11.1825 11.8249C11.1441 11.8748 11.1032 11.9427 11.0535 11.9993C11.0338 12.0422 11.0188 12.087 11.0087 12.133C11.0087 12.133 11.4913 11.9472 11.6295 11.5236C11.77 11.0977 11.7972 10.6786 11.77 10.2868C11.7654 10.1757 11.7473 10.0965 11.7201 10.0398C11.6522 9.89927 11.4618 9.92197 11.3849 10.0013C11.2737 10.1124 11.088 10.3886 10.8298 10.5789C10.567 10.7691 10.5558 10.8029 10.354 10.8871H10.3546Z" fill="#D7BC6B"/>
<path fill-rule="evenodd" clip-rule="evenodd" d="M9.75672 11.4988C9.75672 11.4988 9.66159 11.5554 9.61171 11.7676C9.56184 11.985 9.65651 12.2501 9.71132 12.3339C9.76612 12.4177 9.89052 12.6466 10.1486 12.6579C10.2124 12.6576 10.2756 12.6445 10.3343 12.6194C10.4244 12.5781 10.5089 12.5256 10.5858 12.4631C10.6969 12.3793 10.7874 12.3068 10.7761 12.3C10.7489 12.2886 10.092 11.7449 10.092 11.7449L9.84497 11.4692L9.75657 11.4991L9.75672 11.4988Z" fill="#585136"/>
<path fill-rule="evenodd" clip-rule="evenodd" d="M10.3776 12.4004C10.3776 12.4004 10.5112 12.3892 10.5905 12.3393C10.6698 12.2895 10.1261 11.7504 10.1261 11.7504L10.1646 12.3328L10.3776 12.4004Z" fill="#453A25"/>
<path fill-rule="evenodd" clip-rule="evenodd" d="M9.79968 11.4578C9.79968 11.4578 9.73174 11.587 9.73174 11.621C9.72039 11.732 9.75443 12.0808 9.78161 12.1918C9.80879 12.3096 9.95603 12.4885 10.1464 12.4885C10.2641 12.4885 10.4273 12.4161 10.4273 12.398C10.4273 12.3753 10.2596 12.3532 10.2144 12.2688C10.1872 12.224 10.1759 12.1126 10.1696 12C10.1651 11.9276 10.1651 11.8483 10.1923 11.8208C10.2535 11.7529 10.2647 11.558 10.2647 11.558L10.4821 11.1541H10.1962L9.85404 11.367L9.79968 11.4578Z" fill="#84754B"/>
<path fill-rule="evenodd" clip-rule="evenodd" d="M9.71594 11.5826C9.71594 11.5826 9.93994 11.2858 10.1418 11.2178C10.3437 11.1497 10.4341 11.1906 10.4341 11.1906L10.3163 11.4919L10.1486 11.6777L10.1599 11.7728C10.1599 11.7728 10.1326 12.0243 10.3003 12.1987C10.468 12.3731 10.5925 12.3664 10.6651 12.3664C10.7377 12.3664 10.946 12.3052 11.0525 12.0537C11.1476 11.8182 11.2269 11.5161 11.0366 11.2133C10.8507 10.9119 10.5223 10.9003 10.4589 10.9003C10.3954 10.9003 9.89708 10.9252 9.71594 11.5821V11.5826Z" fill="#252211"/>
<path fill-rule="evenodd" clip-rule="evenodd" d="M15.4677 12.5907C15.3839 12.5521 15.4632 12.3166 15.547 12.2441C15.6307 12.1715 15.7372 12.0879 15.9231 12.0764C15.9909 12.0719 16.0566 12.1149 16.0454 12.1603C16.0296 12.2441 15.9118 12.3619 15.8053 12.4457C15.6581 12.5613 15.5628 12.6337 15.4677 12.5907Z" fill="#F7F7E7"/>
<path fill-rule="evenodd" clip-rule="evenodd" d="M10.9368 11.3061C10.998 11.3016 11.0773 11.3509 11.0931 11.4172C11.1089 11.4896 11.0546 11.6346 10.9368 11.6346C10.8416 11.6346 10.7917 11.5168 10.7917 11.4829C10.7928 11.455 10.8006 11.4278 10.8144 11.4036C10.8189 11.3967 10.8303 11.3174 10.9368 11.3061Z" fill="#F8F6DE"/>
<path fill-rule="evenodd" clip-rule="evenodd" d="M10.0534 11.3583C10.0534 11.3583 9.89708 11.4307 9.82465 11.5823C9.7729 11.6942 9.75724 11.8195 9.77985 11.9407C9.7912 11.9973 9.8478 12.1376 9.88632 12.1875C9.92485 12.2374 9.97697 12.2715 10.0155 12.2668C10.054 12.2622 10.1332 12.1603 10.1332 12.0993C10.1332 12.0382 10.1378 11.7798 10.2125 11.6393C10.2782 11.4989 10.0539 11.3584 10.0539 11.3584L10.0534 11.3583Z" fill="#D4C38B"/>
<path fill-rule="evenodd" clip-rule="evenodd" d="M10.076 11.347C10.0489 11.3628 10.0036 11.3855 10.0148 11.415C10.0262 11.4421 10.1213 11.4598 10.1553 11.5261C10.1939 11.594 10.1939 11.6664 10.1825 11.7005C10.2121 11.6864 10.239 11.6672 10.2618 11.6437C10.3117 11.5871 10.3728 11.5102 10.4249 11.5102C10.4589 11.5102 10.4928 11.5261 10.5246 11.5261C10.5745 11.5261 10.6242 11.5102 10.6311 11.4581C10.6423 11.3902 10.536 11.3289 10.4748 11.3403C10.4861 11.2955 10.5019 11.2293 10.4521 11.1839C10.4022 11.1385 10.246 11.218 10.2119 11.2407C10.1779 11.2634 10.076 11.3472 10.076 11.3472V11.347Z" fill="#E2D59D"/>
<path fill-rule="evenodd" clip-rule="evenodd" d="M13.6757 16.1065L14.011 16.0074L14.1061 16.0754C14.1061 16.0754 14.1739 16.2204 14.2805 16.2385C14.2465 16.3109 14.1581 16.3729 14.1627 16.4242C14.1674 16.4756 14.2126 16.5149 14.2126 16.5149C14.2126 16.5149 13.9112 17.0132 14.5048 17.5154C14.3643 17.572 14.1854 17.6498 14.0903 17.6946C14.1581 17.7104 14.3031 17.7394 14.3643 17.7944C14.4256 17.8493 14.4256 17.8668 14.4821 17.9008C14.5387 17.9349 14.5726 17.9801 14.5614 18.0004C14.5229 17.9777 14.3937 17.91 14.3712 17.9733C14.3486 18.0366 13.8116 18.0118 13.8116 18.0118L12.9055 18.1862C12.9055 18.1862 12.9394 18.0956 12.8443 18.0118C12.7333 17.9122 12.5974 18.0163 12.4524 17.9053C12.2622 17.7603 12.2553 17.5926 12.1942 17.5293C12.2553 17.4908 12.38 17.4342 12.6767 17.3949C12.6654 17.3722 12.6268 17.3043 12.6495 17.2432C12.6767 17.1639 12.7899 17.114 12.756 17.0192C12.8059 17.0078 12.8284 17.0078 12.9531 16.8515C13.0709 16.6951 13.1434 16.6612 13.234 16.6499C13.3247 16.6385 13.379 16.6499 13.5467 16.4935C13.6644 16.3826 13.626 16.2874 13.626 16.2874C13.626 16.2874 13.7029 16.2625 13.6759 16.1062L13.6757 16.1065Z" fill="#CBAC5A"/>
<path fill-rule="evenodd" clip-rule="evenodd" d="M12.6858 16.1569C12.6903 16.1342 12.7085 16.1228 12.8308 16.1342C12.9531 16.1455 13.7279 16.0617 13.9386 16.0504C14.1515 16.0346 14.9013 16.0458 15.2662 16.1228C15.631 16.1999 16.0001 16.2905 16.179 16.3358C16.3582 16.3856 16.4147 16.4036 16.4078 16.4263C16.4033 16.449 16.363 16.4711 16.3399 16.4648C16.3173 16.4603 15.7237 16.279 15.5403 16.2408C15.357 16.2026 14.7224 16.1003 14.3755 16.1064C14.0516 16.111 13.9225 16.1019 13.6484 16.1336C13.3743 16.1676 12.9212 16.2129 12.7853 16.1948C12.6509 16.179 12.6787 16.179 12.6855 16.1563L12.6858 16.1569Z" fill="#D6BC6F"/>
<path fill-rule="evenodd" clip-rule="evenodd" d="M14.5093 17.9324C14.5093 17.9324 14.9737 18.1839 15.1414 18.492C15.2637 18.7208 15.069 18.8341 15.069 18.8341C15.069 18.8341 15.3318 18.8341 15.2978 18.9791C15.2819 19.0696 14.8447 19.3142 14.5525 19.4434C14.2557 19.5725 14.2671 19.5658 14.1221 19.5884C13.9816 19.6111 13.5964 19.5436 13.5171 19.6563C13.4378 19.7691 13.4723 19.8853 13.4944 19.9033C13.5171 19.9192 13.7007 19.9419 13.7007 19.9419C13.7007 19.9419 13.6621 20.0483 13.2816 20.0597C12.9011 20.071 12.8059 20.0981 12.7832 20.139C12.7605 20.1774 12.8556 20.1548 13.0301 20.1838C13.2046 20.211 13.4492 20.2286 13.4492 20.2286C13.4492 20.2286 13.3699 20.2965 13.1638 20.3509C12.9282 20.412 12.5589 20.4687 12.4479 20.5366C12.5045 20.5752 12.5884 20.6318 12.6271 20.6363C12.532 20.6589 12.3982 20.7088 12.3756 20.7269C12.4095 20.7496 12.4549 20.7768 12.4549 20.7768C12.4549 20.7768 12.2645 21.0056 12.1536 21.0623C12.0426 21.119 11.4038 21.4156 11.1839 21.359C10.6357 21.214 10.5678 20.6137 10.4341 20.5685C10.2325 20.5005 10.1374 20.6363 9.95836 20.5411C10.0377 20.4845 10.0808 20.4506 10.1646 20.4121C10.0739 20.3673 9.60504 20.07 9.60504 20.07C9.55601 19.9631 9.50158 19.8588 9.44197 19.7574C9.35132 19.6011 9.21797 19.3926 9.11792 19.2091C8.90049 18.8059 8.88914 18.6201 8.69202 18.3913C8.72606 18.3465 8.84374 18.3528 8.84374 18.3528L10.4954 18.8965L13.4239 18.9813L14.1855 17.894L14.5094 17.9326L14.5093 17.9324Z" fill="#DFC677"/>
<path fill-rule="evenodd" clip-rule="evenodd" d="M10.1711 19.5905C10.1888 19.6102 10.2094 19.627 10.2322 19.6404C10.289 19.6789 10.3727 19.7243 10.4293 19.7921C10.452 19.7582 10.5086 19.697 10.6085 19.7921C10.7084 19.8873 10.8325 19.8195 10.9097 19.842C10.989 19.8693 10.9935 19.8805 10.9935 19.8805C10.9935 19.8805 11.0383 19.842 11.1385 19.8012C11.1998 19.7785 11.2722 19.7627 11.3515 19.7402C11.4239 19.7243 11.5032 19.7016 11.5577 19.7016C11.6076 19.7355 11.7865 19.9256 12.5046 19.645C13.182 19.3822 13.3382 19.3528 13.4515 19.3934C13.4629 19.3662 13.4742 19.3141 13.6487 19.321C13.6487 19.2486 13.5037 19.0016 13.5037 19.0016L12.704 18.7275H12.2666L10.955 18.9677L10.2282 19.3824L10.1716 19.5914L10.1711 19.5905Z" fill="#C4A859"/>
<path fill-rule="evenodd" clip-rule="evenodd" d="M9.73389 19.1308C9.73389 19.1308 9.74972 19.2531 9.93101 19.3822C10.1102 19.5113 10.1665 19.5883 10.1665 19.5883C10.1665 19.5883 10.2006 19.5435 10.2277 19.4978C10.2549 19.448 10.2776 19.3914 10.3229 19.3755C10.4135 19.337 10.6196 19.4094 10.665 19.3981C10.7035 19.3869 10.6922 19.3076 10.7329 19.3076C10.8281 19.3029 10.8891 19.3687 10.9232 19.3687C10.9572 19.3687 11.0409 19.3642 11.0522 19.3461C11.0636 19.328 11.068 19.1399 11.1972 19.0492C11.3377 18.9496 11.5099 18.9926 11.5556 19.0153C11.5556 19.0492 11.5601 19.1332 11.6507 19.1376C11.7414 19.1421 11.7503 19.1263 11.8299 19.1535C11.9095 19.1806 12.0044 19.149 12.0474 19.2825C12.0859 19.2713 12.1765 19.2599 12.1538 19.1308C12.1986 19.0969 12.2378 19.0742 12.333 18.9405C12.3557 18.9066 12.3941 18.8681 12.4237 18.8182C12.503 18.8182 12.5981 18.8024 12.7249 18.9133C12.6864 18.9405 12.6637 18.9581 12.6525 18.9858C12.6856 19.0186 12.7159 19.0542 12.743 19.0922C12.777 19.137 12.7997 19.192 12.8427 19.2033C12.9378 19.2305 13.0942 19.192 13.2686 19.2033C13.4363 19.2147 13.5767 19.2758 13.6379 19.3143C13.6606 19.3031 13.6606 19.2985 13.7172 19.3098C13.7738 19.3212 13.8168 19.3256 13.7557 19.2532C13.7896 19.2691 13.8282 19.3031 13.8622 19.2691C13.8963 19.235 13.9233 19.1853 14.0184 19.1739C14.1135 19.1626 14.1476 19.1784 14.1861 19.0788C14.236 18.9565 14.0638 18.9565 14.0638 18.9565C14.0638 18.9565 14.1431 18.8839 14.2315 18.7888C14.338 18.6892 14.4603 18.56 14.4897 18.4014C14.5396 18.1092 14.2542 18.0708 14.2542 18.0708L12.87 18.4967L11.1778 18.4128L9.73478 19.1309L9.73389 19.1308Z" fill="#927D49"/>
<path fill-rule="evenodd" clip-rule="evenodd" d="M8.49035 15.1324C8.49035 15.1324 8.44555 15.189 8.41792 15.3227C8.39029 15.4563 8.40209 15.4405 8.37939 15.5356C8.35669 15.6307 8.07789 16.5777 8.18242 16.8971C8.28695 17.2165 8.46795 17.3343 8.58114 17.5925C8.60384 17.6491 8.62594 17.6832 8.63774 17.733C8.67627 17.9006 8.64237 18.0298 8.68762 18.1975C8.70344 18.2541 8.74436 18.3198 8.80544 18.3877C8.93984 18.5281 9.15891 18.6618 9.25344 18.7569C9.38694 18.8974 9.57734 19.1829 9.81971 19.21C9.94888 19.2258 10.1324 19.1714 10.2841 19.0809C10.4185 18.997 10.5016 18.8793 10.6425 18.8121C10.7421 18.7623 10.8486 18.7442 10.9437 18.7215C11.1409 18.683 11.3199 18.6767 11.4264 18.6988C11.5895 18.7328 11.9746 18.8507 12.188 18.8507C12.3547 18.848 12.5206 18.8252 12.6818 18.7827C13.0057 18.6876 13.3976 18.5244 13.6559 18.4519C13.8077 18.4071 13.93 18.3953 14.0547 18.3682C14.2676 18.3183 14.4465 18.2503 14.5485 18.1212C14.4806 18.0419 14.3968 17.9196 13.9436 17.924C13.4294 17.9354 12.8358 18.2208 12.5436 18.2662C12.2513 18.3116 12.1245 18.3499 11.7982 18.2321C11.4784 18.1131 11.4678 18.0344 11.4678 18.0344C11.4678 18.0344 11.1319 17.7995 10.9914 17.2007C10.8509 16.6018 10.9914 16.1655 11.3562 15.7508C11.4513 15.6443 11.4286 15.5492 11.4286 15.5492C11.4286 15.5492 11.6688 15.2253 11.603 14.922C11.5306 14.6206 11.0662 14.6819 11.0662 14.6819L8.4905 15.1324H8.49035Z" fill="#6E6342"/>
<path fill-rule="evenodd" clip-rule="evenodd" d="M8.87759 16.1404C8.85762 16.1779 8.84822 16.2202 8.85041 16.2627C8.85489 16.3238 8.87311 16.4031 9.05649 16.5821C9.21284 16.7383 9.17879 16.9127 9.17879 16.9127C9.17879 16.9127 9.25749 16.9286 9.47104 16.8287C9.63874 16.7494 9.69504 16.8899 9.69504 16.8899C9.74385 16.8643 9.79677 16.8474 9.85139 16.84C9.90088 16.8354 9.94878 16.8202 9.99176 16.7952C9.99176 16.7952 10.1889 16.9968 10.3611 17.0919C10.5174 17.1759 10.6081 17.2325 10.6851 17.1759C10.7575 17.126 10.7575 17.024 10.7529 16.9787C10.7349 16.937 10.7122 16.8974 10.6851 16.8609C10.6352 16.7885 10.5559 16.7046 10.5507 16.6369C10.5394 16.4807 10.6685 16.2948 10.6412 16.2495C10.6139 16.2043 10.5122 16.1929 10.2607 16.2836C10.0003 16.3696 8.87654 16.1408 8.87654 16.1408L8.87759 16.1404Z" fill="#39331F"/>
<path fill-rule="evenodd" clip-rule="evenodd" d="M9.47121 17.1532C9.47121 17.1532 9.34218 17.0309 9.38743 16.4373C9.44221 16.4365 9.4969 16.4418 9.5505 16.4532C9.5505 16.4532 9.62084 16.9131 9.47121 17.1532Z" fill="#292311"/>
<path fill-rule="evenodd" clip-rule="evenodd" d="M8.55161 14.6792C8.56961 14.6659 8.58631 14.6509 8.60149 14.6344C8.55669 14.7182 8.34986 15.0534 8.51756 15.5813C8.68526 16.1068 9.10653 16.4987 9.62532 16.5169C10.1441 16.5351 10.4168 16.2812 10.7286 15.9007C10.8509 15.749 10.9914 15.5586 11.116 15.4296C11.3017 15.2278 11.4467 15.1712 11.4467 14.9765C11.4467 14.5778 11.0389 14.3987 10.4386 14.2198C9.83827 14.0409 9.29678 14.063 9.01589 14.1855C8.74186 14.319 8.62404 14.4595 8.55146 14.6793L8.55161 14.6792Z" fill="#252211"/>
<path fill-rule="evenodd" clip-rule="evenodd" d="M10.4792 17.332L10.524 17.3093C10.524 17.3093 10.5352 17.1301 10.6078 17.1349C10.6802 17.1462 10.7143 17.2415 10.7074 17.2754C10.7029 17.3093 10.6848 17.366 10.6123 17.3592C10.5171 17.3614 10.4788 17.332 10.4788 17.332H10.4792Z" fill="#3F3824"/>
<path fill-rule="evenodd" clip-rule="evenodd" d="M10.2777 16.571C10.2777 16.571 10.3225 16.5552 10.3773 16.6095C10.4221 16.6095 10.6174 16.5868 10.6787 16.6253C10.7399 16.6639 10.758 16.6978 10.758 16.6978C10.758 16.6978 10.5292 16.7477 10.4045 16.6978C10.2777 16.6548 10.2777 16.571 10.2777 16.571Z" fill="#2D2815"/>
<path fill-rule="evenodd" clip-rule="evenodd" d="M11.2858 16.6048C11.2858 16.5935 11.1635 16.5097 11.0343 16.4824C11.0116 16.4779 11.007 16.4937 10.9895 16.4937C10.9782 16.4892 10.9737 16.4552 10.9737 16.4552L10.9002 16.4939C10.9002 16.4939 10.8889 16.5097 10.9274 16.5387C10.9613 16.5659 11.0181 16.5886 11.0339 16.6338C11.0497 16.6791 11.0497 16.6949 11.0566 16.7017C11.0611 16.7062 11.1404 16.7017 11.1789 16.6791C11.2174 16.6564 11.29 16.6193 11.2854 16.6044L11.2858 16.6048Z" fill="#82764F"/>
<path fill-rule="evenodd" clip-rule="evenodd" d="M10.1417 17.0647C10.1417 17.0647 10.1643 16.9085 10.3161 16.9016C10.4723 16.8903 10.5019 17.042 10.5019 17.042L10.4113 17.1326C10.4113 17.1304 10.3433 17.0353 10.1425 17.0647H10.1417Z" fill="#2D2816"/>
<path fill-rule="evenodd" clip-rule="evenodd" d="M11.1273 16.3919C11.1273 16.3919 11.0434 16.4826 10.8578 16.5098C10.842 16.4871 10.8079 16.4418 10.8578 16.3694C10.9077 16.297 10.9643 16.2743 11.0209 16.2968C11.0458 16.3009 11.0691 16.312 11.088 16.3288C11.1069 16.3457 11.1205 16.3676 11.1273 16.3919Z" fill="#574F35"/>
<path fill-rule="evenodd" clip-rule="evenodd" d="M11.4692 16.5029C11.4738 16.4802 11.458 16.4757 11.4692 16.4644C11.4804 16.453 11.5417 16.4305 11.5531 16.4417C11.5576 16.4463 11.5531 16.4644 11.5531 16.4865C11.5531 16.5086 11.5531 16.5313 11.5417 16.5475C11.5259 16.5702 11.4807 16.5816 11.458 16.5749C11.4353 16.5682 11.4308 16.5363 11.4308 16.5301C11.442 16.5256 11.4692 16.5142 11.4692 16.5029ZM11.8559 16.2583C11.8559 16.2469 11.8945 16.2242 11.9172 16.2242C11.9511 16.2242 11.9511 16.2514 11.9557 16.2583C11.9669 16.2628 11.9669 16.2537 11.9782 16.2741C11.9896 16.2946 12.0056 16.3307 11.9941 16.3534C11.9826 16.3761 11.9375 16.3918 11.9263 16.3873C11.9104 16.376 11.8606 16.2741 11.8559 16.2583Z" fill="#82764F"/>
<path fill-rule="evenodd" clip-rule="evenodd" d="M11.0774 16.555C11.0774 16.555 11.1273 16.5662 11.1952 16.6229C11.1725 16.6387 11.1385 16.6568 11.1385 16.6568C11.1385 16.6568 11.134 16.6047 11.0774 16.5548V16.555Z" fill="#6E6342"/>
<path fill-rule="evenodd" clip-rule="evenodd" d="M10.9664 16.0565C10.955 16.0453 11.0003 16.0182 11.0275 16.0226C11.0546 16.0271 11.066 16.0453 11.0954 16.0498C11.1248 16.0543 11.1295 16.0385 11.1402 16.0271C11.151 16.0158 11.1901 16.0226 11.1968 16.0271C11.201 16.0321 11.2048 16.0374 11.2082 16.0429C11.2086 16.0343 11.2109 16.0259 11.2148 16.0182C11.2186 16.0105 11.2241 16.0037 11.2307 15.9981C11.2394 15.9918 11.2494 15.9874 11.26 15.9855C11.2706 15.9835 11.2815 15.984 11.2919 15.9868C11.2964 16.0026 11.3191 16.0592 11.3146 16.0706C11.3102 16.0819 11.2422 16.0979 11.2307 16.0864C11.2421 16.1137 11.2919 16.1703 11.2987 16.1815C11.3054 16.1927 11.2488 16.2201 11.2262 16.2156C11.1946 16.2133 10.9997 16.1 10.9658 16.057L10.9664 16.0565ZM11.2631 15.6805C11.2589 15.6691 11.2509 15.6595 11.2404 15.6533C11.2246 15.6489 11.1725 15.6533 11.1725 15.6805C11.1725 15.7077 11.2173 15.8597 11.2676 15.9389C11.3243 16.0182 11.3627 16.0837 11.4012 16.1019C11.4133 16.1074 11.4271 16.1082 11.4397 16.104C11.4523 16.0997 11.4628 16.0909 11.4692 16.0792C11.4737 16.0679 11.485 15.9841 11.4805 15.787C11.4761 15.5899 11.4692 15.3996 11.4578 15.3883C11.4465 15.3769 11.4012 15.3771 11.3854 15.3996C11.3696 15.4222 11.2676 15.6466 11.263 15.6805H11.2631Z" fill="#585136"/>
<path fill-rule="evenodd" clip-rule="evenodd" d="M11.0615 16.8405C11.0615 16.8405 10.9822 16.7906 10.9052 16.8246C10.8327 16.8587 10.8372 16.9923 10.8372 16.9923C10.8535 16.9987 10.8711 17.001 10.8885 16.999C10.9059 16.9971 10.9225 16.9909 10.937 16.981C10.9868 16.9471 11.0502 16.8905 11.0615 16.8406V16.8405Z" fill="#574F35"/>
<path fill-rule="evenodd" clip-rule="evenodd" d="M11.2111 17.0194C11.2066 16.9746 11.1663 16.9746 11.1663 16.9514C11.169 16.9403 11.1754 16.9305 11.1845 16.9235C11.1935 16.9166 11.2046 16.9128 11.216 16.9129C11.2387 16.9129 11.2608 16.9401 11.2886 16.9577C11.3157 16.9735 11.3565 17.0025 11.361 17.037C11.3655 17.0715 11.3162 17.166 11.2614 17.166C11.2066 17.166 11.2229 17.064 11.2115 17.0188L11.2111 17.0194ZM11.6483 16.9581C11.6483 16.9581 11.5577 16.9853 11.5644 16.9581C11.5711 16.9309 11.5917 16.9242 11.6211 16.9242C11.6361 16.9086 11.6562 16.8989 11.6777 16.8969C11.6901 16.8963 11.7022 16.9003 11.7116 16.9082C11.7116 16.9082 11.7729 16.8811 11.7909 16.8969C11.809 16.9127 11.7956 16.9127 11.8068 16.9309C11.821 16.9512 11.8304 16.9744 11.8341 16.9989C11.8341 17.017 11.7661 17.0555 11.7116 17.0488C11.6483 17.0352 11.6595 16.9695 11.6483 16.9581ZM12.1761 16.8561C12.1761 16.8561 12.2032 16.872 12.1807 16.8902C12.1649 16.906 12.0856 16.935 12.0175 16.9401C11.9495 16.9401 11.8884 16.9513 11.8884 16.9287C11.8884 16.9062 11.945 16.8608 11.9789 16.8494C11.9857 16.8409 11.9944 16.834 12.0042 16.8293C12.014 16.8246 12.0248 16.8222 12.0357 16.8222C12.0629 16.8222 12.1692 16.8109 12.1988 16.8064C12.2259 16.8018 12.2486 16.8176 12.2326 16.8403C12.2259 16.8561 12.1761 16.8561 12.1761 16.8561ZM12.3324 16.1567C12.3324 16.1567 12.2984 16.2291 12.26 16.2291C12.2214 16.2246 12.2214 16.2132 12.2214 16.2019C12.2214 16.1861 12.26 16.1453 12.2553 16.134C12.2441 16.134 12.2168 16.134 12.2214 16.1068C12.2214 16.0841 12.26 16.0569 12.2939 16.062C12.3195 16.0409 12.3514 16.029 12.3845 16.0281C12.423 16.0281 12.4569 16.0393 12.4569 16.062C12.4569 16.0847 12.4121 16.1344 12.3957 16.1459C12.3777 16.164 12.355 16.1758 12.3324 16.1571V16.1567ZM11.8159 17.4954C11.8159 17.4954 11.7711 17.5001 11.7711 17.5226C11.7711 17.534 11.7823 17.534 11.7982 17.5272C11.8074 17.5267 11.8166 17.5252 11.8254 17.5226C11.8299 17.5272 11.8299 17.5498 11.8639 17.5498C11.8919 17.546 11.9188 17.5368 11.9432 17.5226C11.9704 17.5114 11.9931 17.4999 11.9931 17.4778C11.9818 17.4393 11.9591 17.4211 11.9252 17.4211C11.9078 17.42 11.8905 17.4239 11.8753 17.4324C11.8753 17.4324 11.8639 17.4097 11.8254 17.4324C11.7869 17.4551 11.7914 17.4551 11.8027 17.4665C11.823 17.4845 11.8163 17.4963 11.8163 17.4963L11.8159 17.4954ZM11.5599 17.7311C11.5599 17.7197 11.6165 17.697 11.6323 17.7039C11.6482 17.7084 11.6934 17.7944 11.6934 17.8035C11.6934 17.8148 11.6368 17.842 11.6141 17.842C11.5914 17.842 11.553 17.8035 11.553 17.7972C11.553 17.7927 11.5802 17.786 11.5802 17.7814C11.5869 17.7702 11.5599 17.7429 11.5599 17.7315V17.7311ZM11.3807 17.4003C11.3921 17.3958 11.3921 17.3845 11.4079 17.3731C11.4128 17.3698 11.4185 17.3677 11.4244 17.3669C11.4303 17.3662 11.4363 17.3667 11.4419 17.3686C11.4459 17.3615 11.4515 17.3554 11.4581 17.3506C11.4648 17.3459 11.4724 17.3427 11.4805 17.3413C11.5076 17.3368 11.5303 17.3413 11.5253 17.3527C11.5253 17.3867 11.548 17.4093 11.548 17.4364C11.548 17.4636 11.5321 17.4977 11.4755 17.5204C11.4189 17.5362 11.3419 17.5362 11.3305 17.5317C11.3192 17.5272 11.3078 17.4818 11.3192 17.4591C11.3305 17.4364 11.3622 17.4116 11.3804 17.4003H11.3807Z" fill="#82764F"/>
<path fill-rule="evenodd" clip-rule="evenodd" d="M11.4528 17.4158C11.4528 17.4158 11.4142 17.4385 11.4142 17.4498C11.4108 17.4608 11.4093 17.4722 11.4097 17.4837C11.4097 17.4904 11.4596 17.4792 11.4663 17.4724C11.4686 17.4679 11.4528 17.4276 11.4528 17.4158Z" fill="#6E6342"/>
<path fill-rule="evenodd" clip-rule="evenodd" d="M11.116 17.3093C11.1385 17.314 11.1771 17.3093 11.2065 17.3207C11.2292 17.332 11.245 17.3547 11.2223 17.3819C11.1996 17.4091 11.1775 17.4499 11.1272 17.443C11.0706 17.4385 11.0162 17.4091 11.0162 17.3864C11.0153 17.372 11.0172 17.3576 11.0219 17.344C11.0265 17.3304 11.0338 17.3178 11.0434 17.3071C11.0661 17.289 11.0773 17.3004 11.1158 17.3093H11.116Z" fill="#585136"/>
<path fill-rule="evenodd" clip-rule="evenodd" d="M11.0887 17.332C11.0887 17.332 11.0163 17.3886 10.9981 17.416C10.9754 17.4431 10.8644 17.5835 10.8305 17.6129C10.8418 17.5931 10.8546 17.5741 10.8689 17.5563C10.8241 17.585 10.7905 17.6282 10.7738 17.6786C10.7466 17.7626 10.9256 17.8078 11.0433 17.8419C11.161 17.8759 11.2065 17.8867 11.2065 17.8867C11.1632 17.8215 11.126 17.7526 11.0954 17.6806C11.0506 17.5741 11.0275 17.5628 11.0569 17.5129C11.0796 17.463 11.1136 17.4291 11.1136 17.3906C11.1001 17.3547 11.0887 17.332 11.0887 17.332Z" fill="#574F35"/>
<path fill-rule="evenodd" clip-rule="evenodd" d="M8.50616 17.5111C8.52265 17.5141 8.53955 17.5141 8.55604 17.5111C8.58993 17.5065 8.94341 17.3767 9.31271 17.4C9.58917 17.4167 9.86319 17.4618 10.1305 17.5344C10.5949 17.6567 11.1725 17.8991 11.5463 18.0374C11.6459 18.0757 11.7434 18.1438 11.8151 18.1709C12.1006 18.282 12.1118 18.282 12.2795 18.3114C12.4766 18.3386 12.6782 18.2729 12.8889 18.2276C13.1471 18.1709 13.5889 18.1437 13.9762 18.0871C14.1015 18.0697 14.225 18.0417 14.3455 18.0033C14.3455 18.0033 14.0375 18.3114 13.2989 18.4223C13.0003 18.4677 12.6969 18.4715 12.3973 18.4337C12.1617 18.411 12.0055 18.377 11.8877 18.3431C11.754 18.3045 11.4798 18.2025 11.1423 18.1191C10.9067 18.0578 10.6439 18.0126 10.3427 17.956C9.59958 17.8199 8.79318 17.6637 8.50586 17.512L8.50616 17.5111Z" fill="#252211"/>
<path fill-rule="evenodd" clip-rule="evenodd" d="M7.67235 16.1112C7.49315 16.2629 7.30305 16.4079 7.11743 16.5483L6.55788 16.9782C6.36763 17.1186 6.18186 17.2636 5.99146 17.4041C5.80106 17.5447 5.61096 17.6782 5.40906 17.8073C5.58826 17.6556 5.77836 17.5151 5.96861 17.377C6.15886 17.2388 6.35613 17.1034 6.53966 16.9633L7.09921 16.5328C7.2917 16.3924 7.47747 16.2474 7.67235 16.1115V16.1112ZM6.68242 17.697C6.68242 17.697 6.88402 17.5293 7.1355 17.2938C7.44805 17.0017 7.83095 16.6277 7.95325 16.56L6.68227 17.6971L6.68242 17.697Z" fill="#CFB66C"/>
<path fill-rule="evenodd" clip-rule="evenodd" d="M6.6825 17.6966C6.78225 17.597 6.88872 17.4996 6.9952 17.4044L7.15827 17.264C7.20815 17.2192 7.2649 17.1689 7.31462 17.119C7.41423 17.0194 7.51174 16.9128 7.61135 16.8109C7.66072 16.7597 7.71292 16.7113 7.7677 16.6659C7.79509 16.6417 7.82551 16.6211 7.8582 16.6047C7.88552 16.5889 7.91494 16.5599 7.95332 16.5548C7.93077 16.5889 7.90359 16.6047 7.8809 16.6341C7.85372 16.6568 7.83102 16.684 7.80847 16.7065C7.75859 16.7564 7.70199 16.8017 7.65212 16.8471C7.54564 16.9377 7.43469 17.0263 7.32821 17.1211C7.22174 17.2159 7.12213 17.3182 7.01551 17.4133C6.90007 17.5108 6.7936 17.606 6.6825 17.6971V17.6966ZM8.03725 16.7905C8.03725 16.7905 7.29879 17.5132 7.14692 17.6309L8.03725 16.7905Z" fill="#CFB66C"/>
<path fill-rule="evenodd" clip-rule="evenodd" d="M8.0373 16.7905C7.97087 16.8674 7.89964 16.94 7.82405 17.008L7.60005 17.2209C7.52762 17.2933 7.45953 17.3659 7.38262 17.4383C7.30332 17.5063 7.2309 17.5727 7.14697 17.6355L7.3644 17.4225C7.43698 17.3501 7.51627 17.289 7.59333 17.2164L7.81076 17.0035C7.88543 16.9288 7.958 16.8562 8.0373 16.7905ZM8.0712 17.1824C8.00313 17.3724 7.92292 17.5578 7.83107 17.7374C7.64082 18.1181 7.35544 18.5937 7.23075 18.8362L8.0712 17.1824Z" fill="#CFB66C"/>
<path fill-rule="evenodd" clip-rule="evenodd" d="M8.07112 17.1826C8.07112 17.2664 8.04842 17.339 8.02124 17.4114C7.99475 17.4839 7.96454 17.555 7.93074 17.6243C7.8967 17.6923 7.85817 17.7649 7.81964 17.8306C7.78111 17.8963 7.73586 17.9641 7.70182 18.0322L7.47304 18.4354C7.39374 18.5698 7.31669 18.7049 7.23291 18.8341C7.28951 18.6891 7.36656 18.5532 7.43914 18.4195C7.51844 18.2851 7.59086 18.1507 7.66314 18.0117C7.69843 17.9424 7.73018 17.8714 7.75826 17.7989C7.79216 17.7263 7.82606 17.6584 7.85339 17.5927C7.88729 17.5203 7.91447 17.4522 7.94852 17.3866C7.98689 17.3163 8.0187 17.2483 8.07082 17.1826H8.07112Z" fill="#CFB66C"/>
<path fill-rule="evenodd" clip-rule="evenodd" d="M8.87774 19.0402C8.87774 19.0402 8.65374 19.3369 8.67614 19.7129C8.73721 19.5159 8.81427 19.2146 8.87774 19.0402ZM9.09068 19.3376C9.09068 19.3376 9.01139 20.144 8.94568 20.5405C9.03857 20.0822 9.05664 20.1207 9.09068 19.3376ZM10.5745 20.5882C10.5745 20.5882 10.2392 21.5738 10.2323 21.8476C10.3049 21.566 10.4453 20.9906 10.5745 20.5874V20.5882Z" fill="#DEC270"/>
<path fill-rule="evenodd" clip-rule="evenodd" d="M11.3583 18.9791C11.3583 18.9791 11.902 19.8762 12.3098 20.6418C12.1995 20.2565 11.9456 19.5499 11.3583 18.9791Z" fill="#CBAF59"/>
<path fill-rule="evenodd" clip-rule="evenodd" d="M12.8195 20.2998C13.118 20.8275 13.3872 21.3712 13.6259 21.9286C13.5806 21.5435 13.4582 20.8843 12.8195 20.2998Z" fill="#E3C677"/>
<path fill-rule="evenodd" clip-rule="evenodd" d="M17.1146 21.6224C17.2051 21.5658 17.3841 21.2576 17.5405 21.1807C17.6967 21.1014 17.8145 21.0856 17.955 20.9292C18.0954 20.766 18.1342 20.6664 18.442 20.5373C18.8725 20.3514 18.5764 20.1113 18.5764 20.1113C18.6238 20.0647 18.6745 20.0216 18.7281 19.9823C18.8392 19.8985 18.9682 19.7965 18.957 19.6175C18.9412 19.3163 18.8846 18.879 18.6376 18.6253C18.8778 18.5754 19.3375 18.5415 19.6232 18.4691C19.9538 18.3852 20.1057 18.2673 20.1057 18.2673C20.1057 18.2673 19.9155 17.9434 20.2235 17.6173C20.5316 17.2911 20.7831 17.0963 20.9689 16.7314C20.7559 16.7043 20.4313 16.5911 19.6028 16.9059C19.6475 16.9269 19.6907 16.9511 19.7319 16.9783C19.7319 16.9783 19.2223 17.1188 19.0365 17.2752C18.7124 17.5492 18.6717 17.7735 18.3206 17.9412C17.9695 18.1089 17.616 18.0635 17.3239 18.1994C17.0318 18.3353 16.9887 18.4509 16.8821 18.5007C16.9048 18.5279 16.8776 18.5732 16.9206 18.6117C16.8934 18.6502 16.7348 18.9084 16.574 18.9084C16.5898 18.9696 16.7257 19.0149 16.7257 19.0149C16.7257 19.0149 16.6261 19.0875 16.3724 19.1055C16.5014 19.2399 16.6239 19.3864 16.9614 19.5994C16.9342 19.656 16.8208 19.7399 16.8662 19.8464C16.9161 19.9529 17.0454 20.0979 17.5617 20.2157C17.2988 20.2269 16.9909 20.2881 16.5761 20.2315C16.1615 20.1816 16.0936 20.1522 15.8376 20.2157C15.8648 20.2429 15.9372 20.2429 16.0007 20.3153C15.9327 20.3198 15.5069 20.2654 15.3618 20.4558C15.2101 20.6528 15.1444 20.9768 15.1558 21.1943C15.0765 21.2328 14.9994 21.3007 15.0379 21.4413C15.0765 21.5818 15.2781 21.627 15.4072 21.7153C15.5363 21.8104 15.5476 21.8443 15.6701 21.8218C15.7991 21.7946 15.9893 21.6656 16.1005 21.6656C16.2116 21.6656 16.2907 21.7493 16.2907 21.7493C16.2907 21.7493 16.5921 21.6043 16.6215 21.6315C16.6487 21.6587 16.626 21.8331 16.6554 21.8603C16.6852 21.8808 17.0247 21.6792 17.1153 21.6224H17.1146Z" fill="#ECD592"/>
<path fill-rule="evenodd" clip-rule="evenodd" d="M23.7 12.5567C22.2842 8.9004 18.7841 8.22302 18.7841 8.22302H8.79837L8.8369 11.9472H10.8256V20.2635H8.79822V23.981H18.5077C20.8478 23.981 22.7235 21.6294 22.7235 21.6294C25.7274 17.3661 23.6999 12.5567 23.6999 12.5567H23.7ZM18.5598 19.1239C18.5598 19.1239 17.7982 20.2227 16.9696 20.2227H15.312L15.2727 11.9564H17.4C17.4 11.9564 18.3856 12.1624 19.0741 14.1129C19.0741 14.1129 19.987 16.9054 18.5598 19.1239Z" fill="white" fill-opacity="0.8"/>
</svg>
