<svg width="32" height="32" viewBox="0 0 32 32" fill="none" xmlns="http://www.w3.org/2000/svg">
<rect width="32" height="32" rx="6" fill="#1A1B22"/>
<path fill-rule="evenodd" clip-rule="evenodd" d="M7.12654 4.12033L2.02099 14.9071C2.00156 14.9472 1.99541 14.9925 2.00342 15.0364C2.01144 15.0803 2.0332 15.1205 2.06554 15.151L15.8544 28.4411C15.8936 28.4789 15.9457 28.5 16 28.5C16.0543 28.5 16.1064 28.4789 16.1456 28.4411L29.9345 15.1519C29.9668 15.1213 29.9886 15.0811 29.9966 15.0372C30.0046 14.9933 29.9984 14.948 29.979 14.9079L24.8735 4.12116C24.857 4.08493 24.8305 4.05424 24.7971 4.03276C24.7638 4.01128 24.725 3.99991 24.6854 4.00002H7.31628C7.27648 3.99952 7.23739 4.01061 7.20372 4.03196C7.17006 4.05331 7.14325 4.084 7.12654 4.12033Z" fill="#50AF95"/>
<path fill-rule="evenodd" clip-rule="evenodd" d="M17.197 16.28C17.0975 16.2876 16.5838 16.3186 15.4378 16.3186C14.5263 16.3186 13.8791 16.2909 13.652 16.28C10.1295 16.123 7.50024 15.5017 7.50024 14.7578C7.50024 14.0139 10.1295 13.3934 13.652 13.2338V15.6612C13.8824 15.678 14.542 15.7175 15.4535 15.7175C16.5473 15.7175 17.095 15.6713 17.1936 15.662V13.2355C20.7087 13.3942 23.3322 14.0155 23.3322 14.7578C23.3322 15.5 20.7095 16.1213 17.1936 16.2792L17.197 16.28ZM17.197 12.9845V10.8123H22.1025V7.5H8.74651V10.8123H13.6512V12.9836C9.66464 13.1692 6.66663 13.9694 6.66663 14.9282C6.66663 15.8871 9.66464 16.6864 13.6512 16.8728V23.8333H17.1961V16.8703C21.1736 16.6847 24.1666 15.8854 24.1666 14.9274C24.1666 13.9694 21.1761 13.17 17.1961 12.9836L17.197 12.9845Z" fill="white"/>
</svg>
