<svg width="32" height="32" viewBox="0 0 32 32" fill="none" xmlns="http://www.w3.org/2000/svg">
<rect width="32" height="32" rx="6" fill="#1A1B22"/>
<path d="M30 16C30 8.26078 23.7241 2 16 2C8.26078 2 2 8.26078 2 16C2 23.7241 8.26078 30 16 30C23.7241 30 30 23.7241 30 16Z" fill="url(#paint0_radial_26_7378)"/>
<path d="M25.5194 11.625C25.459 11.972 25.3987 12.1379 25.3082 12.3189C25.2177 12.5301 25.1271 12.7564 25.0366 13.2392C25.0065 13.4202 24.9763 13.5711 24.9612 13.6918V13.7069C24.931 13.903 24.9159 14.0388 24.8405 14.2651C24.7802 14.4612 24.6746 14.778 24.4181 15.1099C24.2069 15.3814 23.8599 15.8491 23.3922 15.9095C23.347 15.9095 23.2715 15.9095 23.2263 15.8944C21.8987 15.2155 20.7672 14.7176 20.375 14.612C19.9224 14.4763 19.9828 13.4806 20.028 12.6056C20.0582 12.2133 20.0733 11.8362 20.0582 11.5194C19.9978 10.403 19.8017 9.1961 18.8362 8.60773C18.2629 8.26075 17.5086 8.15515 16.7996 8.15515C16.9353 8.0948 17.0711 8.00429 17.2371 7.91377C17.6595 7.67239 18.1724 7.37066 18.7004 7.31032C18.8664 7.29523 19.0323 7.28015 19.1983 7.24997C20.2392 7.12929 21.1444 7.02368 22.0948 7.35558C22.5323 7.50644 23.4073 7.9892 23.6336 8.45687C23.7996 8.77368 24.0711 9.03015 24.5991 9.52799C24.8858 9.78446 25.0668 9.93532 25.2026 10.056C25.3987 10.2069 25.4289 10.2521 25.4892 10.3577C25.6702 10.7198 25.6099 11.097 25.5194 11.625Z" fill="white"/>
<path d="M20.7069 16.1962C20.7673 16.2113 20.7974 16.2867 20.7522 16.347C20.6164 16.5583 20.4505 16.86 20.2543 17.207C20.1638 17.3729 20.0733 17.5389 19.9979 17.6595C19.7414 18.097 19.7263 18.4742 19.7112 18.7608C19.6961 19.0776 19.6811 19.2134 19.4849 19.3341C19.3341 19.4397 19.1681 19.4699 18.0819 19.6358C17.8858 19.666 17.8104 19.6962 17.7349 19.7414C17.7199 19.7565 17.6897 19.7565 17.6746 19.7716C17.6142 19.8018 17.5539 19.7414 17.5539 19.6811C17.569 19.5302 17.569 19.3341 17.569 19.0776V19.0324C17.569 18.8212 17.569 18.6401 17.5539 18.5044C17.5388 18.2328 17.5388 18.1121 17.6142 17.9914C17.7048 17.8406 17.7802 17.7953 17.8858 17.7199C18.0517 17.6143 18.278 17.4785 18.5949 17.0259C18.7759 16.7845 18.8061 16.6488 18.8362 16.5432C18.8513 16.4979 18.8513 16.4828 18.9871 16.3772C19.1229 16.2716 19.5604 15.9397 20.1186 16.0302C20.2996 16.0604 20.4957 16.1208 20.7069 16.1962Z" fill="white"/>
<path d="M16.3771 21.2048C16.3469 21.235 16.3318 21.2501 16.2866 21.2501C16.1659 21.2501 16.0905 21.2199 16.0452 21.1595C15.9396 21.0238 15.9547 20.7522 15.9698 20.5863L16.4374 20.4656C16.4676 20.722 16.4827 21.069 16.3771 21.2048Z" fill="white"/>
<path d="M16.4073 19.5454C16.3923 19.6057 16.3923 19.6812 16.3923 19.7717C16.3923 19.8019 16.3923 19.832 16.3923 19.8622C16.3923 19.9376 16.3923 20.0583 16.3923 20.1187C16.2414 20.1639 16.1207 20.1639 15.9698 20.1639C15.9698 20.1187 15.9698 20.0432 15.9698 19.998C15.9698 19.9678 15.9698 19.9225 15.9698 19.8924C15.9698 19.8471 15.9698 19.8169 15.9698 19.7717C15.9698 19.6812 15.9698 19.5454 15.9849 19.5001C16.0302 19.5001 16.0755 19.485 16.1207 19.47C16.2112 19.4549 16.347 19.4247 16.4224 19.4398C16.4224 19.47 16.4224 19.5152 16.4073 19.5454Z" fill="white"/>
<path d="M15.5625 21.069C15.5474 21.3103 15.472 21.597 15.2457 21.6422C15.1401 21.6573 15.0948 21.6272 15.0646 21.597C14.9138 21.4612 14.8987 21.0388 14.9138 20.7371C15.0194 20.7371 15.1401 20.722 15.2909 20.6918C15.3815 20.6767 15.472 20.6466 15.5474 20.6315C15.5625 20.7522 15.5776 20.903 15.5625 21.069Z" fill="white"/>
<path d="M15.457 20.2242L14.9591 20.4052C14.9893 20.2091 15.0195 19.9375 15.0345 19.7565C15.0496 19.6358 15.0798 19.5905 15.0949 19.5755C15.0949 19.5755 15.11 19.5604 15.1251 19.5604C15.1251 19.5604 15.1251 19.5604 15.1401 19.5604H15.1552L15.472 19.5453C15.457 19.6962 15.457 20.028 15.457 20.2242Z" fill="white"/>
<path d="M14.6422 20.0732C14.612 20.1487 14.5819 20.3599 14.5668 20.5107L13.9482 20.4956C13.9784 20.2995 14.0388 20.1034 14.084 19.9525C14.1444 19.8017 14.1896 19.681 14.25 19.6508C14.3103 19.6206 14.4461 19.6056 14.5366 19.681C14.6724 19.7715 14.7026 19.9073 14.6422 20.0732Z" fill="white"/>
<path d="M14.4159 21.9893C14.3707 22.0496 14.3103 22.0949 14.25 22.0949C14.1746 22.11 14.1293 22.0798 14.084 22.0496C13.8879 21.8686 13.903 21.2803 13.9181 20.9936C14.1746 20.9333 14.4612 20.888 14.597 20.8729C14.597 21.0992 14.6121 21.7178 14.4159 21.9893Z" fill="white"/>
<path d="M13.6014 20.4656C13.5712 20.541 13.541 20.6164 13.5259 20.6919C13.4505 20.722 13.2242 20.6919 12.9979 20.6466L13.1488 19.666C13.4053 19.5906 13.707 19.5755 13.7673 19.6509C13.8729 19.7565 13.6768 20.2544 13.6014 20.4656Z" fill="white"/>
<path d="M13.3147 22.125C13.194 22.2758 13.013 22.3513 12.7565 22.3362C12.5755 22.3362 12.5151 22.2607 12.485 22.2155C12.3492 21.9892 12.485 21.4612 12.6207 21.1293L13.4656 21.1745C13.4806 21.2349 13.4806 21.3103 13.4806 21.3857C13.4957 21.6422 13.4656 21.9439 13.3147 22.125Z" fill="white"/>
<path d="M20.3147 14.9892C19.5453 14.778 19.6207 13.6616 19.6811 12.5754C19.6961 12.1983 19.7263 11.8362 19.7112 11.5345C19.6509 10.5237 19.4849 9.42241 18.6703 8.92456C17.7953 8.39654 16.3621 8.51723 15.4871 8.62284C15.1703 8.71335 14.8686 8.78879 14.6272 8.7737C14.1142 8.74353 13.7069 8.53232 13.3449 8.3362C13.0733 8.18534 12.8319 8.04956 12.5905 8.04956C12.5755 8.04956 12.5604 8.04956 12.5604 8.04956C11.8815 8.09482 11.5647 8.26077 11.278 8.51723C11.2026 8.57758 11.1121 8.75861 10.8255 9.58835C10.6746 10.0108 10.6595 10.2371 10.6293 10.4483C10.5992 10.6444 10.5841 10.8556 10.4785 11.1724C10.403 11.3836 10.3427 11.5646 10.2974 11.7457C10.1617 12.2134 10.041 12.5905 9.70908 13.0431C9.66382 13.0884 9.61856 13.1789 9.55821 13.2543C9.48278 13.375 9.39227 13.5259 9.25649 13.6918C9.16597 13.8125 8.96985 14.2651 8.98494 14.4009C9.00003 14.6271 9.07546 14.7629 9.15089 14.9138C9.22632 15.0646 9.33192 15.2457 9.34701 15.5021V15.5474C9.37718 15.9396 9.31684 16.1358 8.57761 16.7996C8.10994 17.222 7.76296 17.6293 7.53666 17.931C7.52158 17.9612 7.53666 17.9914 7.58192 17.9914C7.59701 17.9914 7.59701 17.9914 7.59701 17.9914C7.61209 17.9914 7.62718 17.9914 7.64227 17.9914C7.65735 17.9914 7.67244 17.9914 7.68753 17.9914C7.70261 17.9914 7.7177 17.9914 7.73278 17.9914C7.91382 18.0065 8.09485 18.0819 8.21554 18.2177C8.23063 18.2478 8.27589 18.2478 8.30606 18.2327C8.42675 18.1875 8.56253 18.1875 8.68321 18.2026C8.83408 18.2177 9.00002 18.2629 9.10563 18.3685C9.1358 18.3987 9.18106 18.4138 9.22632 18.3987C9.34701 18.3685 9.48278 18.3685 9.60347 18.4138C9.69399 18.444 9.78451 18.5043 9.84485 18.5797C9.89011 18.625 9.96554 18.6401 10.0259 18.6099C10.0561 18.5948 10.1013 18.5646 10.1466 18.5496C10.3125 18.4892 10.4936 18.5194 10.6444 18.5797C10.7199 18.6099 10.7953 18.625 10.8707 18.6853C10.9914 18.7759 11.0819 18.8965 11.1272 19.0323C11.1574 19.1078 11.263 19.1379 11.3233 19.0776C11.444 18.9871 11.5345 18.972 11.625 19.0021C11.6703 19.0172 11.7005 19.0474 11.7306 19.0927C11.7759 19.153 11.8513 19.2134 11.9117 19.1832C12.1681 19.1078 12.4699 19.153 12.6961 19.2737C12.7716 19.319 12.8621 19.3793 12.9074 19.4698V19.4246C12.9074 19.4095 12.9224 19.3944 12.9375 19.3793L12.9828 19.3642C13.1035 19.319 13.7371 19.1379 13.9785 19.3944C13.9936 19.4095 14.0086 19.4095 14.0237 19.3944C14.0539 19.3642 14.0841 19.334 14.0992 19.334C14.2651 19.2435 14.5367 19.2284 14.7177 19.3944C14.7479 19.4246 14.8082 19.4095 14.8384 19.3793C14.8535 19.3491 14.8686 19.334 14.8987 19.319C14.9591 19.2586 15.0496 19.2435 15.1401 19.2435L15.4871 19.2284C15.5776 19.2284 15.8492 19.1983 15.9246 19.1832H15.9397C15.9699 19.1832 16.0151 19.1681 16.0604 19.153C16.2263 19.1228 16.4224 19.0776 16.5733 19.153C16.7242 19.2284 16.7091 19.3944 16.694 19.5453C16.694 19.6056 16.6789 19.6659 16.6789 19.7263C16.6789 19.7565 16.6789 19.7866 16.6789 19.8168C16.6789 19.9526 16.6789 20.0733 16.6638 20.1638L16.6789 20.2392C16.6789 20.2392 16.6789 20.2392 16.6789 20.2543C16.694 20.3146 16.7694 20.3599 16.8147 20.3146C16.9354 20.2392 17.0561 20.1487 17.1013 20.0884V20.0733C17.1013 20.0582 17.1164 20.028 17.1315 19.9677C17.1466 19.8319 17.1767 19.5754 17.1767 19.0474C17.1767 19.0172 17.1767 19.0021 17.1767 18.9871C17.1767 18.7909 17.1767 18.625 17.1617 18.4892C17.1466 18.2026 17.1315 17.9763 17.2824 17.75C17.4181 17.5237 17.5539 17.4483 17.6897 17.3578C17.8405 17.2672 18.0065 17.1616 18.2931 16.7694C18.4289 16.5733 18.444 16.4978 18.4591 16.4375C18.4892 16.2866 18.5345 16.1961 18.7608 16.0452C18.9418 15.9095 19.4699 15.5021 20.194 15.6228C20.4354 15.6681 20.8125 15.7888 21.2048 15.9396C21.2199 15.9396 21.2349 15.9547 21.25 15.9547H21.2651C21.6121 16.0905 21.9289 16.2414 22.1552 16.3621C22.2005 16.3922 22.2608 16.3771 22.3061 16.3319C22.3815 16.2414 22.4569 16.1961 22.5324 16.1358C22.5625 16.1207 22.5927 16.1056 22.6078 16.0905C22.6229 16.0905 22.6229 16.0754 22.6229 16.0754C22.6832 16.0302 22.6832 15.9095 22.6078 15.8793C21.597 15.3815 20.6315 15.0797 20.3147 14.9892ZM13.0431 15.2155C12.8017 16.2414 11.2026 17.3879 10.4785 17.3879H10.4634C10.4483 17.3879 10.4332 17.3879 10.4332 17.3879C10.4181 17.3879 10.403 17.3879 10.388 17.3728C10.3729 17.3728 10.3729 17.3728 10.3578 17.3728C10.222 17.3276 10.041 17.2371 9.9052 17.1013C9.81468 17.0108 9.73925 16.8901 9.70908 16.7845C9.70908 16.7694 9.69399 16.7392 9.69399 16.7241C9.64873 16.5431 9.60347 16.3319 9.75434 15.9698C9.76942 15.9246 9.79959 15.8793 9.81468 15.834C9.81468 15.819 9.82977 15.8039 9.82977 15.7888C9.84485 15.7435 9.85994 15.7134 9.87503 15.6832C9.89011 15.6228 9.92028 15.5776 9.93537 15.5474C9.93537 15.5323 9.95046 15.5172 9.95046 15.5021C9.99571 15.3815 9.99571 15.3362 10.0108 15.2909C10.0108 15.2608 10.0259 15.2004 10.041 15.1401C10.0862 14.944 10.1164 14.778 10.1315 14.6422C10.1617 14.3858 10.2069 14.1595 10.3427 13.9483C10.3729 13.9181 10.388 13.8879 10.4181 13.8577C10.4332 13.8427 10.4332 13.8427 10.4483 13.8276C10.4634 13.8125 10.4634 13.8125 10.4785 13.7974C10.5086 13.7672 10.5539 13.7521 10.5841 13.7371C10.5992 13.7371 10.6142 13.722 10.6293 13.722C10.6595 13.7069 10.6897 13.7069 10.7199 13.6918C10.8556 13.6616 11.0065 13.6616 11.1875 13.6767C11.3836 13.6918 11.5647 13.722 11.7155 13.7672C11.8513 13.7974 11.972 13.8427 12.0625 13.8879C12.0776 13.8879 12.0776 13.903 12.0927 13.903C12.1078 13.9181 12.1229 13.9181 12.153 13.9332C12.1832 13.9483 12.1983 13.9483 12.2285 13.9634C12.2586 13.9784 12.2888 13.9935 12.319 14.0086L12.3492 14.0237C12.4548 14.069 12.5604 14.1293 12.6358 14.1896C12.6811 14.2198 12.7112 14.25 12.7414 14.2802C12.7565 14.2953 12.7716 14.2952 12.7716 14.3103C12.7867 14.3254 12.7867 14.3254 12.8017 14.3405C13.1186 14.6121 13.1035 14.9892 13.0431 15.2155ZM13.7974 11.3082L13.7673 11.4892C13.6918 11.9116 13.5259 12.4849 12.9224 12.6358C12.3341 12.7715 12.1983 12.8017 11.791 12.8319C11.7759 12.8319 11.7759 12.8319 11.7608 12.8319C11.4591 12.8319 10.8707 12.6358 10.7651 12.1681C10.7048 11.8664 10.8405 11.6401 11.0517 11.278C11.0819 11.2177 11.1272 11.1573 11.1724 11.0819C11.4742 10.584 11.5798 10.222 11.6703 9.93534C11.7608 9.6487 11.8362 9.42241 12.0324 9.22629C12.0776 9.18103 12.1229 9.13577 12.1832 9.10559C12.2134 9.07542 12.2586 9.06034 12.3039 9.03016C12.3642 8.99999 12.4246 8.98491 12.4849 8.95473C12.6207 8.90947 12.7716 8.89439 12.9074 8.89439C13.194 8.89439 13.4806 8.96982 13.6767 9.13577C13.7673 9.2112 13.903 9.34697 13.9785 9.78447C14.0086 10.0108 13.9483 10.4181 13.7974 11.3082ZM18.1272 12.5151C17.916 12.8771 17.8104 13.0733 17.6293 13.2241C17.2673 13.5259 16.8599 13.5862 16.513 13.5862C16.2716 13.5862 16.0604 13.5409 15.9246 13.5259C15.5625 13.4655 14.9138 13.3448 14.6875 12.8168C14.6423 12.7112 14.6423 12.6509 14.6423 12.5603C14.6423 12.4849 14.6423 12.334 14.597 12.0172V12.0021C14.5819 11.8513 14.5668 11.6853 14.597 11.4741V11.444C14.7177 10.8103 14.763 10.7198 14.778 10.6595C14.8384 10.5388 14.9892 10.4784 15.125 10.5539C15.2457 10.6142 15.291 10.7651 15.2457 10.8858C15.2306 10.9159 15.2005 11.0517 15.0949 11.5496V11.5797C15.0647 11.7155 15.0798 11.8211 15.0949 11.9569V11.972C15.1401 12.334 15.1401 12.4849 15.1401 12.5754C15.1401 12.5905 15.1401 12.6056 15.1401 12.6207V12.6358C15.1854 12.7414 15.2759 12.8017 15.3815 12.8621C15.4569 12.8922 15.5324 12.8319 15.5173 12.7565C15.4117 12.1983 15.4117 11.5496 15.6229 11.1422C15.6983 11.0065 15.819 10.7953 15.9397 10.584C15.9548 10.569 15.9699 10.5388 15.9699 10.5237C15.9849 10.5086 15.9849 10.4935 16 10.4784C16.0604 10.3879 16.1056 10.3125 16.1509 10.2371C16.1509 10.222 16.166 10.222 16.166 10.2069L16.1811 10.1918C16.1961 10.1767 16.1961 10.1616 16.2112 10.1465C16.2112 10.1465 16.2112 10.1315 16.2263 10.1315L16.2414 10.1164C16.2414 10.1013 16.2565 10.1013 16.2565 10.0862C16.3017 10.0259 16.347 9.96551 16.3772 9.90516C16.4375 9.82973 16.3621 9.73922 16.2867 9.76939C16.0755 9.85991 15.9397 9.96551 15.9095 9.9806C15.8039 10.0711 15.638 10.056 15.5474 9.93534C15.4569 9.82973 15.472 9.66378 15.5927 9.57327C15.7285 9.46766 16.4224 8.96982 17.2522 9.19611C17.8556 9.36206 18.1574 9.82973 18.278 9.99568C18.3686 10.1315 18.6703 10.5539 18.6552 11.1573C18.6552 11.5948 18.4742 11.9267 18.1272 12.5151Z" fill="white"/>
<path d="M12.7262 9.42249C12.681 9.52809 12.6357 9.64878 12.5754 9.78455C12.4547 10.1014 12.3038 10.4634 12.2284 10.5992C12.1077 10.8255 12.0172 10.9764 11.9417 11.082C11.8512 11.2177 11.7909 11.3233 11.7305 11.4742C11.64 11.7307 11.6249 12.0173 11.6853 12.3341C11.5193 12.319 11.2629 12.2134 11.2327 12.0626C11.2176 11.957 11.2779 11.8514 11.459 11.5346C11.4892 11.4742 11.5344 11.3988 11.5797 11.3384C11.8965 10.7953 12.0323 10.388 12.1228 10.0863C12.2284 9.76947 12.2736 9.63369 12.4396 9.513C12.5452 9.46774 12.6357 9.43757 12.7262 9.42249Z" fill="white"/>
<path d="M12.4096 20.8276C12.2286 21.1897 12.0174 21.5216 11.8816 21.6875C11.7609 21.3858 11.5648 20.6767 11.6252 20.1186C11.6252 20.1035 11.6252 20.0884 11.6252 20.0733C11.6402 19.8923 11.6855 19.7414 11.776 19.6056C11.8364 19.5151 11.9872 19.4698 12.1532 19.4698C12.2739 19.4698 12.4096 19.5 12.5303 19.5604C12.5907 19.5905 12.6812 19.666 12.6812 19.8621C12.7114 20.1336 12.5756 20.4957 12.4096 20.8276Z" fill="white"/>
<path d="M22.0647 16.7996C22.0798 16.8147 22.0798 16.8297 22.0798 16.8448C22.0346 16.9504 21.9591 17.0259 21.8837 17.1164C21.7932 17.222 21.6876 17.3427 21.5971 17.5388C21.4613 17.8103 21.416 18.0517 21.4009 18.6853C21.3708 19.4246 21.4009 19.8319 21.4311 20.1336C21.4462 20.4203 21.4613 20.6013 21.416 20.8879C21.3104 21.4612 21.069 21.8384 20.7522 22.3211C20.36 22.9246 19.9677 23.5431 19.304 23.7392C19.2436 23.7543 19.2436 23.7543 19.0626 23.7543C18.9117 23.7543 18.6552 23.7543 18.1876 23.7694C17.3126 23.7996 16.8751 23.8147 16.513 23.8901C16.1208 23.9655 15.9246 24.056 15.7134 24.1315C15.5324 24.2069 15.3665 24.2672 15.0496 24.3427C14.8535 24.3879 14.5669 24.4181 13.5863 24.4332C12.5604 24.4332 11.9419 24.4332 11.1423 24.3427C10.0259 24.222 9.46774 24.1466 9.09059 23.9504C8.21559 23.4828 7.83843 22.6379 7.23499 21.25C7.23499 21.2349 7.25007 21.2198 7.26516 21.2198C7.29533 21.2349 7.3255 21.25 7.35567 21.2651C7.38585 21.2802 7.41602 21.2802 7.43111 21.2802C7.49145 21.2953 7.5518 21.2953 7.61214 21.2802C7.62723 21.2802 7.62723 21.2802 7.64231 21.2651C7.6574 21.2651 7.67248 21.2651 7.67248 21.2802C7.71774 21.3858 7.77809 21.4763 7.88369 21.5366C7.9893 21.597 8.10999 21.597 8.21559 21.597C8.33628 21.597 8.45697 21.5819 8.57766 21.5668C8.638 21.5668 8.69835 21.597 8.72852 21.6422C8.83412 21.9138 8.9699 22.0948 9.18111 22.125C9.19619 22.125 9.21128 22.125 9.22636 22.125C9.27162 22.125 9.34705 22.1099 9.43757 22.0496C9.513 21.9892 9.63369 22.0345 9.69404 22.1099C9.7393 22.1853 9.79964 22.2306 9.85998 22.2759C10.0712 22.4871 10.5841 22.5927 11.0065 22.5927C11.2328 22.5927 11.444 22.5625 11.5647 22.5022C11.7458 22.4116 11.7458 22.2909 11.7307 22.2306C11.7156 22.1401 11.7005 22.0345 11.6854 21.944C11.6854 21.9289 11.7005 21.9289 11.7005 21.944C11.7307 22.0043 11.7608 22.0647 11.8363 22.0797C11.8514 22.0797 11.8514 22.0797 11.8665 22.0797C11.9871 22.0797 12.1682 22.125 12.1983 22.2306C12.2134 22.2909 12.2436 22.3362 12.2738 22.3966C12.3492 22.5022 12.485 22.6379 12.7716 22.653H12.7867C13.1186 22.653 13.3751 22.5474 13.541 22.3362C13.5561 22.3211 13.5561 22.306 13.5712 22.2909C13.6315 22.2004 13.8126 22.2004 13.888 22.2759C13.9785 22.3513 14.0841 22.3966 14.2048 22.3966C14.2199 22.3966 14.2501 22.3966 14.2652 22.3966C14.416 22.3815 14.5367 22.306 14.6423 22.1703C14.7027 22.0797 14.7479 21.9741 14.7781 21.8534C14.7932 21.8233 14.8384 21.8082 14.8686 21.8384C14.929 21.8987 15.0346 21.9591 15.1854 21.9591C15.2156 21.9591 15.2608 21.9591 15.3061 21.944C15.5927 21.8836 15.7436 21.6422 15.804 21.3858C15.804 21.3707 15.819 21.3707 15.819 21.3858C15.8945 21.4763 16.0302 21.5819 16.2565 21.5819C16.2716 21.5819 16.2867 21.5819 16.2867 21.5819C16.4074 21.5819 16.513 21.5216 16.5884 21.431C16.679 21.3103 16.7091 21.1293 16.7242 20.9634C16.7242 20.9181 16.7544 20.8728 16.8147 20.8427C17.0561 20.7371 17.3578 20.5108 17.4483 20.3599C17.4483 20.3599 17.4483 20.3448 17.4634 20.3448C17.4785 20.2996 17.5238 20.2694 17.554 20.2694C17.7501 20.2392 17.8255 20.194 17.9009 20.1638C17.9613 20.1336 18.0065 20.1185 18.1574 20.0884C19.2587 19.9224 19.4699 19.8772 19.7113 19.7263C20.0733 19.4849 20.0884 19.153 20.1035 18.8362C20.1186 18.5647 20.1337 18.2629 20.3449 17.9009C20.4203 17.7651 20.5108 17.6142 20.6014 17.4332C20.7673 17.1315 20.9936 16.7091 21.1596 16.4828C21.1897 16.4375 21.2501 16.4224 21.2953 16.4526C21.6725 16.5884 22.0044 16.7392 22.0647 16.7996Z" fill="white"/>
<path d="M11.3535 20.0884C11.3082 20.4656 11.278 20.9785 11.3384 21.6423C11.3535 21.8234 11.3836 22.0195 11.4138 22.2156C11.3686 22.2458 11.2026 22.291 10.9311 22.2759C10.5388 22.2609 10.1466 22.1703 10.0259 22.0346L10.0108 22.0195C9.92028 21.944 9.84485 21.8837 9.84485 21.7479C9.84485 21.7027 9.85994 21.6574 9.90519 21.582C9.93537 21.5518 9.96554 21.5065 9.99571 21.4462C10.0561 21.3557 10.1466 21.2501 10.2371 21.0992C10.4936 20.6768 10.5841 20.541 10.7048 20.3751C10.7198 20.36 10.7198 20.3449 10.7349 20.3298C10.8104 20.2393 10.8858 20.1186 11.0216 19.9225C11.1121 19.7867 11.1875 19.666 11.263 19.5755C11.3686 19.4246 11.444 19.3492 11.4892 19.304C11.4892 19.3643 11.4742 19.4548 11.4591 19.5453C11.3987 19.7264 11.3686 19.8923 11.3535 20.0884Z" fill="white"/>
<path d="M11.1573 14.1446C11.1573 14.1596 11.1573 14.1596 11.1573 14.1446C11.097 14.22 11.0366 14.3105 10.9612 14.4614C10.7651 14.8838 10.7651 15.1252 10.7651 15.3213C10.7651 15.4269 10.7651 15.5023 10.7349 15.5928C10.7198 15.6532 10.6896 15.7286 10.6444 15.804C10.5388 16.0605 10.3879 16.3924 10.4482 16.845C10.3577 16.7997 10.222 16.6941 10.1918 16.6489C10.1918 16.6187 10.1767 16.6036 10.1767 16.5734C10.1465 16.4377 10.1314 16.3471 10.2069 16.1359C10.4483 15.5928 10.4784 15.4571 10.4935 15.3062C10.4935 15.276 10.5086 15.2458 10.5086 15.2006C10.5539 14.9894 10.584 14.8083 10.5991 14.6575C10.6293 14.4312 10.6595 14.2803 10.7349 14.1747C10.7651 14.1295 10.8405 14.1144 10.9461 14.1144C10.9914 14.1144 11.0366 14.1144 11.097 14.1295H11.112C11.1573 14.1446 11.1573 14.1446 11.1573 14.1446Z" fill="white"/>
<path d="M10.8556 19.5303C10.8405 19.3945 10.8255 19.2738 10.7651 19.138C10.7651 19.138 10.75 19.1079 10.75 19.0928C10.7349 19.0777 10.7349 19.0626 10.7199 19.0475L10.7048 19.0324C10.6897 19.0173 10.6897 19.0173 10.6746 19.0173L10.6595 19.0023C10.6444 19.0023 10.6444 18.9872 10.6293 18.9872H10.6143C10.5388 18.957 10.4634 18.9268 10.3729 18.9117C10.3578 18.9117 10.3427 18.9117 10.3427 18.9117C10.3276 18.9117 10.3276 18.9117 10.3125 18.9117H10.2974C10.2824 18.9117 10.2673 18.9268 10.2371 18.9268C10.222 18.9268 10.222 18.9419 10.2069 18.9419L10.1918 18.957C10.1768 18.9721 10.1768 18.9721 10.1617 18.9872L10.1466 19.0023V19.0173C10.1164 19.0626 10.0862 19.1079 10.0561 19.1531C9.98063 19.2587 9.9052 19.3794 9.82977 19.485C9.75434 19.5906 9.694 19.6811 9.61856 19.7867C9.57331 19.8471 9.54313 19.8923 9.49787 19.9527C9.49787 19.9678 9.48279 19.9678 9.48279 19.9829C9.52805 19.9979 9.57331 19.998 9.61856 20.013C9.72417 20.0281 9.82977 20.0432 9.92029 20.0583C10.1315 20.0885 10.3578 20.1036 10.569 20.0885C10.5841 20.0885 10.5841 20.0885 10.5992 20.0885C10.6444 20.013 10.7199 19.9225 10.7953 19.8018C10.8405 19.7415 10.8858 19.6811 10.916 19.6208C10.8707 19.6057 10.8556 19.5604 10.8556 19.5303Z" fill="white"/>
<path d="M10.0863 20.4202C10.0712 20.5862 9.89017 21.0086 9.60354 21.4159C9.36216 21.7478 9.21129 21.8383 9.18112 21.8383C9.06043 21.8233 8.95483 21.5366 8.86431 21.25C8.83414 21.1293 8.78888 21.0237 8.77379 20.9181C8.71345 20.7069 8.69836 20.4052 8.71345 20.2241C8.95483 20.3599 9.37724 20.3901 9.98069 20.3901C10.0109 20.4052 10.0561 20.4052 10.0863 20.4202Z" fill="white"/>
<path d="M9.66376 19.0625C9.55816 19.2285 9.45256 19.3793 9.34695 19.5302C9.28661 19.6056 9.24135 19.6811 9.181 19.7565C9.15083 19.8018 9.10557 19.847 9.0754 19.8923C8.98488 19.8772 8.90945 19.847 8.81894 19.8319C8.74351 19.8168 8.68316 19.7867 8.60773 19.7565C8.59264 19.7565 8.57756 19.7414 8.56247 19.7414C8.54738 19.7263 8.5323 19.6962 8.51721 19.6811C8.54738 19.6358 8.56247 19.5755 8.59264 19.5302C8.6379 19.4397 8.68316 19.3492 8.74351 19.2587C8.83402 19.1078 8.93963 18.9418 9.10557 18.8362C9.12066 18.8362 9.12066 18.8212 9.13575 18.8212C9.19609 18.791 9.25644 18.7608 9.33187 18.7457C9.34695 18.7457 9.39221 18.7457 9.42238 18.7457H9.43747C9.43747 18.7457 9.43747 18.7457 9.45256 18.7457C9.46764 18.7457 9.48273 18.7608 9.5129 18.7608C9.5129 18.7608 9.52799 18.7608 9.52799 18.7759C9.54307 18.791 9.55816 18.791 9.57325 18.8061C9.54307 18.791 9.60342 18.8513 9.60342 18.8362C9.63359 18.9268 9.64868 18.972 9.66376 19.0625Z" fill="white"/>
<path d="M8.84913 18.6251C8.653 18.776 8.51723 18.9872 8.41163 19.2135C8.35128 19.3342 8.29094 19.4549 8.23059 19.5755C8.23059 19.5906 8.2155 19.6057 8.2155 19.6057C8.15516 19.5906 8.09481 19.5755 8.04956 19.5605C7.98921 19.5454 7.92887 19.5152 7.86852 19.5001C7.83835 19.485 7.82326 19.4699 7.79309 19.4549C7.85344 19.3493 7.91378 19.2436 7.98921 19.138C8.07973 19.0023 8.18533 18.8514 8.29094 18.7307C8.33619 18.6855 8.38145 18.6251 8.42671 18.5949C8.48706 18.5648 8.5474 18.5648 8.62283 18.5799C8.69826 18.5799 8.77369 18.5799 8.83404 18.61C8.81895 18.61 8.83404 18.6251 8.84913 18.6251Z" fill="white"/>
<path d="M8.54738 21.1896C8.5323 21.2047 8.5323 21.2047 8.51721 21.2198H8.50212C8.45686 21.2198 8.41161 21.2349 8.36635 21.2349C8.27583 21.2349 8.18531 21.25 8.0948 21.2349C8.04954 21.2349 8.00428 21.2198 7.97411 21.1896C7.94393 21.1444 7.92885 21.0538 7.91376 20.9935C7.85342 20.6616 7.85342 20.3297 7.88359 19.9978C8.04954 20.0581 8.23057 20.1034 8.41161 20.1336C8.36635 20.4353 8.44178 20.8728 8.47195 20.9935C8.51721 21.0538 8.5323 21.1293 8.54738 21.1896Z" fill="white"/>
<path d="M8.00424 18.5194C7.85338 18.7004 7.7176 18.8965 7.59692 19.1077C7.55166 19.1832 7.49131 19.2737 7.44605 19.3642C7.38571 19.3491 7.32536 19.319 7.2801 19.2888C7.23485 19.2586 7.18959 19.2284 7.15942 19.1983C7.14433 19.1832 7.11416 19.1681 7.09907 19.153C7.09907 19.153 7.08398 19.153 7.08398 19.1379C7.09907 19.0927 7.12924 19.0625 7.12924 19.0323C7.15942 18.9569 7.18959 18.8965 7.23485 18.8362C7.31028 18.7155 7.38571 18.5948 7.47623 18.4741C7.5064 18.4289 7.53657 18.3836 7.59692 18.3685C7.64217 18.3534 7.70252 18.3685 7.74778 18.3685C7.83829 18.3836 7.92881 18.444 8.00424 18.5194Z" fill="white"/>
<path d="M6.8427 19.3189C6.8427 19.3038 6.85779 19.3038 6.8427 19.3189C6.90304 19.3793 6.9483 19.4245 7.00865 19.4698C7.03882 19.4849 7.05391 19.5151 7.08408 19.5301C7.08408 19.5301 7.08408 19.5301 7.08408 19.5452C7.02373 19.8017 6.97848 20.0732 6.97848 20.3448C6.97848 20.3599 6.96339 20.3599 6.96339 20.3448C6.88796 20.028 6.79744 19.5151 6.8427 19.3189Z" fill="white"/>
<path d="M7.58186 19.8772C7.55169 20.1035 7.53661 20.3297 7.55169 20.556C7.55169 20.6767 7.56678 20.7974 7.58186 20.9332C7.55169 20.9332 7.52152 20.9332 7.49135 20.9332H7.47626H7.46117C7.431 20.9181 7.431 20.9181 7.40083 20.903C7.37066 20.8879 7.34048 20.8427 7.31031 20.7974C7.24997 20.6918 7.23488 20.5711 7.23488 20.4504C7.2198 20.2241 7.24997 19.9828 7.29523 19.7565C7.3254 19.7716 7.37066 19.7866 7.41592 19.8017C7.47626 19.8319 7.52152 19.8621 7.58186 19.8772Z" fill="white"/>
<mask id="mask0_26_7378" style="mask-type:luminance" maskUnits="userSpaceOnUse" x="2" y="2" width="28" height="28">
<path d="M30 16C30 8.26078 23.7241 2 16 2C8.26078 2 2 8.26078 2 16C2 23.7241 8.26078 30 16 30C23.7241 30 30 23.7241 30 16Z" fill="white"/>
</mask>
<g mask="url(#mask0_26_7378)">
<g opacity="0.8">
<path opacity="0.8" d="M13.5259 31.6445C12.5001 31.6445 11.5346 31.5841 10.7199 31.5238L10.4936 31.5087L10.2673 31.4785C10.1617 31.4634 10.041 31.4484 9.90524 31.4333C9.12076 31.3428 7.6574 31.1919 6.04318 30.4376L5.78671 30.3169L5.56042 30.1811C2.45266 28.4311 1.30611 25.8212 0.672487 24.4182C0.627228 24.3277 0.58197 24.2221 0.536711 24.1165C0.219901 23.4678 0.02378 22.8945 -0.142168 22.3514L-0.172341 22.2307L-0.202513 22.11C-0.655099 20.5109 -0.760703 19.138 -0.564582 17.7652C-0.353375 16.3923 0.14447 15.1553 1.03456 13.8428L1.48714 13.1035C1.57766 12.9527 1.638 12.7867 1.68326 12.6208C2.03025 10.901 2.81473 9.67897 3.20697 9.09061C3.31257 8.38155 3.49361 7.68759 3.73499 7.00871L3.76516 6.90311L3.81042 6.7975C3.81042 6.78242 3.8255 6.75224 3.84059 6.70699C4.02162 6.17897 4.42895 4.95698 5.4699 3.65957L5.86214 3.20698L6.26947 2.84492C7.29533 1.90957 8.5324 1.21561 9.85999 0.823364C10.5992 0.597071 11.3686 0.461295 12.1531 0.416037H12.2285H12.3341C12.4699 0.416037 12.6057 0.40095 12.7264 0.40095C13.2091 0.40095 13.6919 0.446209 14.1746 0.52164C14.4764 0.566899 14.7781 0.536726 15.0647 0.416037C15.8945 0.0690539 16.7544 -0.157239 17.6445 -0.277929C17.7199 -0.293015 17.7802 -0.293015 17.8406 -0.308101C17.9764 -0.323187 18.2027 -0.35336 18.4742 -0.383532C18.9419 -0.428791 19.666 -0.489136 20.4354 -0.489136C21.9591 -0.489136 23.2716 -0.293015 24.4483 0.114313L24.5539 0.144485L24.6445 0.174657C27.2393 1.15526 28.5518 2.52811 29.5022 3.71992L29.5475 3.78026L29.6833 3.90095C30.5432 4.56474 31.2673 5.39448 31.8406 6.31474L32.0216 6.60138L32.1725 6.90311C33.4397 9.48285 33.0324 11.8816 32.8815 12.7716L32.8664 12.8169C32.7608 13.4807 32.5798 14.1294 32.3535 14.763C32.263 15.3665 32.1272 15.9699 31.9311 16.5432C31.5992 17.5691 31.1014 18.5497 30.4677 19.4247C30.1057 19.9376 29.6833 20.4354 29.2307 20.8729C29.0647 21.0238 28.9591 21.235 28.9289 21.4613C28.9139 21.5971 28.8837 21.7328 28.8686 21.8686C28.4915 23.86 27.6315 25.2479 27.2695 25.8061L26.1983 27.3449C24.9009 28.9591 23.3621 30.0152 21.5065 30.5885L21.054 30.7242L20.5712 30.8147C20.013 30.9203 19.4548 30.9656 18.8815 30.9656C18.8061 30.9656 18.7307 30.9656 18.6402 30.9656H18.61H18.5195H18.4139C18.2027 30.9656 17.9915 31.0109 17.7802 31.0712C16.5432 31.4634 15.1854 31.6445 13.5259 31.6445Z" stroke="url(#paint1_linear_26_7378)" stroke-width="1.0554" stroke-miterlimit="10"/>
<path opacity="0.8" d="M13.5259 30.5733C12.5453 30.5733 11.5948 30.513 10.8104 30.4526L10.6293 30.4376L10.4483 30.4074C10.3276 30.3923 10.1918 30.3772 10.056 30.3621C9.28665 30.2867 8.01941 30.1358 6.6013 29.472L6.3901 29.3664L6.19397 29.2608C3.4332 27.7371 2.42242 25.4591 1.81897 24.1013C1.77372 24.0108 1.72846 23.8901 1.66811 23.7845C1.38147 23.2113 1.20044 22.6682 1.04958 22.1854L1.01941 22.0798L0.989233 21.9893C0.596992 20.5561 0.491389 19.3492 0.672423 18.1574C0.853458 16.9807 1.30604 15.8794 2.09053 14.7328L2.67889 13.7824C2.78449 13.6164 2.85992 13.4203 2.8901 13.2242C3.17673 11.5949 3.94613 10.4483 4.29311 9.92031L4.33837 9.85997L4.35346 9.8298C4.35346 9.81471 4.36854 9.79962 4.36854 9.78454C4.38363 9.70911 4.4138 9.64876 4.42889 9.58842C4.51941 8.92462 4.68535 8.26083 4.91165 7.62721L4.94182 7.53669L4.97199 7.44618C4.98708 7.416 4.98708 7.38583 5.01725 7.29531C5.1832 6.79747 5.53018 5.75652 6.43535 4.64014L6.76725 4.2479L7.09915 3.94618C7.98923 3.13152 9.06035 2.52807 10.2069 2.19618C10.8707 2.00005 11.5345 1.87937 12.2285 1.84919H12.2888H12.3793C12.5 1.84919 12.6056 1.83411 12.7112 1.83411C13.2091 1.83411 13.6918 1.69833 14.1746 1.78885C14.5517 1.86428 14.9289 1.81902 15.2759 1.66816C15.9246 1.38152 16.7996 1.27592 17.7953 1.14014C17.8707 1.12505 17.931 1.12505 17.9763 1.10997C18.1121 1.09488 18.3233 1.06471 18.5647 1.04962C19.0022 1.00437 19.681 0.959106 20.4203 0.959106C21.8082 0.959106 22.9849 1.14014 24.0259 1.48712L24.1164 1.5173L24.1918 1.54747C26.4849 2.42247 27.6164 3.56902 28.5065 4.70049C28.5517 4.76083 28.6121 4.82118 28.6272 4.85135L28.6423 4.86643L28.8082 5.0173L28.8233 5.04747C29.5927 5.63583 30.2414 6.35997 30.7392 7.17462L30.8901 7.416L31.0108 7.67247C32.097 9.89014 31.7651 11.9268 31.6142 12.7867L31.5991 12.832C31.4935 13.4656 31.3276 14.069 31.1013 14.6725C31.0259 15.2457 30.8901 15.819 30.7091 16.3621C30.4073 17.2673 29.9698 18.1272 29.4116 18.9117C29.0345 19.4548 28.5819 19.9526 28.0991 20.3901C27.8729 20.6013 27.722 20.8729 27.6918 21.1897C27.6616 21.416 27.6315 21.6272 27.6013 21.8535C27.2694 23.6186 26.5151 24.8255 26.153 25.3686L25.278 26.6358C24.1164 28.1294 22.7435 29.0949 21.0841 29.6078L20.7069 29.7285L20.2996 29.8039C19.8168 29.8945 19.319 29.9397 18.8362 29.9246C18.7608 29.9246 18.6854 29.9246 18.6099 29.9246H18.5948H18.5496C18.5496 29.9246 18.5345 29.9246 18.5043 29.9246H18.4138H18.3233H18.1573C17.931 29.9397 17.7048 29.9699 17.4785 30.0453C16.3772 30.4074 15.0948 30.5733 13.5259 30.5733Z" stroke="url(#paint2_linear_26_7378)" stroke-width="1.0554" stroke-miterlimit="10"/>
<path opacity="0.8" d="M13.5258 29.3211C12.5905 29.3211 11.6702 29.2608 10.9008 29.2004L10.7499 29.1853L10.5991 29.1702C10.4633 29.1551 10.3124 29.1401 10.1616 29.125C9.43744 29.0495 8.33615 28.9289 7.09908 28.3405L6.93313 28.2651L6.78227 28.1745C4.41373 26.847 3.53873 24.8858 2.96546 23.5883C2.9202 23.4827 2.85986 23.347 2.8146 23.2414C2.55813 22.7284 2.39218 22.2457 2.25641 21.7931L2.22624 21.7176L2.21115 21.6422C1.86417 20.4051 1.77365 19.3491 1.92451 18.3534C2.07537 17.3426 2.4827 16.3922 3.17667 15.3814L3.26718 15.2608L3.3577 15.1401C3.41805 15.0646 3.4633 14.9892 3.52365 14.9289L3.87063 14.2801C3.99132 14.0689 4.06675 13.8426 4.09692 13.6013C4.32322 12.153 5.01718 11.112 5.33399 10.6293C5.34908 10.5991 5.37925 10.5689 5.39434 10.5539L5.46977 10.4483C5.49994 10.3879 5.53011 10.3125 5.56029 10.222C5.59046 10.1314 5.63572 9.99566 5.66589 9.87497C5.74132 9.25644 5.89218 8.65299 6.10339 8.06463L6.13356 7.9892L6.16374 7.91377C6.17882 7.85342 6.20899 7.80816 6.23917 7.70256C6.39003 7.23489 6.67667 6.37497 7.44606 5.43963L7.70253 5.12282L7.97408 4.88144C8.72839 4.18747 9.63356 3.68963 10.6142 3.38791C11.1874 3.22196 11.7607 3.11635 12.3642 3.08618H12.4094H12.4849C12.5754 3.08618 12.6659 3.08618 12.7715 3.08618C13.2844 3.08618 13.7823 3.14653 14.2801 3.2823C14.7025 3.38791 15.1551 3.34265 15.5474 3.14653C16.181 2.8448 17.0258 2.51291 18.0064 2.39222C18.0668 2.37713 18.1271 2.37713 18.1724 2.36204C18.293 2.34696 18.4892 2.31679 18.7305 2.3017C19.1379 2.25644 19.7866 2.21118 20.4655 2.21118C21.7025 2.21118 22.7435 2.36204 23.6637 2.67885L23.7241 2.70903L23.7844 2.7392C25.8965 3.53877 26.8318 4.57972 27.556 5.49997C27.7219 5.6961 27.737 5.72627 27.8426 5.83187L27.9784 5.95256L28.0236 6.01291C28.3706 6.28446 29.0797 6.84265 29.6982 7.85342L29.8189 8.04954L29.9245 8.24566C30.8448 10.1013 30.5581 11.7909 30.4224 12.6056L30.4073 12.6508C30.3168 13.2392 30.1508 13.8276 29.9094 14.3858V14.431C29.8491 14.959 29.7284 15.487 29.5624 15.9849C29.306 16.7845 28.9288 17.5237 28.431 18.2026C28.0236 18.7909 27.5258 19.3189 26.9676 19.7715C26.8318 19.8771 26.7262 20.0129 26.6508 20.1638C26.5754 20.3146 26.5301 20.4806 26.515 20.6465C26.4999 20.9784 26.4547 21.3103 26.3943 21.6422C26.1077 23.1659 25.4439 24.222 25.112 24.75L24.4331 25.7457C23.4224 27.1034 22.2155 27.9784 20.7521 28.431L20.4504 28.5215L20.1185 28.5819C19.7111 28.6573 19.2887 28.6875 18.8663 28.6875C18.806 28.6875 18.7305 28.6875 18.6551 28.6875H18.64H18.5646C18.5495 28.6875 18.5193 28.6875 18.4439 28.6875H18.3685H18.3081L17.9611 28.7026C17.7198 28.7176 17.4784 28.7478 17.2521 28.8383C16.2111 29.1702 15.0193 29.3211 13.5258 29.3211Z" stroke="url(#paint3_linear_26_7378)" stroke-width="0.9894" stroke-miterlimit="10"/>
<path opacity="0.8" d="M13.5258 28.069C12.6358 28.069 11.7457 28.0087 11.0064 27.9483L10.9008 27.9332L10.7952 27.9182C10.6444 27.9031 10.4784 27.8729 10.3276 27.8578C9.64869 27.7824 8.71335 27.6768 7.65731 27.194L7.53662 27.1337L7.41593 27.0733C5.40947 25.9419 4.67024 24.2824 4.12714 23.0755C4.06679 22.9548 4.00645 22.819 3.96119 22.6983C3.7349 22.2306 3.58404 21.7931 3.46335 21.416L3.44826 21.3557L3.403 21.3104C2.81464 19.2285 3.04093 17.7651 4.18748 16.0906L4.24783 16L4.30817 15.9095C4.3836 15.819 4.45904 15.7134 4.53447 15.6229C4.64007 15.4871 4.74567 15.3363 4.86636 15.2005C4.94179 15.11 5.00214 15.0044 5.0474 14.8988L5.18317 14.5669C5.24352 14.416 5.27369 14.2651 5.28878 14.1143C5.40947 12.7716 6.05817 11.8061 6.37498 11.3233C6.40516 11.2931 6.43533 11.2328 6.45042 11.2177L6.52585 11.097L6.55602 11.0669C6.60128 10.9914 6.67671 10.8104 6.73705 10.6294C6.76723 10.5087 6.82757 10.3125 6.88792 10.1466V10.1315C6.94826 9.57332 7.08404 9.01513 7.28016 8.48712L7.29524 8.44186L7.31033 8.3966C7.3405 8.30608 7.37067 8.23065 7.40085 8.12505C7.53662 7.71772 7.76292 7.02375 8.38145 6.25436L8.57757 6.01298L8.77369 5.83194C10.2371 4.50436 11.8664 4.39875 12.4095 4.35349H12.4396H12.5C12.5754 4.35349 12.6508 4.35349 12.7263 4.35349C13.375 4.35349 14.0086 4.48927 14.6121 4.74574C14.7177 4.79099 14.8383 4.80608 14.9439 4.80608C15.0646 4.80608 15.1702 4.77591 15.2758 4.71556C15.834 4.39875 16.8448 3.81039 18.1422 3.65953C18.2026 3.64444 18.2629 3.64444 18.3082 3.64444C18.4289 3.62936 18.6099 3.61427 18.8211 3.5841C19.2133 3.55393 19.8017 3.50867 20.4353 3.50867C21.5366 3.50867 22.4418 3.64444 23.2112 3.90091L23.2564 3.91599L23.3017 3.93108C25.1121 4.60996 25.8814 5.46987 26.5302 6.28453C26.6961 6.51082 26.7866 6.60134 26.9677 6.78237L27.0733 6.87289L27.1487 6.96341L27.209 7.00867C27.5108 7.25005 28.084 7.68755 28.597 8.51729L28.6875 8.66815L28.7629 8.81901C29.5021 10.3276 29.2608 11.6854 29.1401 12.4095V12.4548C29.0496 12.9828 28.8987 13.5108 28.6875 14.0087L28.6724 14.0539C28.6724 14.069 28.6724 14.069 28.6573 14.0992C28.6422 14.1444 28.6422 14.1897 28.6422 14.235L28.6271 14.2953C28.5819 14.7479 28.4763 15.1854 28.3254 15.6078C28.0991 16.2867 27.7823 16.9203 27.3599 17.4936C26.9526 18.0819 26.4849 18.5647 25.972 18.9419C25.7457 19.1078 25.5646 19.319 25.4289 19.5755C25.2931 19.8319 25.2327 20.1035 25.2327 20.3901C25.2327 20.7371 25.1875 21.0992 25.1271 21.4462C24.8858 22.7436 24.3427 23.6186 23.9957 24.1466L23.4978 24.8858C22.6228 26.1078 21.5819 26.8923 20.3297 27.2845L20.2694 27.2996C20.1638 27.3298 20.0582 27.36 19.9526 27.375L19.8771 27.3901C19.5302 27.4505 19.1832 27.4806 18.8362 27.4806C18.7758 27.4806 18.7155 27.4806 18.6552 27.4806H18.6401C18.6099 27.4806 18.5797 27.4806 18.5496 27.4806C18.5194 27.4806 18.459 27.4806 18.3383 27.4806H18.2931H18.2478C18.0819 27.4806 17.8707 27.4957 17.6896 27.4957C17.4332 27.5108 17.1918 27.5561 16.9504 27.6466C16.0452 27.9181 14.9439 28.069 13.5258 28.069Z" stroke="url(#paint4_linear_26_7378)" stroke-width="0.9235" stroke-miterlimit="10"/>
<path opacity="0.8" d="M13.5259 26.8168C12.666 26.8168 11.8212 26.7565 11.097 26.6962H11.0216L10.9462 26.6811C10.7802 26.6509 10.5992 26.6358 10.4332 26.6207C9.79962 26.5453 9.01514 26.4699 8.17031 26.0625L8.07979 26.0173L8.00436 25.972C6.35997 25.0518 5.74143 23.6638 5.25867 22.5475C5.19833 22.4117 5.13798 22.2759 5.07764 22.125C4.88152 21.7328 4.74574 21.3406 4.64014 21.0087L4.62505 20.9634L4.60997 20.9181C4.12721 19.1983 4.29316 18.1121 5.2285 16.7543L5.27376 16.694L5.31902 16.6337C5.39445 16.5281 5.46988 16.4375 5.54531 16.3319C5.78669 16.0151 6.02807 15.6983 6.37505 15.3212C6.45048 15.2457 6.49574 15.125 6.51083 15.0194L6.52592 14.6725L6.51083 14.5367V14.4009C6.541 13.2845 7.09919 12.4548 7.40092 12.0022C7.43109 11.9569 7.47635 11.8966 7.49143 11.8664L7.53669 11.791L7.58195 11.7306C7.64229 11.6401 7.77807 11.3233 7.89876 11.0367C7.94402 10.916 8.00436 10.6746 8.07979 10.4785C8.09488 10.4181 8.09488 10.4031 8.10997 10.2673C8.15523 9.79961 8.27592 9.33193 8.42678 8.89443L8.44186 8.86426L8.45695 8.83409C8.50221 8.7134 8.53238 8.62288 8.57764 8.50219C8.69833 8.14012 8.87936 7.61211 9.34704 7.02374L9.48281 6.8578L9.61859 6.73711C10.6444 5.81685 11.7457 5.63581 12.5001 5.59055H12.5302H12.5604C12.6207 5.59055 12.666 5.59055 12.7263 5.59055C13.36 5.59055 14.1294 5.89228 14.5367 6.0884C14.6272 6.13366 14.7328 6.16383 14.8384 6.16383C14.944 6.16383 15.0496 6.14874 15.1552 6.11857C15.4117 6.02805 15.6531 5.92245 15.8794 5.80176C16.3923 5.50004 17.2371 5.01728 18.2932 4.89659C18.3535 4.8815 18.3988 4.8815 18.444 4.8815C18.5496 4.86642 18.7156 4.85133 18.9268 4.82116C19.2888 4.79099 19.832 4.74573 20.4203 4.74573C21.3707 4.74573 22.1552 4.85133 22.7888 5.07762L22.819 5.09271L22.8492 5.1078C24.3578 5.68107 24.9613 6.32978 25.5345 7.069C25.7156 7.31038 25.8513 7.47633 26.1229 7.71771L26.1832 7.77805L26.2436 7.8384C26.3039 7.89874 26.3643 7.944 26.4246 7.98926C26.6811 8.18538 27.1186 8.53237 27.4957 9.16599L27.5561 9.2565L27.6013 9.36211C28.1595 10.4936 27.9785 11.5647 27.8729 12.1983V12.2436C27.7975 12.6811 27.6768 13.1035 27.4957 13.5108C27.4505 13.6164 27.4203 13.722 27.3901 13.8427C27.3751 13.9181 27.36 13.9936 27.36 14.0539L27.3449 14.1143C27.2996 14.4763 27.2242 14.8384 27.1035 15.1854C26.9225 15.7436 26.6509 16.2716 26.319 16.7393C25.8061 17.4634 25.2177 17.9763 24.5087 18.3082C24.3427 18.3837 24.1919 18.5043 24.0863 18.6703C23.9807 18.8212 23.9203 19.0173 23.9052 19.1983C23.9052 19.2737 23.9052 19.3341 23.9052 19.3793C23.9354 19.9225 23.9807 20.541 23.86 21.1897C23.6638 22.2457 23.2113 22.9548 22.8794 23.4828C22.8794 23.4828 21.3406 25.625 19.9376 26.0625L19.7867 26.1078L19.6207 26.138C19.3492 26.1832 19.0776 26.2134 18.791 26.2134C18.7457 26.2134 18.6854 26.2134 18.6251 26.2134C18.5949 26.2134 18.5496 26.2134 18.5044 26.2134C18.444 26.2134 18.3535 26.2134 18.2177 26.2285H18.1876H18.1574C17.6143 26.2436 17.1164 26.2587 16.9656 26.2888C16.8901 26.3039 16.8147 26.319 16.7393 26.3492C16.0001 26.666 14.9591 26.8168 13.5259 26.8168Z" stroke="url(#paint5_linear_26_7378)" stroke-width="0.8575" stroke-miterlimit="10"/>
<path opacity="0.8" d="M13.526 25.5796C12.7113 25.5796 11.8966 25.5193 11.2027 25.474H11.1725H11.1423C10.9462 25.4438 10.7652 25.4288 10.5992 25.4137C10.0109 25.3533 9.39233 25.2779 8.72854 24.9762L8.68328 24.9611L8.63802 24.946C7.3557 24.2219 6.87294 23.1507 6.42035 22.1098C6.36001 21.9589 6.28458 21.8081 6.20914 21.6572C6.05828 21.3555 5.93759 21.0236 5.84708 20.7068V20.6917V20.6766C5.45483 19.3038 5.56044 18.6098 6.28458 17.5538L6.29966 17.5236L6.31475 17.4934C6.40527 17.3878 6.4807 17.2822 6.55613 17.1917C6.90311 16.7391 7.20483 16.3469 7.88371 15.7132C7.92897 15.668 7.97423 15.6076 7.98932 15.5322C8.0044 15.4719 8.0044 15.3964 7.97423 15.3361L7.85354 14.9891C7.82337 14.8835 7.80828 14.7628 7.80828 14.6572V14.5667V14.4913C7.83846 13.737 8.2307 13.1486 8.48716 12.7564C8.53242 12.696 8.56259 12.6357 8.59277 12.5904L8.62294 12.5451L8.65311 12.4999C8.78889 12.3189 9.01518 11.7908 9.13587 11.474C9.16604 11.3684 9.24147 11.112 9.3169 10.9158C9.36216 10.765 9.39233 10.6141 9.40742 10.4632C9.45268 10.0861 9.52811 9.70894 9.66389 9.36195V9.34687V9.33178C9.72423 9.18092 9.76949 9.06023 9.79966 8.93954C9.90527 8.62273 10.026 8.26066 10.3579 7.85333L10.4182 7.7779L10.4785 7.71756C11.2027 7.05377 12.0022 6.93308 12.6057 6.88782H12.6208H12.6359C12.666 6.88782 12.7113 6.88782 12.7415 6.88782C13.3449 6.88782 13.7975 7.1292 14.0992 7.29514L14.1747 7.32532H14.1897C14.2803 7.37058 14.3406 7.41583 14.416 7.44601C14.5971 7.53652 14.8234 7.5667 15.0195 7.50635C15.4419 7.40075 16.0906 7.14428 16.513 6.9029H16.5281C16.9807 6.63135 17.6747 6.23911 18.4893 6.14859C18.5346 6.13351 18.5949 6.13351 18.6402 6.13351C18.7307 6.11842 18.8966 6.10333 19.0777 6.08825C19.4096 6.05808 19.9225 6.01282 20.4505 6.01282C21.2652 6.01282 21.9139 6.10333 22.4117 6.26928H22.4268H22.4419C23.6488 6.72187 24.1014 7.20463 24.5841 7.83825C24.7803 8.09471 24.9764 8.33609 25.3385 8.6529L25.3686 8.68308L25.3988 8.71325C25.4893 8.80377 25.5949 8.89428 25.7156 8.9848C25.9268 9.15075 26.2285 9.37704 26.485 9.81454L26.5152 9.8598L26.5454 9.90506C26.9225 10.6895 26.8018 11.4288 26.7113 11.987V12.0322C26.651 12.3792 26.5604 12.7111 26.4096 13.043C26.3341 13.224 26.2738 13.4201 26.2436 13.6163C26.2285 13.737 26.2135 13.8275 26.1984 13.9029L26.1833 13.9632C26.1531 14.2499 26.0928 14.5214 26.0022 14.793C25.8665 15.2305 25.6553 15.6378 25.3837 16.015C24.9311 16.6788 24.4182 17.0861 23.7393 17.2973C23.4074 17.4029 23.1359 17.6141 22.9548 17.9007L22.8945 17.9762L22.8341 18.0516C22.6682 18.2477 22.7135 19.002 22.7436 19.4546C22.7738 19.9525 22.804 20.4654 22.7135 20.9482C22.5626 21.7779 22.2005 22.3361 21.8837 22.8189C21.8837 22.8189 20.707 24.5236 19.6359 24.8404L19.5604 24.8706L19.485 24.8857C19.2889 24.9158 19.0777 24.946 18.8665 24.946C18.8212 24.946 18.776 24.946 18.7156 24.946C18.6704 24.946 18.6251 24.946 18.5647 24.946C18.4893 24.946 18.3837 24.946 18.2027 24.9611H18.1876H18.1725C17.4635 24.9913 17.026 25.0064 16.7846 25.0516C16.6186 25.0818 16.4678 25.127 16.3169 25.1874C15.6682 25.4438 14.7932 25.5796 13.526 25.5796Z" stroke="url(#paint6_linear_26_7378)" stroke-width="0.8575" stroke-miterlimit="10"/>
</g>
</g>
<defs>
<radialGradient id="paint0_radial_26_7378" cx="0" cy="0" r="1" gradientUnits="userSpaceOnUse" gradientTransform="translate(16.0005 17.4626) rotate(90) scale(15.7267)">
<stop offset="0.1667" stop-color="#073183"/>
<stop offset="1" stop-color="#0054F9"/>
</radialGradient>
<linearGradient id="paint1_linear_26_7378" x1="0.0394395" y1="-1.14763" x2="32.1169" y2="32.5195" gradientUnits="userSpaceOnUse">
<stop offset="0.2057" stop-color="#89D0FF"/>
<stop offset="0.3984" stop-color="#EBBF9A"/>
<stop offset="0.6015" stop-color="#EB8280"/>
<stop offset="0.8411" stop-color="#A281FF"/>
</linearGradient>
<linearGradient id="paint2_linear_26_7378" x1="1.28326" y1="0.300941" x2="30.8552" y2="31.4653" gradientUnits="userSpaceOnUse">
<stop offset="0.2057" stop-color="#89D0FF"/>
<stop offset="0.3984" stop-color="#EBBF9A"/>
<stop offset="0.6015" stop-color="#EB80DA"/>
<stop offset="0.8411" stop-color="#A281FF"/>
</linearGradient>
<linearGradient id="paint3_linear_26_7378" x1="2.5395" y1="1.55336" x2="29.6053" y2="30.2144" gradientUnits="userSpaceOnUse">
<stop offset="0.2057" stop-color="#89D0FF"/>
<stop offset="0.3984" stop-color="#EBBF9A"/>
<stop offset="0.6015" stop-color="#EB8280"/>
<stop offset="0.8411" stop-color="#A281FF"/>
</linearGradient>
<linearGradient id="paint4_linear_26_7378" x1="3.79413" y1="2.81028" x2="28.3483" y2="28.9602" gradientUnits="userSpaceOnUse">
<stop offset="0.2057" stop-color="#89D0FF"/>
<stop offset="0.3984" stop-color="#EBBF9A"/>
<stop offset="0.6015" stop-color="#EB80E7"/>
<stop offset="0.8411" stop-color="#A281FF"/>
</linearGradient>
<linearGradient id="paint5_linear_26_7378" x1="5.04146" y1="4.06953" x2="27.0887" y2="27.7063" gradientUnits="userSpaceOnUse">
<stop offset="0.2057" stop-color="#89D0FF"/>
<stop offset="0.3984" stop-color="#EBBF9A"/>
<stop offset="0.6015" stop-color="#EB80D3"/>
<stop offset="0.8411" stop-color="#A281FF"/>
</linearGradient>
<linearGradient id="paint6_linear_26_7378" x1="6.30497" y1="5.3135" x2="25.8431" y2="26.4468" gradientUnits="userSpaceOnUse">
<stop offset="0.2057" stop-color="#89D0FF"/>
<stop offset="0.3984" stop-color="#EBBF9A"/>
<stop offset="0.6015" stop-color="#A280EB"/>
<stop offset="0.8411" stop-color="#A281FF"/>
</linearGradient>
</defs>
</svg>
