<svg width="32" height="32" viewBox="0 0 32 32" fill="none" xmlns="http://www.w3.org/2000/svg">
<rect width="32" height="32" rx="6" fill="#1A1B22"/>
<path d="M29.5814 19.3889C27.7113 26.8898 20.1137 31.4543 12.6119 29.5842C5.11363 27.7142 0.548682 20.1165 2.4192 12.6161C4.28842 5.1143 11.8856 0.54891 19.3852 2.419C26.8865 4.28908 31.4515 11.8876 29.5814 19.3889Z" fill="#F7931A"/>
<path d="M22.1737 14.007C22.452 12.1439 21.0334 11.1424 19.0938 10.4742L19.723 7.95046L18.1863 7.56761L17.5737 10.0249C17.1703 9.92425 16.7555 9.8293 16.3433 9.73523L16.9603 7.26176L15.4249 6.87891L14.7953 9.40182C14.461 9.32568 14.1328 9.25042 13.8143 9.17123L13.816 9.16335L11.6974 8.63435L11.2888 10.2752C11.2888 10.2752 12.4286 10.5364 12.4045 10.5526C13.0267 10.7079 13.1396 11.1196 13.1203 11.446L12.4036 14.3212C12.4465 14.3321 12.5021 14.3479 12.5633 14.3724L12.4015 14.3321L11.3964 18.3598C11.3203 18.5488 11.1273 18.8323 10.6924 18.7247C10.7077 18.747 9.57576 18.446 9.57576 18.446L8.81311 20.2049L10.8127 20.7033C11.1846 20.7965 11.5491 20.894 11.9075 20.9859L11.2717 23.539L12.8062 23.9219L13.4363 21.3964C13.855 21.5101 14.2619 21.6151 14.6601 21.714L14.0326 24.2277L15.5689 24.6106L16.2046 22.0627C18.8242 22.5585 20.7945 22.3585 21.6228 19.9896C22.2909 18.0819 21.59 16.9815 20.2117 16.2635C21.2154 16.0311 21.972 15.3709 22.1737 14.007ZM18.6632 18.929C18.188 20.8367 14.9764 19.8059 13.9346 19.5468L14.7782 16.165C15.8196 16.4249 19.1581 16.9395 18.6632 18.929ZM19.138 13.9795C18.7048 15.7148 16.0314 14.8331 15.1637 14.617L15.9285 11.5497C16.7962 11.7659 19.5895 12.1693 19.138 13.9795Z" fill="white"/>
</svg>
