<svg width="32" height="32" viewBox="0 0 32 32" fill="none" xmlns="http://www.w3.org/2000/svg">
<rect width="32" height="32" rx="6" fill="#1A1B22"/>
<path d="M9.79588 15.9062C9.73586 16.9491 10.5387 17.8419 11.5816 17.902C11.6191 17.902 11.6566 17.902 11.6941 17.902C12.7445 17.902 13.5924 17.0541 13.5849 16.0037C13.5849 14.9533 12.737 14.1055 11.6866 14.113C10.6812 14.113 9.8484 14.9008 9.79588 15.9062Z" fill="#0033AD"/>
<path d="M2.72804 15.4185C2.3904 15.396 2.09779 15.6586 2.08278 15.9962C2.06778 16.3338 2.32288 16.6264 2.66051 16.6414C2.99814 16.664 3.28326 16.4013 3.30577 16.0637C3.32827 15.7261 3.06567 15.441 2.72804 15.4185Z" fill="#0033AD"/>
<path d="M9.67582 4.90686C9.97594 4.7568 10.096 4.38165 9.94592 4.08154C9.79586 3.78142 9.42072 3.66137 9.1206 3.81143C8.82048 3.96149 8.70043 4.32913 8.85049 4.62925C9.00055 4.93687 9.3682 5.06442 9.67582 4.90686Z" fill="#0033AD"/>
<path d="M11.5965 8.26077C12.0616 8.02818 12.2492 7.45795 12.0166 6.99277C11.784 6.52759 11.2138 6.34001 10.7486 6.5726C10.2834 6.8052 10.0959 7.37542 10.3285 7.8406C10.5611 8.30579 11.1313 8.49336 11.5965 8.26077Z" fill="#0033AD"/>
<path d="M5.12896 10.5641C5.48911 10.7967 5.9693 10.6992 6.20939 10.339C6.44198 9.97888 6.34444 9.49869 5.9843 9.2586C5.62416 9.026 5.14397 9.12354 4.90388 9.48368C4.66378 9.84383 4.76882 10.3315 5.12896 10.5641Z" fill="#0033AD"/>
<path d="M6.27695 15.0809C5.75175 15.0509 5.30907 15.4486 5.27906 15.9738C5.24905 16.499 5.6467 16.9417 6.17191 16.9717C6.69712 17.0017 7.13979 16.604 7.16981 16.0788C7.19982 15.5611 6.80216 15.111 6.27695 15.0809Z" fill="#0033AD"/>
<path d="M5.23405 21.4358C4.8514 21.6309 4.69384 22.0961 4.88891 22.4862C5.08399 22.8689 5.54918 23.0264 5.93933 22.8313C6.32198 22.6363 6.47954 22.1711 6.28447 21.7809C6.08939 21.3983 5.6167 21.2407 5.23405 21.4358Z" fill="#0033AD"/>
<path d="M8.91043 13.1226C9.42814 13.4602 10.1184 13.3177 10.4485 12.8C10.7862 12.2823 10.6436 11.592 10.1259 11.2619C9.60821 10.9242 8.91794 11.0668 8.58781 11.5845C8.25017 12.0947 8.39273 12.785 8.91043 13.1226Z" fill="#0033AD"/>
<path d="M20.5776 8.18565C21.0127 8.47076 21.6055 8.35071 21.8906 7.91554C22.1757 7.48037 22.0557 6.88764 21.6205 6.60252C21.1853 6.31741 20.5926 6.43746 20.3075 6.87263C20.0149 7.3153 20.1349 7.90054 20.5776 8.18565Z" fill="#0033AD"/>
<path d="M22.5133 4.84677C22.7984 5.03434 23.1735 4.95181 23.3611 4.6667C23.5487 4.38158 23.4661 4.00644 23.181 3.81886C22.8959 3.63129 22.5208 3.71382 22.3332 3.99143C22.1531 4.27654 22.2357 4.65919 22.5133 4.84677Z" fill="#0033AD"/>
<path d="M20.7201 14.098C19.6772 14.038 18.7769 14.8408 18.7243 15.8837C18.6643 16.9266 19.4671 17.827 20.5101 17.8795C20.5476 17.8795 20.5851 17.8795 20.6151 17.8795C21.658 17.8795 22.5058 17.0317 22.5058 15.9813C22.5133 14.9834 21.7255 14.1505 20.7201 14.098Z" fill="#0033AD"/>
<path d="M12.2193 12.9875C12.5419 13.6252 13.1947 14.0304 13.915 14.0304C14.9579 14.0304 15.8057 13.1826 15.8057 12.1322C15.8057 11.8395 15.7382 11.5469 15.6032 11.2768C15.1305 10.3389 13.99 9.9638 13.0597 10.4365C12.1218 10.9167 11.7466 12.0571 12.2193 12.9875Z" fill="#0033AD"/>
<path d="M27.0677 10.5642C27.4503 10.3691 27.6004 9.89641 27.4053 9.51376C27.2102 9.13111 26.7376 8.98105 26.3549 9.17613C25.9723 9.3712 25.8222 9.83639 26.0098 10.219C26.2123 10.6017 26.6775 10.7593 27.0677 10.5642Z" fill="#0033AD"/>
<path d="M22.2658 11.1643C21.7181 11.4419 21.493 12.1096 21.7706 12.6573C22.0482 13.2051 22.7159 13.4301 23.2637 13.1525C23.8114 12.8749 24.0365 12.2072 23.7589 11.6594C23.4812 11.1117 22.8135 10.8941 22.2658 11.1643Z" fill="#0033AD"/>
<path d="M16.0757 4.56173C16.5034 4.58423 16.871 4.2541 16.9011 3.82644C16.9311 3.39877 16.5934 3.03112 16.1658 3.00111C15.7381 2.9786 15.3705 3.30123 15.3404 3.7289C15.3179 4.16407 15.6481 4.53171 16.0757 4.56173Z" fill="#0033AD"/>
<path d="M16.0683 9.46112C16.6835 9.49864 17.2087 9.02595 17.2387 8.41071C17.2762 7.79547 16.8036 7.27026 16.1883 7.24025C15.5731 7.20273 15.0479 7.67542 15.0179 8.29066C14.9878 8.9059 15.453 9.43111 16.0683 9.46112Z" fill="#0033AD"/>
<path d="M10.0359 20.8358C10.5836 20.5582 10.8087 19.8904 10.5311 19.3427C10.2535 18.795 9.5857 18.5699 9.03799 18.8475C8.49027 19.1251 8.26518 19.7929 8.54279 20.3406C8.8204 20.8883 9.48816 21.1134 10.0359 20.8358Z" fill="#0033AD"/>
<path d="M16.7887 11.0892C16.2184 11.9671 16.4585 13.1375 17.3364 13.7078C18.2142 14.278 19.3847 14.0379 19.9549 13.16C20.5251 12.2822 20.285 11.1117 19.4072 10.5415C19.0996 10.3389 18.7394 10.2339 18.3718 10.2339C17.734 10.2339 17.1413 10.5565 16.7887 11.0892Z" fill="#0033AD"/>
<path d="M20.0824 19.0124C19.6097 18.0745 18.4693 17.6994 17.5389 18.1721C16.601 18.6448 16.2259 19.7852 16.6986 20.7156C17.1713 21.6535 18.3117 22.0286 19.2421 21.5559C20.1724 21.0907 20.5551 19.9653 20.0899 19.0274C20.0899 19.0199 20.0899 19.0199 20.0824 19.0124Z" fill="#0033AD"/>
<path d="M23.3912 18.8774C22.8735 18.5397 22.1832 18.6823 21.8531 19.2C21.5154 19.7177 21.658 20.408 22.1757 20.7381C22.6934 21.0757 23.3837 20.9332 23.7138 20.4155C24.0514 19.9053 23.9089 19.215 23.3912 18.8774Z" fill="#0033AD"/>
<path d="M27.0226 16.0338C27.0526 15.5086 26.6549 15.0659 26.1297 15.0359C25.6045 15.0059 25.1619 15.4035 25.1318 15.9287C25.1018 16.454 25.4995 16.8966 26.0247 16.9266C26.5424 16.9567 26.9926 16.5515 27.0226 16.0338Z" fill="#0033AD"/>
<path d="M29.6412 15.3585C29.3036 15.336 29.011 15.5986 28.996 15.9363C28.981 16.2739 29.2361 16.5665 29.5737 16.5815C29.9114 16.604 30.1965 16.3414 30.219 16.0038C30.234 15.6661 29.9789 15.381 29.6412 15.3585Z" fill="#0033AD"/>
<path d="M27.1726 21.4358C26.8125 21.2033 26.3323 21.3008 26.0922 21.6609C25.8596 22.0211 25.9572 22.5013 26.3173 22.7414C26.6774 22.9739 27.1576 22.8764 27.3977 22.5163C27.6378 22.1561 27.5328 21.6684 27.1726 21.4358Z" fill="#0033AD"/>
<path d="M9.78083 27.1531C9.49572 26.9655 9.12057 27.048 8.933 27.3257C8.74542 27.6108 8.82796 27.9859 9.10556 28.1735C9.39068 28.3611 9.76583 28.2785 9.9534 28.0009C10.1485 27.7233 10.0659 27.3407 9.78083 27.1531Z" fill="#0033AD"/>
<path d="M22.626 27.0931C22.3258 27.2432 22.2058 27.6183 22.3559 27.9184C22.5059 28.2185 22.8811 28.3386 23.1812 28.1885C23.4813 28.0385 23.6014 27.6708 23.4513 27.3707C23.3012 27.0631 22.9336 26.9355 22.626 27.0931Z" fill="#0033AD"/>
<path d="M15.5131 20.9105C16.0833 20.0327 15.8432 18.8622 14.9654 18.2845C14.0875 17.7143 12.9171 17.9544 12.3393 18.8322C11.7616 19.7101 12.0092 20.8805 12.8871 21.4583C13.1947 21.6608 13.5548 21.7659 13.9225 21.7659C14.5677 21.7734 15.1605 21.4508 15.5131 20.9105Z" fill="#0033AD"/>
<path d="M11.724 23.8143C11.2888 23.5292 10.6961 23.6493 10.411 24.0844C10.1259 24.5196 10.2459 25.1123 10.6811 25.3974C11.1163 25.6826 11.709 25.5625 11.9941 25.1273C12.2867 24.6922 12.1667 24.0994 11.724 23.8143Z" fill="#0033AD"/>
<path d="M16.1433 27.4382C15.7157 27.4157 15.348 27.7458 15.318 28.1735C15.288 28.6012 15.6256 28.9688 16.0533 28.9988C16.481 29.0213 16.8486 28.6987 16.8786 28.271C16.9011 27.8359 16.571 27.4682 16.1433 27.4382Z" fill="#0033AD"/>
<path d="M16.1508 22.539C15.5356 22.5014 15.0104 22.9741 14.9804 23.5894C14.9428 24.2046 15.4155 24.7298 16.0308 24.7598C16.646 24.7898 17.1712 24.3247 17.2012 23.7094C17.2388 23.1017 16.7661 22.569 16.1508 22.539Z" fill="#0033AD"/>
<path d="M20.7051 23.7392C20.2399 23.9793 20.0523 24.5495 20.2924 25.0147C20.5325 25.4799 21.1027 25.6675 21.5679 25.4274C22.0331 25.1948 22.2207 24.6246 21.9881 24.1594C21.748 23.6942 21.1778 23.4991 20.7051 23.7392Z" fill="#0033AD"/>
</svg>
