<svg width="42" height="42" viewBox="0 0 42 42" fill="none" xmlns="http://www.w3.org/2000/svg">
<path d="M14.7825 14.2825C14.3111 14.7539 14.3403 15.5434 14.8298 16.0329L19.7496 20.9527L15.0888 25.6135C14.625 26.0773 14.6465 26.8744 15.1361 27.364C15.6256 27.8535 16.4227 27.8751 16.8865 27.4113L21.5473 22.7504L26.4671 27.6702C26.9567 28.1598 27.7461 28.1889 28.2176 27.7175C28.6814 27.2537 28.6598 26.4566 28.1702 25.9671L23.2505 21.0473L27.9113 16.3865C28.3751 15.9227 28.3536 15.1256 27.864 14.636C27.3744 14.1465 26.5774 14.1249 26.1136 14.5887L21.4527 19.2495L16.533 14.3298C16.0434 13.8402 15.2463 13.8187 14.7825 14.2825Z" fill="#1A1B22"/>
</svg>
