<svg width="32" height="32" viewBox="0 0 32 32" fill="none" xmlns="http://www.w3.org/2000/svg">
<rect width="32" height="32" rx="6" fill="#1A1B22"/>
<path d="M22.4978 4.4934C21.769 5.22214 21.1014 6.01197 20.5079 6.85416L20.3203 6.79307C19.2381 6.43961 18.1166 6.22143 16.9864 6.14724C16.646 6.12106 15.3762 6.12106 14.9616 6.14724C13.7093 6.23015 12.7493 6.41779 11.6583 6.79744C11.6147 6.81489 11.5754 6.82798 11.5361 6.84107C10.9209 6.00324 10.2358 5.21777 9.48083 4.49776C13.1027 2.64319 17.3399 2.42064 21.1319 3.88248C21.5378 4.03521 21.9348 4.21412 22.3232 4.40613L22.4978 4.4934Z" fill="#F00500"/>
<path d="M29.2528 21.0447C28.703 22.6113 27.8782 24.0644 26.8091 25.3299C26.2287 26.0106 25.5873 26.6347 24.8978 27.2019C23.2832 28.5023 21.3981 29.4318 19.3864 29.9205C17.161 30.4573 14.8395 30.4573 12.614 29.9205C10.5979 29.4318 8.71719 28.5023 7.10261 27.2019C6.41315 26.6347 5.77168 26.0106 5.19131 25.3299C2.1149 21.6949 1.18106 16.7029 2.74763 12.2039C3.04437 11.3704 3.41528 10.5675 3.86038 9.80384C4.06547 9.45475 4.31857 9.06201 4.44075 8.90056C4.85967 10.7028 5.37458 12.2868 5.56659 12.8584C5.5535 12.889 5.53604 12.9239 5.51859 12.9544C4.50184 15.0141 3.95202 16.9996 3.82111 19.1116C3.82111 19.1378 3.81674 19.1684 3.81674 19.1945C3.78183 19.8273 3.79929 20.1284 3.90402 20.5255C4.23129 21.7691 5.23931 23.1393 6.81897 24.4833C9.40665 26.6827 12.9151 28.271 15.5726 28.4543C18.3435 28.642 22.4323 27.023 25.1553 24.6579C25.5829 24.2783 25.9844 23.8768 26.3596 23.4491C26.6302 23.135 27.0317 22.5939 27.0011 22.5939C26.9924 22.5939 27.0011 22.5851 27.0186 22.5764C27.0317 22.5677 27.0447 22.5546 27.036 22.5459C27.0317 22.5415 27.0404 22.5284 27.0535 22.524C27.0666 22.5197 27.0753 22.511 27.0709 22.5022C27.0666 22.4935 27.0709 22.4848 27.0884 22.4804C27.1015 22.476 27.1058 22.463 27.1015 22.4542C27.0971 22.4455 27.1015 22.4368 27.1102 22.4368C27.1189 22.4368 27.1277 22.4237 27.1277 22.415C27.1277 22.4062 27.1364 22.3931 27.1451 22.3931C27.1538 22.3931 27.1626 22.3844 27.1626 22.3757C27.1757 22.3408 27.1975 22.3059 27.2193 22.2753C27.2848 22.1749 27.5466 21.708 27.5815 21.6295C27.8302 21.0666 27.9873 20.5647 28.0615 20.0629C28.0964 19.8229 28.1182 19.3822 28.1008 19.2774C28.0964 19.26 28.0964 19.2294 28.092 19.1814C28.0833 19.0942 28.0789 18.9633 28.0702 18.8323C28.0615 18.636 28.044 18.3611 28.0309 18.2258C27.8433 16.2447 27.3371 14.6257 26.3771 12.9108C26.3378 12.8453 26.3029 12.7799 26.2811 12.7275C26.2724 12.7144 26.268 12.7013 26.2636 12.6926C26.3989 12.2868 26.9531 10.5893 27.3938 8.64746L27.4026 8.65619L27.468 8.74346C27.5815 8.89619 27.8826 9.35002 28.0179 9.5682C28.6331 10.5719 29.1131 11.6497 29.4535 12.7755C30.2433 15.4854 30.1779 18.3742 29.2528 21.0447Z" fill="#F00500"/>
<path d="M23.5886 15.8303C23.5755 15.9001 23.3704 16.1095 23.1653 16.2623C22.5631 16.703 21.4853 17.1132 20.39 17.3095C19.766 17.423 19.142 17.4405 18.9544 17.3488C18.8322 17.2877 18.8147 17.2397 18.8584 17.0826C18.95 16.7554 19.2467 16.3975 19.7093 16.0615C19.9449 15.8913 20.9006 15.311 21.3457 15.0666C22.0788 14.6651 22.6722 14.4251 23.0737 14.3684C23.2003 14.351 23.353 14.3466 23.401 14.3684C23.4795 14.399 23.5668 14.6302 23.6017 14.9095C23.6192 15.0579 23.6104 15.7124 23.5886 15.8303Z" fill="black"/>
<path d="M13.3079 17.2745C13.2817 17.3269 13.1508 17.3836 13.0024 17.4054C12.854 17.4272 12.4002 17.4141 12.1427 17.3836C11.2176 17.2614 10.2358 16.9778 9.52016 16.6287C9.1187 16.4323 8.83069 16.2359 8.61687 16.0221L8.49469 15.8956L8.4816 15.7297C8.45978 15.4417 8.46414 14.9879 8.49905 14.8264C8.52087 14.6912 8.56887 14.5603 8.63433 14.4424C8.66924 14.3988 8.66924 14.3988 8.82633 14.3988C9.01833 14.3988 9.17979 14.4294 9.44161 14.5123C9.97835 14.6781 10.7769 15.0795 11.75 15.6643C12.5529 16.1443 12.854 16.3799 13.0853 16.7028C13.2424 16.9036 13.3471 17.1872 13.3079 17.2745Z" fill="black"/>
<path d="M19.4867 23.349C19.4867 23.3621 19.4344 23.5715 19.3689 23.8203C19.3035 24.069 19.2511 24.2697 19.2511 24.2785C19.2031 24.2828 19.1595 24.2872 19.1115 24.2828H18.9718L18.7798 24.7366C18.6751 24.9854 18.5791 25.2167 18.566 25.2516L18.5398 25.3127L18.4482 25.1643L18.3565 25.0159V23.8072L18.3216 23.8159C18.2474 23.8334 17.7194 23.9032 17.4882 23.925C16.5325 24.021 15.5725 23.9992 14.6212 23.8639C14.4685 23.8421 14.3376 23.8246 14.3332 23.829C14.3288 23.8334 14.3332 24.1126 14.3419 24.4574L14.355 25.077L14.2808 25.1905C14.2416 25.2516 14.2023 25.3039 14.2023 25.3083C14.1892 25.3214 14.1456 25.2516 14.0452 25.0508C13.9361 24.8414 13.8576 24.6188 13.8008 24.3875L13.7703 24.261L13.635 24.2697L13.4997 24.2828L13.4648 24.1214C13.4474 24.0341 13.4255 23.8988 13.4168 23.8246L13.4037 23.685L13.2903 23.5846C13.2248 23.5279 13.1594 23.4712 13.1463 23.4624C13.1245 23.445 13.1157 23.4144 13.1157 23.3883V23.3359L13.6612 23.3403L14.2066 23.3446L14.2241 23.4014L14.2416 23.4581L14.4292 23.4668C14.5339 23.4712 14.8656 23.4799 15.1623 23.4886L15.7078 23.5017L15.8474 23.2835L15.9914 23.0653H16.1747L16.1703 22.6115L16.166 22.1577L15.926 22.053C15.1536 21.7126 14.6997 21.3242 14.5296 20.8529C14.4947 20.7569 14.4947 20.722 14.4859 20.2857C14.4816 19.8537 14.4816 19.8144 14.5121 19.7184C14.5732 19.5002 14.7434 19.33 14.9616 19.2733C15.0358 19.2515 15.2321 19.2515 16.262 19.2515L17.4751 19.2558L17.6103 19.3213C17.7718 19.3998 17.846 19.4566 17.9376 19.5787C18.0423 19.7184 18.0729 19.8275 18.0729 20.0937C18.0729 20.4733 18.0467 20.8006 18.0074 20.9315C17.9507 21.1104 17.8634 21.2806 17.7543 21.4333C17.5362 21.7126 17.1391 21.9919 16.7769 22.1184L16.6721 22.1577L16.6765 22.6159L16.6809 23.0741L16.7769 23.0828L16.8729 23.0915L17.0038 23.2879L17.1303 23.4843H17.7151C18.038 23.4843 18.3216 23.4886 18.3478 23.493C18.3914 23.5017 18.4002 23.4974 18.4438 23.4232L18.4962 23.3446H18.998C19.3733 23.3272 19.4867 23.3359 19.4867 23.349Z" fill="black"/>
<path d="M17.1829 24.6013C17.1 24.6493 17.0432 24.6711 17.0301 24.6624C17.017 24.658 16.9559 24.6056 16.8905 24.5576L16.7727 24.4616L16.6505 24.5925C16.3843 24.8805 16.3756 24.8936 16.297 24.898C16.1748 24.9111 16.1487 24.8893 16.0003 24.6667C15.9218 24.5533 15.8607 24.4573 15.8607 24.4573C15.8607 24.4573 15.8039 24.4485 15.7385 24.4442L15.6163 24.4311L15.5596 24.5489L15.5028 24.6667L15.4025 24.6362C15.3239 24.61 15.2454 24.5794 15.1712 24.5445L15.0403 24.4791V24.2303L16.201 24.2347L17.3618 24.2391L17.3661 24.3569C17.3705 24.4965 17.3749 24.4922 17.1829 24.6013Z" fill="black"/>
<path d="M28.0919 19.2776C28.0876 19.2601 28.0876 19.2296 28.0832 19.1816C27.0359 19.0681 24.0468 18.9983 21.2715 21.2893C21.2715 21.2893 20.3769 17.1874 16.1877 17.1874C11.9986 17.1874 10.4451 21.2893 10.4451 21.2893C8.09743 18.7627 4.95556 18.946 3.821 19.1118C3.821 19.138 3.81663 19.1685 3.81663 19.1947C3.78172 19.8274 3.79918 20.1285 3.90391 20.5256C4.23118 21.7693 5.2392 23.1395 6.81886 24.4835C9.40654 26.6828 12.915 28.2712 15.5725 28.4545C18.3434 28.6421 22.4322 27.0232 25.1552 24.658C25.5828 24.2784 25.9843 23.8769 26.3595 23.4493C26.6301 23.1351 27.0316 22.594 27.001 22.594C26.9923 22.594 27.001 22.5853 27.0185 22.5766C27.0316 22.5678 27.0446 22.5547 27.0359 22.546C27.0315 22.5416 27.0403 22.5286 27.0534 22.5242C27.0665 22.5198 27.0752 22.5111 27.0708 22.5024C27.0665 22.4936 27.0708 22.4849 27.0883 22.4806C27.1014 22.4762 27.1057 22.4631 27.1014 22.4544C27.097 22.4456 27.1014 22.4369 27.1101 22.4369C27.1188 22.4369 27.1276 22.4238 27.1276 22.4151C27.1276 22.4064 27.1363 22.3933 27.145 22.3933C27.1537 22.3933 27.1625 22.3846 27.1625 22.3758C27.1756 22.3409 27.1974 22.306 27.2192 22.2755C27.2846 22.1751 27.5465 21.7082 27.5814 21.6296C27.8301 21.0667 27.9872 20.5649 28.0614 20.0631C28.0876 19.8231 28.1094 19.3823 28.0919 19.2776ZM17.1827 24.6013C17.0998 24.6493 17.043 24.6711 17.0299 24.6624C17.0168 24.658 16.9557 24.6057 16.8903 24.5577L16.7725 24.4617L16.6503 24.5926C16.3841 24.8806 16.3754 24.8937 16.2968 24.898C16.1746 24.9111 16.1485 24.8893 16.0001 24.6668C15.9216 24.5533 15.8605 24.4573 15.8605 24.4573C15.8605 24.4573 15.8037 24.4486 15.7383 24.4442L15.6161 24.4311L15.5594 24.5489L15.5026 24.6668L15.4023 24.6362C15.3237 24.61 15.2452 24.5795 15.171 24.5446L15.0401 24.4791V24.2304L16.2008 24.2348L17.3616 24.2391L17.3659 24.3569C17.3703 24.4966 17.3747 24.4922 17.1827 24.6013ZM19.3645 23.8158C19.2991 24.0646 19.2467 24.2653 19.2467 24.274C19.1987 24.2784 19.1551 24.2828 19.1071 24.2784H18.9674L18.7798 24.7366C18.6751 24.9853 18.579 25.2166 18.566 25.2515L18.5398 25.3126L18.4481 25.1642L18.3565 25.0159V23.8071L18.3216 23.8158C18.2474 23.8333 17.7194 23.9031 17.4881 23.9249C16.5325 24.0209 15.5725 23.9991 14.6212 23.8638C14.4684 23.842 14.3375 23.8246 14.3332 23.8289C14.3288 23.8333 14.3332 24.1126 14.3419 24.4573L14.355 25.077L14.2808 25.1904C14.2415 25.2515 14.2023 25.3039 14.2023 25.3082C14.1892 25.3213 14.1455 25.2515 14.0452 25.0508C13.9361 24.8413 13.8575 24.6188 13.8008 24.3875L13.7702 24.2609L13.635 24.2697L13.4997 24.2828L13.4648 24.1213C13.4473 24.034 13.4255 23.8988 13.4168 23.8246L13.4037 23.6849L13.2902 23.5846C13.2248 23.5278 13.1593 23.4711 13.1462 23.4624C13.1244 23.4449 13.1157 23.4144 13.1157 23.3882V23.3358L13.6612 23.3402L14.2066 23.3446L14.2241 23.4013L14.2415 23.458L14.4292 23.4668C14.5339 23.4711 14.8655 23.4798 15.1623 23.4886L15.7077 23.5017L15.8474 23.2835L15.9914 23.0653H16.1747L16.1703 22.6115L16.1659 22.1576L15.9259 22.0529C15.1535 21.7125 14.6997 21.3242 14.5295 20.8529C14.4946 20.7569 14.4946 20.722 14.4859 20.2856C14.4815 19.8536 14.4815 19.8143 14.5121 19.7183C14.5732 19.5001 14.7434 19.33 14.9615 19.2732C15.0357 19.2514 15.2321 19.2514 16.2619 19.2514L17.475 19.2558L17.6103 19.3212C17.7718 19.3998 17.8459 19.4565 17.9376 19.5787C18.0423 19.7183 18.0729 19.8274 18.0729 20.0936C18.0729 20.4732 18.0467 20.8005 18.0074 20.9314C17.9507 21.1103 17.8634 21.2805 17.7543 21.4333C17.5361 21.7125 17.139 21.9918 16.7768 22.1184L16.6721 22.1576L16.6765 22.6158L16.6808 23.074L16.7768 23.0827L16.8728 23.0915L17.0038 23.2878L17.1303 23.4842H17.715C18.0379 23.4842 18.3216 23.4886 18.3478 23.4929C18.3914 23.5017 18.4001 23.4973 18.4438 23.4231L18.4961 23.3446H18.998C19.3863 23.3446 19.4998 23.3489 19.4998 23.362C19.4867 23.3577 19.43 23.5715 19.3645 23.8158Z" fill="white"/>
<path d="M28.057 18.8324C28.0483 18.6361 28.0308 18.3612 28.0177 18.2259C27.8301 16.2448 27.3239 14.6258 26.3639 12.9109C26.3246 12.8454 26.2897 12.78 26.2679 12.7276C26.2592 12.7145 26.2548 12.7014 26.2504 12.6927C26.3857 12.2869 26.9399 10.5894 27.3806 8.64756C27.9785 6.01188 28.3581 2.9311 27.1974 2.006C27.1974 2.006 25.1901 1.85763 22.502 4.49331C21.7733 5.22205 21.1056 6.01188 20.5122 6.85407L20.3245 6.79298C19.2423 6.43952 18.1208 6.22134 16.9906 6.14715C16.6503 6.12097 15.3804 6.12097 14.9659 6.14715C13.7135 6.23006 12.7535 6.4177 11.6626 6.79734C11.6189 6.8148 11.5797 6.82789 11.5404 6.84098C10.9251 6.00315 10.24 5.21768 9.48507 4.49767C6.68794 1.8489 4.60645 2.00163 4.60645 2.00163C3.37589 2.95728 3.7948 6.1777 4.4319 8.90065C4.85082 10.7029 5.36574 12.2869 5.55774 12.8585C5.54465 12.8891 5.52719 12.924 5.50974 12.9545C4.493 15.0142 3.94317 16.9997 3.81226 19.1117C4.95118 18.9459 8.08869 18.7583 10.4407 21.2892C10.4407 21.2892 11.9942 17.1873 16.1834 17.1873C20.3725 17.1873 21.2671 21.2892 21.2671 21.2892C24.0424 18.9983 27.0315 19.0724 28.0788 19.1815C28.0745 19.0943 28.0657 18.9634 28.057 18.8324ZM6.38248 11.2134C6.38248 11.2134 4.75045 7.13335 5.16937 4.80313C5.23919 4.4104 5.3701 4.06567 5.57519 3.80384C5.57519 3.80384 7.4254 3.98712 10.4102 7.30353C10.4102 7.30353 9.8429 7.57845 9.08362 8.16319C9.08362 8.16319 9.07925 8.16755 9.07488 8.16755C8.25014 8.80029 7.19413 9.80394 6.38248 11.2134ZM13.3077 17.2746C13.2815 17.327 13.1506 17.3837 13.0022 17.4055C12.8539 17.4273 12.4 17.4142 12.1426 17.3837C11.2175 17.2615 10.2356 16.9779 9.51999 16.6288C9.11853 16.4324 8.83052 16.236 8.6167 16.0222L8.49451 15.8957L8.48142 15.7298C8.4596 15.4418 8.46397 14.988 8.49888 14.8266C8.5207 14.6913 8.5687 14.5604 8.63415 14.4426C8.66906 14.3989 8.66906 14.3989 8.82616 14.3989C9.01816 14.3989 9.17961 14.4295 9.44144 14.5124C9.97817 14.6782 10.7767 15.0797 11.7498 15.6644C12.5528 16.1444 12.8539 16.38 13.0851 16.703C13.2422 16.9037 13.347 17.1873 13.3077 17.2746ZM23.5886 15.8302C23.5755 15.9 23.3704 16.1095 23.1653 16.2622C22.5631 16.703 21.4853 17.1131 20.39 17.3095C19.766 17.423 19.142 17.4404 18.9543 17.3488C18.8321 17.2877 18.8147 17.2397 18.8583 17.0826C18.95 16.7553 19.2467 16.3975 19.7092 16.0615C19.9449 15.8913 20.9005 15.3109 21.3456 15.0666C22.0787 14.6651 22.6722 14.4251 23.0737 14.3684C23.2002 14.3509 23.3529 14.3466 23.4009 14.3684C23.4795 14.3989 23.5668 14.6302 23.6017 14.9095C23.6191 15.0578 23.6104 15.7124 23.5886 15.8302ZM22.8642 8.16319L22.8555 8.15882C22.1224 7.57408 21.5725 7.29917 21.5725 7.29917C24.457 3.98275 26.2417 3.79948 26.2417 3.79948C26.4381 4.06567 26.5646 4.40603 26.6344 4.79877C27.0403 7.12899 25.465 11.2134 25.465 11.2134C24.806 10.0396 23.9202 9.00102 22.8642 8.16319Z" fill="#FFA409"/>
<path d="M26.6386 4.79873C26.2983 4.75509 24.6881 4.74636 22.864 8.16314L22.8553 8.15878C22.1222 7.57404 21.5724 7.29913 21.5724 7.29913C24.4568 3.98271 26.2416 3.79944 26.2416 3.79944C26.4423 4.06562 26.5688 4.40599 26.6386 4.79873Z" fill="#FF9300"/>
<path d="M25.4691 11.2134C24.8059 10.0352 23.9244 9.00096 22.864 8.16313C24.688 4.74634 26.2939 4.75507 26.6386 4.79871C27.0444 7.13329 25.4691 11.2134 25.4691 11.2134Z" fill="#FF8300"/>
<path d="M26.7034 4.81165C26.6818 4.80733 26.6602 4.80302 26.6387 4.79871L26.7034 4.81165Z" fill="#FF8300"/>
<path d="M10.4102 7.29913C10.4102 7.29913 9.84293 7.57404 9.08365 8.15878C9.08365 8.15878 9.07928 8.16314 9.07492 8.16314C7.18543 4.742 5.52286 4.75509 5.16504 4.79873C5.23486 4.40599 5.36577 4.06126 5.57087 3.79944C5.57523 3.79944 7.42544 3.98271 10.4102 7.29913Z" fill="#FF9300"/>
<path d="M9.07935 8.16313C8.25025 8.80023 7.19423 9.79951 6.38258 11.2134C6.38258 11.2134 4.75056 7.13329 5.16947 4.79871C5.52293 4.75507 7.18987 4.74634 9.07935 8.16313Z" fill="#FF8300"/>
<path d="M5.16863 4.79871C5.14706 4.80302 5.12118 4.80733 5.09961 4.81165L5.16863 4.79871Z" fill="#FF8300"/>
<path d="M21.0532 13.4781C21.0532 13.4781 19.6568 13.5654 19.8314 12.4745C20.0059 11.3835 21.0969 11.2526 21.4023 11.2963C21.7078 11.3399 22.9296 11.7763 22.7114 12.6926C22.4932 13.609 22.1878 13.4345 22.0132 13.4781C21.8387 13.5217 21.0532 13.4781 21.0532 13.4781Z" fill="white"/>
<path d="M10.755 13.4781C10.755 13.4781 9.35862 13.5654 9.53317 12.4745C9.70771 11.3835 10.7986 11.2526 11.1041 11.2963C11.4096 11.3399 12.6314 11.7763 12.4132 12.6926C12.195 13.609 11.8896 13.4345 11.715 13.4781C11.5405 13.5217 10.755 13.4781 10.755 13.4781Z" fill="white"/>
</svg>
